<?xml version="1.0" encoding="UTF-8" standalone="no"?>
<!-- Uploaded to: SVG Repo, www.svgrepo.com, Generator: SVG Repo Mixer Tools -->

<svg
   width="4500"
   height="800"
   viewBox="-19.5 0 1659.375 295"
   version="1.1"
   preserveAspectRatio="xMidYMid"
   id="svg2"
   sodipodi:docname="Cucumber.svg"
   inkscape:version="1.3.2 (091e20ef0f, 2023-11-25, custom)"
   xmlns:inkscape="http://www.inkscape.org/namespaces/inkscape"
   xmlns:sodipodi="http://sodipodi.sourceforge.net/DTD/sodipodi-0.dtd"
   xmlns="http://www.w3.org/2000/svg"
   xmlns:svg="http://www.w3.org/2000/svg">
  <defs
     id="defs2" />
  <sodipodi:namedview
     id="namedview2"
     pagecolor="#ffffff"
     bordercolor="#666666"
     borderopacity="1.0"
     inkscape:showpageshadow="2"
     inkscape:pageopacity="0.0"
     inkscape:pagecheckerboard="0"
     inkscape:deskcolor="#d1d1d1"
     inkscape:zoom="0.14181862"
     inkscape:cx="2608.9663"
     inkscape:cy="518.26763"
     inkscape:window-width="1707"
     inkscape:window-height="844"
     inkscape:window-x="0"
     inkscape:window-y="0"
     inkscape:window-maximized="1"
     inkscape:current-layer="svg2" />
  <g
     id="g2"
     transform="translate(-1.3125e-4)">
    <path
       d="M 129.34987,0 C 57.857638,0 0,58.017778 0,129.70789 0,192.82663 45.120779,245.27194 104.66478,256.94044 v 37.13012 C 182.07797,282.36713 250.62266,220.74605 255.73753,139.85679 258.81626,91.168235 234.60745,41.463104 193.77796,17.32739 191.4403,15.945522 189.06525,14.573683 186.61928,13.366844 184.12695,12.137127 181.56764,10.93862 178.9669,9.9013658 178.14135,9.5550699 177.33244,9.2409241 176.4984,8.9112292 174.22692,8.0703934 171.93491,7.1235479 169.58657,6.4358878 156.92942,2.2525536 143.39912,0 129.34987,0 Z"
       fill="#00a818"
       id="path1" />
    <path
       d="m 156.14643,47.927068 c -4.43381,-0.455771 -9.1026,1.091366 -12.36766,4.960754 -2.37459,3.174883 -3.85871,6.250551 -5.44177,9.425433 -4.74918,11.11209 -3.16612,23.017901 3.95765,31.748828 11.08142,-2.381162 20.48084,-9.47504 25.23002,-20.58713 1.58306,-3.174883 2.47353,-7.242702 2.47353,-10.417584 0.49471,-8.433283 -6.4621,-14.370686 -13.85177,-15.130301 z m -57.633281,0.744113 c -7.22735,0.689855 -14.099126,6.448981 -14.099126,14.386188 0,3.174882 0.890468,7.242701 2.47353,10.417584 4.749182,11.11209 14.890657,18.205968 25.972077,20.58713 6.33224,-8.730927 7.96477,-20.636738 3.21559,-31.748828 -1.58306,-3.174882 -3.06718,-6.300158 -5.44177,-8.68132 -3.26506,-3.869388 -7.78389,-5.374667 -12.120301,-4.960754 z M 59.67871,86.86899 c -12.481672,0.642358 -18.056777,16.37049 -7.667946,24.55573 3.16612,2.38117 6.233299,4.11743 9.399419,5.70487 11.081418,4.76233 23.894308,3.12528 33.392671,-3.22449 C 92.428262,103.58673 84.364553,94.111691 73.283131,89.349367 69.325481,87.761926 66.10989,86.86899 62.15224,86.86899 c -0.890469,-0.09922 -1.64142,-0.04286 -2.47353,0 z m 121.94509,48.11932 c -7.25055,-0.13954 -14.59384,1.9843 -20.53031,5.9529 2.37459,10.31837 10.4383,19.79341 21.51972,24.55574 3.95765,1.58744 7.17324,2.48037 11.13089,2.48037 14.24754,0.79372 21.2229,-16.86656 10.14148,-24.80377 -3.16612,-2.38116 -6.2333,-3.86939 -9.39942,-5.45683 -4.15553,-1.78587 -8.51204,-2.6447 -12.86236,-2.72841 z m -108.093316,0.74411 c -4.350323,0.0837 -8.706829,0.94254 -12.862362,2.72841 -3.95765,1.58745 -7.024829,3.32371 -9.399418,5.70487 -10.289891,8.73093 -3.364002,25.34946 10.883536,24.55574 3.95765,0 7.964772,-0.89294 11.130891,-2.48038 11.081422,-4.76232 18.947249,-14.23737 20.530311,-24.55573 -5.936476,-3.96861 -13.032417,-6.09243 -20.282958,-5.95291 z m 40.071206,24.3077 c -11.08142,2.38116 -20.480838,9.47504 -25.23002,20.58713 -1.583058,3.17488 -2.47353,6.99466 -2.47353,10.16954 -0.79153,13.49326 17.56207,20.73596 25.47737,10.41759 2.37459,-3.17489 3.85871,-6.25055 5.44177,-9.42544 4.74918,-10.31836 3.11665,-22.22418 -3.21559,-31.74882 z m 29.43502,0.74411 c -6.33224,8.73093 -7.96477,20.63674 -3.21559,31.74883 1.58306,3.17488 3.06718,6.30016 5.44177,8.68132 8.70683,9.52465 27.01096,2.48037 26.21943,-9.42544 0,-3.17488 -0.89047,-7.2427 -2.47353,-10.41758 -4.74918,-11.11209 -14.89066,-18.20597 -25.97208,-20.58713 z"
       fill="#ffffff"
       id="path2" />
  </g>
  <text
     xml:space="preserve"
     style="font-style:normal;font-variant:normal;font-weight:normal;font-stretch:normal;font-size:277.812px;line-height:1.25;font-family:'Liberation Sans';-inkscape-font-specification:'Liberation Sans';letter-spacing:0px;word-spacing:0px;fill:#00a818;fill-opacity:1;stroke-width:1.9293;stroke-dasharray:none"
     x="291.06763"
     y="248.99167"
     id="text2"><tspan
       sodipodi:role="line"
       id="tspan2"
       style="font-style:normal;font-variant:normal;font-weight:normal;font-stretch:normal;font-family:'Liberation Sans';-inkscape-font-specification:'Liberation Sans';fill:#00a818;fill-opacity:1;stroke-width:1.9293;stroke-dasharray:none"
       x="291.06763"
       y="248.99167">Cucumber</tspan></text>
</svg>
