<?xml version="1.0" encoding="UTF-8"?>
<svg xmlns="http://www.w3.org/2000/svg" xmlns:xlink="http://www.w3.org/1999/xlink" width="409.41pt" height="112pt" viewBox="0 0 409.41 112" version="1.1">
<defs>
<clipPath id="clip1">
  <path d="M 355 32 L 409.410156 32 L 409.410156 106 L 355 106 Z M 355 32 "/>
</clipPath>
</defs>
<g id="surface1">
<g clip-path="url(#clip1)" clip-rule="nonzero">
<path style=" stroke:none;fill-rule:evenodd;fill:rgb(13.699341%,12.199402%,12.5%);fill-opacity:1;" d="M 355.820313 36.015625 C 355.820313 36.015625 360.285156 35.804688 365.3125 34.890625 C 369.367188 34.15625 373.03125 32.070313 373.03125 32.070313 L 373.03125 45.597656 C 373.03125 45.597656 376.089844 32.832031 390.65625 32.832031 C 393.808594 32.832031 407.429688 32.070313 407.429688 50.988281 C 407.429688 51.839844 407.429688 88.46875 407.429688 92.757813 C 407.429688 101.992188 409.414063 105.226563 409.414063 105.226563 C 409.414063 105.226563 403.894531 104.609375 399.765625 104.609375 C 395.636719 104.609375 392.136719 105.226563 392.136719 105.226563 C 392.136719 105.226563 393.800781 99.777344 393.800781 85.867188 C 393.800781 78.695313 393.800781 65.34375 393.800781 60.089844 C 393.800781 54.835938 394.621094 43.324219 385.066406 43.324219 C 372.445313 43.324219 373.273438 59.261719 373.273438 66.667969 C 373.273438 74.074219 373.273438 90.042969 373.273438 92.542969 C 373.273438 101.4375 374.640625 105.226563 374.640625 105.226563 C 374.640625 105.226563 370.535156 104.722656 365.324219 104.722656 C 360.109375 104.722656 357.894531 105.226563 357.894531 105.226563 C 357.894531 105.226563 359.789063 102.382813 359.789063 86.742188 C 359.789063 71.097656 359.789063 60.089844 359.789063 54.128906 C 359.789063 37.054688 355.820313 36.015625 355.820313 36.015625 "/>
</g>
<path style=" stroke:none;fill-rule:evenodd;fill:rgb(92.498779%,0%,54.899597%);fill-opacity:1;" d="M 281.15625 2.746094 L 292.152344 13.742188 L 281.15625 24.738281 L 270.160156 13.742188 L 281.15625 2.746094 "/>
<path style=" stroke:none;fill-rule:evenodd;fill:rgb(13.699341%,12.199402%,12.5%);fill-opacity:1;" d="M 288.414063 91.875 C 288.414063 87.675781 288.414063 47.691406 288.414063 42.992188 C 288.414063 38.289063 289.550781 32.070313 289.550781 32.070313 C 289.550781 32.070313 286.613281 33.699219 282.441406 34.6875 C 278.273438 35.679688 270.941406 36.453125 270.941406 36.453125 C 270.941406 36.453125 275.015625 37.789063 275.015625 50.359375 C 275.015625 57.261719 275.015625 81.722656 275.015625 86.070313 C 275.015625 102.878906 272.554688 105.226563 272.554688 105.226563 C 272.554688 105.226563 277.8125 104.59375 282.210938 104.59375 C 286.609375 104.59375 290.847656 105.226563 290.847656 105.226563 C 290.847656 105.226563 288.414063 101.648438 288.414063 91.875 "/>
<path style=" stroke:none;fill-rule:evenodd;fill:rgb(13.699341%,12.199402%,12.5%);fill-opacity:1;" d="M 302.851563 50.113281 C 302.851563 50.113281 302.585938 47.824219 301.1875 44.019531 C 299.789063 40.214844 298.777344 38.917969 298.777344 38.917969 C 298.777344 38.917969 308.425781 32.832031 323.070313 32.832031 C 341.578125 32.832031 345.257813 41.128906 345.257813 53.988281 L 345.257813 90.34375 C 345.257813 103.558594 348.023438 105.226563 348.023438 105.226563 C 348.023438 105.226563 345.292969 104.800781 340.832031 104.800781 C 336.371094 104.800781 332.71875 105.226563 332.71875 105.226563 C 332.71875 105.226563 332.398438 99.671875 332.398438 96.191406 L 332.398438 91.53125 C 332.398438 91.53125 328.253906 105.691406 314.164063 105.691406 C 300.078125 105.691406 296.640625 94.308594 296.640625 84.167969 C 296.640625 76.570313 297.890625 60.113281 324.050781 60.113281 C 330.226563 60.113281 332.082031 60.511719 332.082031 60.511719 L 332.082031 55.445313 C 332.082031 52.164063 332.199219 43.222656 321.402344 43.222656 C 309.535156 43.222656 302.851563 50.113281 302.851563 50.113281 Z M 323.542969 68.214844 L 332.351563 68.214844 C 332.351563 68.214844 334.238281 94.238281 319.234375 94.238281 C 315.027344 94.238281 309.757813 91.914063 309.757813 81.9375 C 309.757813 69.605469 319.6875 68.214844 323.542969 68.214844 "/>
<path style=" stroke:none;fill-rule:evenodd;fill:rgb(13.699341%,12.199402%,12.5%);fill-opacity:1;" d="M 214.644531 30.308594 L 214.644531 91.210938 C 214.644531 98.628906 213.09375 102.714844 213.09375 102.714844 C 213.09375 102.714844 220.535156 105.992188 232.144531 105.992188 C 255.398438 105.992188 265.828125 90.601563 265.828125 63.777344 C 265.828125 57.90625 265.652344 32.832031 245.632813 32.832031 C 231.65625 32.832031 227.695313 48.457031 227.695313 48.457031 L 227.695313 39.21875 C 227.695313 31.929688 228.789063 6.800781 228.789063 6.800781 C 228.789063 6.800781 225.566406 8.753906 219.632813 10.332031 C 213.699219 11.910156 209.472656 11.988281 209.472656 11.988281 C 209.472656 11.988281 214.644531 12.921875 214.644531 30.308594 Z M 228.007813 76.308594 C 228.007813 84.5625 228.367188 96.910156 228.367188 96.910156 C 228.367188 96.910156 232.789063 97.617188 234.558594 97.617188 C 250.4375 97.617188 251.910156 79.261719 251.910156 70.226563 C 251.910156 61.191406 251.121094 45.160156 240.363281 45.160156 C 227.355469 45.160156 228.007813 68.054688 228.007813 76.308594 "/>
<path style=" stroke:none;fill-rule:evenodd;fill:rgb(13.699341%,12.199402%,12.5%);fill-opacity:1;" d="M 209.597656 92.160156 C 209.597656 92.160156 208.785156 95.652344 208.460938 98.902344 C 208.136719 102.15625 208.285156 104.050781 208.285156 104.050781 C 208.285156 104.050781 203.925781 105.984375 192.882813 105.984375 C 158.460938 105.984375 160.921875 72.898438 160.921875 68.246094 C 160.921875 63.59375 160.601563 32.832031 187.050781 32.832031 C 208.113281 32.832031 209.820313 50.816406 209.820313 62.34375 C 209.820313 69.980469 209.601563 71.0625 209.601563 71.0625 L 175.019531 71.0625 C 175.019531 71.0625 172.542969 96.039063 195.246094 96.039063 C 204.855469 96.039063 209.597656 92.160156 209.597656 92.160156 Z M 174.6875 61.949219 L 196.796875 61.949219 C 196.796875 61.949219 199.140625 41.492188 186.269531 41.492188 C 173.289063 41.492188 174.6875 61.949219 174.6875 61.949219 "/>
<path style=" stroke:none;fill-rule:evenodd;fill:rgb(13.699341%,12.199402%,12.5%);fill-opacity:1;" d="M 156.214844 6.800781 C 156.214844 6.800781 154.714844 18.015625 154.714844 35.1875 L 154.714844 76.960938 C 154.714844 100.675781 158.179688 105.226563 158.179688 105.226563 C 158.179688 105.226563 154.09375 104.859375 151.097656 104.859375 C 148.097656 104.859375 142.136719 105.226563 142.136719 105.226563 L 141.839844 94.039063 C 141.839844 94.039063 139.46875 105.796875 126.242188 105.796875 C 113.015625 105.796875 104.058594 93.296875 104.058594 68.296875 C 104.058594 56.734375 106.214844 32.832031 131.660156 32.832031 C 137.855469 32.832031 142.035156 34.75 142.035156 34.75 L 142.035156 22.699219 C 142.035156 13.640625 138.496094 11.988281 138.496094 11.988281 C 138.496094 11.988281 144.066406 11.289063 149.039063 9.847656 C 154.007813 8.402344 156.214844 6.800781 156.214844 6.800781 Z M 141.617188 44.792969 C 141.617188 44.792969 137.914063 42.390625 133.179688 42.390625 C 118.347656 42.390625 117.871094 58.933594 117.871094 66.46875 C 117.871094 74.003906 118.640625 94.003906 131.375 94.003906 C 141.289063 94.003906 141.664063 84.46875 141.664063 70.84375 L 141.617188 44.792969 "/>
<path style=" stroke:none;fill-rule:evenodd;fill:rgb(92.498779%,0%,54.899597%);fill-opacity:1;" d="M 67.402344 47.933594 C 67.402344 47.933594 67.839844 47.4375 67.839844 46.027344 C 67.839844 44.617188 67.816406 44.421875 67.621094 44.421875 C 67.421875 44.421875 67.121094 44.734375 67.054688 45.207031 C 67.011719 45.503906 66.742188 45.855469 66.742188 46.0625 C 66.742188 46.269531 67.113281 46.328125 67.113281 46.617188 C 67.113281 47.332031 67.402344 47.933594 67.402344 47.933594 "/>
<path style=" stroke:none;fill-rule:evenodd;fill:rgb(92.498779%,0%,54.899597%);fill-opacity:1;" d="M 52.910156 59.339844 C 52.910156 59.636719 54.078125 59.941406 55.136719 60.199219 C 56.195313 60.457031 55.996094 60.246094 56.320313 60.371094 C 56.644531 60.496094 56.757813 60.660156 57.015625 60.398438 C 57.273438 60.140625 58.847656 58.890625 58.5625 58.890625 C 58.277344 58.890625 57.855469 59.253906 56.835938 59.253906 C 55.03125 59.253906 54.457031 59.167969 53.953125 59.167969 C 53.445313 59.167969 52.910156 59.242188 52.910156 59.339844 "/>
<path style=" stroke:none;fill-rule:evenodd;fill:rgb(92.498779%,0%,54.899597%);fill-opacity:1;" d="M 51.949219 112 C 51.949219 112 49.234375 111.957031 47.414063 111.957031 C 45.59375 111.957031 45.046875 111.847656 44.59375 111.847656 C 44.140625 111.847656 43.671875 111.808594 42.484375 111.546875 C 41.296875 111.285156 40.226563 110.894531 39.453125 110.65625 C 38.675781 110.417969 36.566406 109.703125 35.136719 109.246094 C 33.703125 108.789063 29.886719 107.492188 27.632813 106.535156 C 25.371094 105.578125 21.988281 104.015625 19.171875 101.738281 C 16.351563 99.460938 14.285156 97.683594 10.945313 93.410156 C 7.605469 89.136719 5.71875 85.984375 4.371094 82.972656 C 3.027344 79.960938 1.640625 75.511719 1.425781 70.867188 C 1.363281 69.472656 1.1875 64.292969 1.1875 60.371094 C 1.1875 56.445313 1.273438 55.167969 1.207031 54.1875 C 1.140625 53.210938 1.097656 51.519531 1.097656 50.585938 C 1.097656 49.652344 1.449219 44.347656 1.449219 43.339844 C 1.449219 42.957031 0.902344 42.105469 0.902344 41.929688 C 0.902344 41.757813 3.023438 34.925781 3.632813 33.253906 C 4.246094 31.582031 5.5625 28.914063 5.871094 28.308594 C 6.175781 27.699219 6.261719 27.21875 6.261719 27.21875 C 6.261719 27.21875 6.5 27.9375 6.804688 27.9375 C 7.109375 27.9375 7.691406 27.078125 8.082031 26.378906 C 8.476563 25.679688 8.933594 24.640625 9.167969 23.859375 C 9.40625 23.078125 9.761719 22.496094 9.929688 22.039063 C 10.101563 21.582031 10.496094 21.1875 10.6875 20.753906 C 10.882813 20.324219 10.945313 20.191406 11.1875 20.191406 C 11.425781 20.191406 11.445313 20.039063 11.792969 18.871094 C 12.144531 17.699219 12.625 17.289063 12.882813 16.832031 C 13.136719 16.371094 14.378906 15.351563 15.027344 14.851563 C 15.679688 14.355469 16.804688 13.355469 17.433594 12.925781 C 18.0625 12.492188 19.507813 11.105469 20.25 10.34375 C 20.992188 9.585938 21.1875 9.277344 21.1875 9.277344 C 21.1875 9.277344 21.296875 9.546875 21.296875 9.824219 C 21.296875 10.105469 21.3125 10.40625 21.683594 10.015625 C 22.054688 9.628906 23.183594 8.628906 23.964844 8.066406 C 24.746094 7.503906 26.03125 6.4375 27.199219 5.875 C 28.367188 5.3125 29.925781 4.617188 31.578125 4.011719 C 33.226563 3.402344 35.195313 2.726563 36.261719 2.164063 C 37.324219 1.601563 38.691406 1.058594 38.691406 1.058594 C 38.691406 1.058594 37.65625 2.101563 38.542969 1.90625 C 39.429688 1.710938 42.007813 0.796875 43.117188 0.796875 C 43.726563 0.796875 44.164063 0.730469 44.164063 0.730469 C 44.164063 0.730469 43.183594 1.316406 42.6875 1.578125 C 42.1875 1.839844 41.710938 2.207031 41.710938 2.207031 C 41.710938 2.207031 43.796875 1.710938 44.25 1.710938 C 44.703125 1.710938 44.925781 2.339844 45.832031 2.339844 C 46.742188 2.339844 47.9375 2.097656 47.9375 2.097656 C 47.9375 2.097656 47.195313 2.449219 46.851563 2.449219 C 46.507813 2.449219 46.371094 2.644531 46.003906 2.664063 C 45.636719 2.6875 45.636719 2.96875 46.179688 2.988281 C 46.71875 3.011719 48.199219 3.054688 48.742188 3.054688 C 49.910156 3.054688 50.019531 2.140625 51.035156 2.140625 C 51.601563 2.140625 53.945313 2.988281 53.945313 2.988281 L 53.601563 1.820313 C 53.601563 1.820313 57.246094 3.253906 58.503906 3.449219 C 59.757813 3.640625 60.371094 3.835938 61.539063 4.421875 C 62.710938 5.003906 65.179688 6.289063 65.179688 6.289063 C 65.179688 6.289063 66.207031 6.355469 66.507813 6.246094 C 66.808594 6.136719 66.984375 5.507813 67.589844 5.507813 C 68.199219 5.507813 70.257813 6.179688 70.257813 6.699219 C 70.257813 7.21875 70.363281 7.464844 70.644531 7.632813 C 70.929688 7.804688 73.492188 9.453125 73.492188 9.453125 C 73.492188 9.453125 73.835938 9.238281 73.40625 8.910156 C 72.972656 8.585938 71.929688 7.394531 71.929688 7.394531 C 71.929688 7.394531 73.644531 8.496094 74.359375 8.824219 C 75.078125 9.152344 77.050781 10.492188 78.308594 11.359375 C 79.566406 12.230469 81.296875 13.832031 82.425781 15.027344 C 83.558594 16.222656 85.878906 19.039063 86.855469 21.601563 C 87.832031 24.164063 89.046875 27.914063 89.046875 27.914063 C 89.046875 27.914063 87.722656 25.507813 87.546875 25.550781 C 87.375 25.597656 88.242188 28.742188 88.394531 29.175781 C 88.546875 29.609375 88.394531 29.609375 88.242188 29.671875 C 88.089844 29.738281 87.9375 29.84375 88.199219 30.214844 C 88.460938 30.585938 89.203125 32.925781 89.480469 33.925781 C 89.761719 34.925781 90.433594 38.265625 90.433594 38.265625 C 90.433594 38.265625 89.789063 36.125 89.460938 34.710938 C 89.132813 33.296875 88.527344 31.625 88.089844 30.5 C 87.417969 28.761719 85.816406 26.460938 85.816406 26.460938 C 85.816406 26.460938 85.636719 27.742188 85.269531 27.742188 C 84.902344 27.742188 83.820313 26.332031 83.472656 26.332031 C 83.121094 26.332031 83.421875 26.957031 83.816406 28.609375 C 84.210938 30.257813 85.097656 31.5 84.992188 30.5 C 84.882813 29.5 84.691406 28.761719 85.097656 29.476563 C 85.511719 30.191406 85.984375 31.101563 85.984375 31.40625 C 85.984375 31.710938 86.007813 32.84375 86.183594 33.253906 C 86.355469 33.664063 87.027344 36.121094 86.898438 36.269531 C 86.765625 36.417969 86.464844 36.136719 86.246094 35.554688 C 86.03125 34.96875 85.792969 34.511719 85.664063 34.511719 C 85.53125 34.511719 85.160156 34.46875 85.511719 35.597656 C 85.859375 36.722656 86.15625 37.742188 86.597656 38.199219 C 87.039063 38.65625 87.207031 38.609375 87.039063 38.792969 C 86.871094 38.976563 86.914063 38.976563 86.792969 38.824219 C 86.671875 38.671875 86.429688 38.640625 86.429688 39.707031 C 86.429688 40.773438 86.671875 43.132813 86.945313 43.132813 C 87.222656 43.132813 87.417969 42.417969 87.816406 42.417969 C 88.210938 42.417969 87.96875 42.496094 87.753906 43.421875 C 87.539063 44.351563 87.222656 44.519531 86.992188 45.144531 C 86.765625 45.769531 86.246094 46.117188 86.246094 47.304688 C 86.246094 48.496094 86.597656 49.410156 86.597656 49.410156 C 86.597656 49.410156 86.199219 48.691406 86.078125 48.191406 C 85.957031 47.6875 85.710938 47.671875 85.710938 47.457031 C 85.710938 47.035156 85.542969 47.1875 85.542969 47.65625 C 85.542969 48.433594 85.453125 48.433594 85.453125 48.570313 C 85.453125 48.707031 85.699219 48.550781 85.699219 48.890625 C 85.699219 49.226563 85.820313 49.089844 85.820313 49.425781 C 85.820313 49.757813 85.820313 50.140625 85.820313 50.261719 C 85.820313 50.382813 85.453125 49.820313 85.453125 49.394531 C 85.453125 48.96875 85.515625 48.496094 85.269531 48.769531 C 85.027344 49.042969 84.921875 49.300781 84.921875 49.300781 C 84.921875 49.300781 84.921875 50.460938 84.921875 51.328125 C 84.921875 52.195313 84.722656 53.523438 84.160156 54.300781 C 83.59375 55.074219 83.199219 55.484375 83.003906 55.835938 C 82.804688 56.1875 81.867188 57.179688 81.8125 57.96875 C 81.738281 59.035156 81.8125 59.980469 81.8125 59.980469 L 80.703125 58.320313 C 80.703125 58.320313 79.847656 59.417969 79.40625 60.164063 C 78.964844 60.90625 78.660156 61.410156 78.660156 61.578125 C 78.660156 61.746094 78.675781 61.746094 78.902344 61.746094 C 79.132813 61.746094 79.757813 61.425781 79.757813 61.746094 C 79.757813 62.066406 78.570313 64.382813 78.570313 64.046875 C 78.570313 63.925781 79.175781 63.210938 78.875 63.210938 C 78.570313 63.210938 78.308594 63.359375 78.460938 63.085938 C 78.613281 62.8125 79.195313 62.097656 79.195313 62.097656 C 79.195313 62.097656 78.519531 62.265625 77.914063 62.875 C 77.304688 63.484375 76.941406 63.992188 76.617188 64.316406 C 76.289063 64.640625 76.246094 64.6875 75.878906 65.011719 C 75.507813 65.335938 74.757813 65.917969 74.300781 66.328125 C 73.84375 66.746094 71.582031 68.367188 70.328125 69.308594 C 69.074219 70.246094 66.425781 72.167969 63.605469 72.796875 C 60.785156 73.421875 59.488281 73.457031 58.585938 73.457031 C 57.675781 73.457031 55.082031 73.402344 49.859375 71.578125 C 47.273438 70.675781 46.667969 70.464844 46.667969 70.390625 C 46.667969 70.316406 46.800781 70.363281 46.800781 70.292969 C 46.800781 70.222656 46.292969 69.875 45.472656 69.230469 C 44.652344 68.585938 42.5 66.882813 41.882813 66.414063 C 41.265625 65.945313 39.71875 64.683594 39.265625 64.328125 C 38.816406 63.96875 36.875 62.089844 36.875 62.089844 L 37.269531 63.339844 C 37.269531 63.339844 37.128906 63.253906 36.828125 62.667969 C 36.527344 62.082031 35.730469 60.679688 35.335938 59.9375 C 34.9375 59.191406 34.003906 57.644531 34.003906 55.824219 C 34.003906 51.382813 34.621094 48.019531 34.621094 46.539063 C 34.621094 46.09375 34.746094 45.878906 35.171875 45.492188 C 35.597656 45.105469 35.820313 44.632813 36.003906 43.578125 C 36.1875 42.523438 36.488281 40.597656 37.105469 39.890625 C 37.898438 38.980469 38.992188 38.441406 39.148438 38.09375 C 39.300781 37.742188 40.523438 35.382813 40.949219 34.957031 C 41.371094 34.53125 41.886719 33.933594 42.3125 33.605469 C 42.738281 33.273438 43.09375 33.097656 43.625 32.714844 C 44.160156 32.328125 45.339844 31.785156 46.132813 31.464844 C 46.925781 31.144531 50.03125 30.875 50.882813 30.875 C 51.734375 30.875 54.210938 30.875 54.972656 30.875 C 55.738281 30.875 57.597656 31.175781 58.921875 31.96875 C 60.25 32.761719 61.136719 33.582031 61.667969 34.058594 C 62.203125 34.53125 63.015625 35.527344 63.324219 35.894531 C 63.632813 36.261719 64.261719 37.046875 64.261719 37.046875 C 64.261719 37.046875 63.371094 36.339844 62.609375 35.703125 C 61.84375 35.0625 60.535156 33.96875 59.394531 33.4375 C 58.253906 32.90625 56.167969 32.347656 54.570313 32.347656 C 52.972656 32.347656 51.453125 32.597656 50.109375 33.175781 C 48.765625 33.757813 46.964844 34.484375 45.195313 35.441406 C 43.421875 36.398438 42.128906 37.105469 41.074219 38.101563 C 40.019531 39.097656 38.5 41.304688 37.988281 42.9375 C 37.472656 44.574219 37.308594 45.367188 37.308594 46.003906 C 37.308594 46.644531 37.308594 47.59375 37.308594 48.144531 C 37.308594 48.695313 37.398438 48.839844 37.398438 49.421875 C 37.398438 50 37.398438 50.464844 37.398438 50.832031 C 37.398438 51.199219 37.503906 51.066406 37.542969 50.871094 C 37.582031 50.679688 37.832031 50.84375 37.832031 50.660156 C 37.832031 50.476563 38.035156 49.84375 38.035156 50.5625 C 38.035156 51.277344 38.164063 56.027344 38.71875 58.753906 C 39.273438 61.476563 40.980469 64.480469 44.007813 66.789063 C 47.03125 69.097656 50.75 70.714844 53.242188 70.714844 C 56.40625 70.714844 62.503906 68.011719 62.503906 68.011719 C 62.503906 68.011719 62.554688 68.289063 62.765625 68.289063 C 62.980469 68.289063 63.683594 68.054688 64.734375 67.707031 C 65.785156 67.359375 66.234375 67.304688 66.46875 66.855469 C 66.703125 66.410156 66.546875 66.386719 66.859375 66.074219 C 67.175781 65.761719 68.761719 64.394531 68.90625 64.429688 C 69.054688 64.460938 68.875 64.808594 68.394531 65.179688 C 67.914063 65.546875 67.253906 65.960938 68.023438 65.960938 C 69.164063 65.960938 71.390625 63.792969 72.890625 62.414063 C 74.390625 61.039063 74.980469 60.492188 75.363281 60.257813 C 75.742188 60.023438 75.84375 59.664063 75.976563 59.292969 C 76.113281 58.925781 76.3125 58.398438 76.121094 58.398438 C 75.933594 58.398438 75.496094 58.421875 75.664063 58.03125 C 75.832031 57.640625 76.460938 56.128906 76.660156 56.128906 C 76.859375 56.128906 77.152344 56.027344 77.285156 55.828125 C 77.421875 55.625 78.28125 55.636719 78.28125 55.132813 C 78.28125 54.628906 78.941406 53.390625 79.34375 52.449219 C 79.746094 51.507813 79.90625 51.152344 79.90625 50.828125 C 79.90625 50.503906 79.90625 48.320313 79.90625 48.320313 L 78.832031 50.925781 C 78.832031 50.925781 79.96875 47.324219 79.96875 45.335938 C 79.96875 44.25 79.636719 41.8125 79.636719 40.703125 C 79.636719 39.597656 79.726563 39.183594 79.726563 38.601563 C 79.726563 38.019531 79.757813 37.707031 79.613281 37.707031 C 79.46875 37.707031 79.355469 37.628906 79.355469 37.324219 C 79.355469 37.023438 79.03125 33.613281 78.941406 32.863281 C 78.851563 32.113281 78.316406 28.878906 77.511719 27.359375 C 77.015625 26.421875 76.605469 25.546875 75.207031 23.535156 C 73.808594 21.519531 72.921875 20.492188 71.335938 19.058594 C 69.746094 17.628906 68.996094 17.011719 66.535156 15.648438 C 64.078125 14.285156 61.996094 13.277344 60.867188 12.816406 C 59.734375 12.359375 57.085938 11.328125 55.617188 11.0625 C 54.152344 10.792969 51.390625 10.492188 49.476563 10.492188 C 47.566406 10.492188 45.988281 10.738281 45.339844 10.960938 C 44.691406 11.183594 44.589844 11.296875 44.433594 11.296875 C 44.144531 11.296875 44.398438 11.597656 44.164063 11.597656 C 43.878906 11.597656 43.394531 11.722656 42.800781 11.921875 C 42.207031 12.125 41.660156 12.425781 41.660156 12.425781 C 41.660156 12.425781 41.480469 12.214844 42.710938 11.832031 C 43.644531 11.546875 44.175781 11.441406 44.175781 11.308594 C 44.175781 11.171875 43.90625 11.195313 43.773438 11.195313 C 43.640625 11.195313 41.996094 11.410156 40.496094 11.589844 C 38.996094 11.765625 37.585938 12.148438 37.585938 12.730469 C 37.585938 13.308594 37.332031 13.714844 35.730469 14.285156 C 34.132813 14.855469 32.867188 15 32.664063 15.1875 C 32.464844 15.378906 32.105469 15.949219 32.105469 15.949219 C 32.105469 15.949219 32.460938 15.96875 33.804688 15.46875 C 35.519531 14.832031 35.730469 14.507813 35.730469 14.730469 C 35.730469 14.953125 33.785156 16.320313 31.804688 16.320313 C 30.832031 16.320313 30.238281 16.128906 29.789063 16.128906 C 29.34375 16.128906 28.875 16.398438 27.238281 17.875 C 25.605469 19.351563 25.125 19.933594 25.125 19.933594 C 25.125 19.933594 25.28125 20.179688 25.574219 20.179688 C 25.863281 20.179688 26.660156 19.472656 26.894531 19.160156 C 27.128906 18.847656 27.589844 18.640625 26.949219 19.328125 C 25.863281 20.492188 26.019531 20.59375 25.832031 20.59375 C 25.640625 20.59375 25.292969 20.59375 24.703125 20.59375 C 24.109375 20.59375 21.714844 20.691406 19.007813 23.476563 C 16.300781 26.261719 13.996094 28.703125 12.710938 30.625 C 11.421875 32.550781 11.355469 32.839844 11.054688 33.164063 C 10.753906 33.488281 10.664063 33.523438 10.664063 33.523438 L 11.824219 33.613281 C 11.824219 33.613281 11.042969 35.527344 10.417969 36.988281 C 9.789063 38.457031 9.296875 38.632813 8.761719 39.609375 C 8.222656 40.582031 7.742188 41.734375 7.609375 43.769531 C 7.476563 45.804688 7.128906 48.578125 6.949219 50.011719 C 6.769531 51.441406 6.34375 53.714844 6.175781 55.167969 C 6.007813 56.621094 5.976563 57.425781 5.976563 58.308594 C 5.976563 59.195313 6.164063 60.613281 7.027344 61.902344 C 7.886719 63.1875 8.066406 63.410156 8.066406 63.679688 C 8.066406 63.949219 7.945313 64.195313 7.945313 64.898438 C 7.945313 65.605469 7.855469 66.507813 7.855469 66.507813 C 7.855469 66.507813 8.261719 66.839844 8.414063 67.449219 C 8.570313 68.074219 9.050781 68.65625 9.050781 68.65625 L 8.367188 68.65625 C 8.367188 68.65625 10.484375 75.222656 10.996094 75.222656 C 11.511719 75.222656 11.746094 72.203125 12.351563 72.203125 C 12.675781 72.203125 12.957031 72.796875 13.269531 73.402344 C 13.582031 74.003906 14.300781 75.582031 14.679688 76.5 C 15.539063 78.589844 15.953125 79.0625 15.707031 79.039063 C 15.460938 79.015625 14.554688 78.691406 14.175781 78.097656 C 13.792969 77.507813 13.738281 77.304688 13.738281 77.988281 C 13.738281 78.667969 13.960938 78.648438 13.960938 78.960938 C 13.960938 79.273438 14.332031 79.46875 14.667969 80.210938 C 15.058594 81.085938 15.664063 81.867188 16 82.328125 C 16.332031 82.785156 16.691406 83.03125 16.5 83.242188 C 16.3125 83.457031 16.199219 83.457031 16.199219 83.601563 C 16.199219 83.746094 15.910156 83.738281 15.921875 83.902344 C 15.929688 84.070313 16.570313 85.191406 17.152344 85.605469 C 17.730469 86.019531 18.257813 86.398438 18.257813 86.398438 C 18.257813 86.398438 17.003906 85.839844 16.859375 85.839844 C 16.714844 85.839844 16.277344 85.773438 16.558594 86.253906 C 16.835938 86.734375 19.445313 90.089844 20.171875 90.984375 C 20.898438 91.878906 21.972656 93.488281 21.972656 93.488281 L 22.542969 92.539063 C 22.542969 92.539063 22.542969 93.523438 22.542969 93.757813 C 22.542969 93.992188 23.4375 95.425781 23.558594 95.636719 C 23.683594 95.851563 23.761719 95.972656 23.90625 96.152344 C 24.050781 96.332031 24.285156 96.53125 24.433594 96.734375 C 24.578125 96.933594 24.855469 97.292969 25.058594 97.550781 C 25.261719 97.808594 25.25 98.03125 25.640625 98.03125 C 26.03125 98.03125 26.109375 97.917969 26.582031 97.917969 C 27.050781 97.917969 27.039063 97.90625 27.152344 98.210938 C 27.261719 98.511719 27.648438 99.203125 28.179688 99.632813 C 28.292969 99.722656 28.527344 100.078125 28.695313 100.203125 C 28.863281 100.324219 29.039063 100.425781 29.152344 100.582031 C 29.265625 100.738281 29.621094 100.996094 29.621094 100.996094 C 29.621094 100.996094 29.847656 101.117188 30.058594 101.242188 C 30.273438 101.363281 30.628906 101.644531 30.886719 101.644531 C 31.144531 101.644531 31.636719 101.597656 31.433594 101.847656 C 31.234375 102.09375 30.453125 102.953125 30.628906 103 C 30.808594 103.042969 33.382813 103.816406 33.382813 104.105469 C 33.382813 104.273438 33.203125 104.183594 33.203125 104.496094 C 33.203125 104.808594 34.199219 105.023438 34.621094 105.234375 C 35.046875 105.449219 37.015625 106.273438 36.75 105.972656 C 36.480469 105.671875 35.929688 104.609375 35.964844 104.53125 C 36 104.449219 37.171875 105.804688 37.488281 105.960938 C 37.800781 106.117188 38 106.542969 38.28125 106.914063 C 38.558594 107.28125 39.074219 108.042969 39.824219 108.5 C 40.574219 108.960938 41.433594 109.632813 45.496094 110.882813 C 46.5 111.195313 47.429688 110.941406 48.414063 111.128906 C 49.402344 111.320313 51.949219 112 51.949219 112 "/>
<path style=" stroke:none;fill-rule:evenodd;fill:rgb(92.498779%,0%,54.899597%);fill-opacity:1;" d="M 62.074219 56.265625 C 62.074219 56.09375 62.164063 56.097656 62.164063 55.902344 C 62.164063 55.707031 62.859375 54.855469 63.519531 54.0625 C 64.175781 53.265625 64.664063 52.585938 64.664063 52.585938 C 64.664063 52.585938 64.359375 53.757813 63.859375 54.371094 C 63.359375 54.980469 62.417969 56.242188 62.472656 56.277344 C 62.53125 56.3125 63.007813 56.097656 63.675781 55.742188 C 64.347656 55.390625 64.492188 55.332031 65.039063 54.550781 C 65.792969 53.480469 66.222656 51.957031 66.222656 51.957031 C 66.222656 51.957031 65.769531 54.324219 65.109375 55.242188 C 64.449219 56.164063 64.496094 55.914063 64.289063 56.3125 C 64.085938 56.710938 63.949219 56.871094 63.996094 56.527344 C 64.042969 56.1875 63.902344 55.9375 63.644531 55.9375 C 63.054688 55.9375 62.394531 56.664063 62.394531 56.472656 C 62.394531 56.140625 62.074219 56.4375 62.074219 56.265625 "/>
<path style=" stroke:none;fill-rule:evenodd;fill:rgb(92.498779%,0%,54.899597%);fill-opacity:1;" d="M 85.757813 50.34375 C 85.640625 50.34375 85.695313 50.515625 85.695313 50.734375 C 85.695313 50.953125 84.949219 53.464844 84.902344 53.632813 C 84.859375 53.804688 84.914063 54.011719 85.136719 53.371094 C 85.355469 52.730469 85.890625 51.113281 85.890625 50.667969 C 85.890625 50.449219 85.878906 50.34375 85.757813 50.34375 "/>
<path style=" stroke:none;fill-rule:evenodd;fill:rgb(92.498779%,0%,54.899597%);fill-opacity:1;" d="M 87.734375 50.589844 C 87.578125 50.589844 87.453125 51.25 87.289063 52.414063 C 87.125 53.582031 87.003906 54.292969 86.78125 55.074219 C 86.558594 55.851563 86.152344 57.214844 85.863281 57.941406 C 85.574219 58.671875 84.0625 61.765625 84.0625 61.765625 C 84.0625 61.765625 84.914063 60.484375 85.582031 59.058594 C 86.246094 57.632813 86.601563 56.511719 86.792969 55.851563 C 86.988281 55.191406 87.328125 53.671875 87.390625 53.132813 C 87.453125 52.589844 87.617188 51.46875 87.71875 51.046875 C 87.816406 50.625 87.894531 50.589844 87.734375 50.589844 "/>
<path style=" stroke:none;fill-rule:evenodd;fill:rgb(92.498779%,0%,54.899597%);fill-opacity:1;" d="M 0.164063 36.433594 C 0.164063 36.433594 0.800781 35.296875 0.972656 34.019531 C 1.144531 32.742188 1.316406 32.363281 1.316406 32.363281 C 1.316406 32.363281 0 33.871094 0 34.339844 C 0 35.082031 0.3125 34.808594 0.3125 35.289063 C 0.3125 36.167969 0.164063 36.433594 0.164063 36.433594 "/>
<path style=" stroke:none;fill-rule:evenodd;fill:rgb(92.498779%,0%,54.899597%);fill-opacity:1;" d="M 2.125 27.160156 C 2.125 27.292969 2.488281 27.171875 2.765625 26.929688 C 3.042969 26.6875 3.1875 26.503906 3.117188 26.445313 C 3.050781 26.386719 3.023438 26.34375 2.902344 26.488281 C 2.78125 26.636719 2.371094 26.941406 2.28125 26.988281 C 2.191406 27.03125 2.125 27.027344 2.125 27.160156 "/>
<path style=" stroke:none;fill-rule:evenodd;fill:rgb(92.498779%,0%,54.899597%);fill-opacity:1;" d="M 3.09375 26.320313 C 3.132813 26.351563 3.425781 26.160156 3.648438 26.023438 C 3.875 25.882813 3.988281 25.589844 4.128906 25.171875 C 4.269531 24.753906 4.671875 24.046875 4.65625 23.824219 C 4.644531 23.601563 4.335938 23.828125 4.25 23.9375 C 4.160156 24.046875 3.917969 24.152344 3.820313 24.296875 C 3.726563 24.445313 3.386719 24.660156 3.386719 24.46875 C 3.386719 24.277344 3.226563 24.164063 3.386719 24.8125 C 3.457031 25.09375 3.296875 25.4375 3.296875 25.722656 C 3.296875 26.15625 3.09375 26.320313 3.09375 26.320313 "/>
<path style=" stroke:none;fill-rule:evenodd;fill:rgb(92.498779%,0%,54.899597%);fill-opacity:1;" d="M 33.878906 61.636719 L 33.464844 63.007813 C 33.464844 63.007813 34.066406 63.726563 34.605469 64.558594 C 35.148438 65.390625 35.5625 66.125 35.730469 66.339844 C 35.898438 66.554688 36.519531 67.140625 36.71875 67.328125 C 36.917969 67.515625 37.21875 67.75 37.21875 67.75 C 37.21875 67.75 36.65625 66.566406 36.386719 66.105469 C 36.117188 65.644531 35.757813 65.144531 35.21875 64.320313 C 34.285156 62.90625 33.878906 61.636719 33.878906 61.636719 "/>
<path style=" stroke:none;fill-rule:evenodd;fill:rgb(92.498779%,0%,54.899597%);fill-opacity:1;" d="M 36.117188 63.714844 C 36.117188 63.714844 37.015625 65.046875 37.34375 65.554688 C 37.667969 66.058594 38.765625 67.753906 39.429688 68.59375 C 40.09375 69.429688 41.050781 70.496094 41.882813 71.117188 C 42.714844 71.742188 45.214844 73.25 45.96875 73.613281 C 46.71875 73.980469 47.890625 74.4375 49.089844 74.871094 C 50.285156 75.308594 51.019531 75.570313 51.550781 75.683594 C 52.078125 75.792969 53.597656 75.917969 53.9375 75.917969 C 57.113281 75.917969 60.601563 74.382813 60.601563 74.382813 C 60.601563 74.382813 58.179688 74.464844 57.042969 74.464844 C 55.90625 74.464844 53.128906 74.332031 51.046875 73.523438 C 48.972656 72.710938 48.632813 72.472656 48.265625 72.234375 C 47.902344 71.996094 46.480469 71.019531 46.480469 70.726563 C 46.480469 70.4375 46.613281 70.4375 46.613281 70.4375 C 46.613281 70.4375 46.339844 70.351563 46.339844 70.738281 C 46.339844 71 46.421875 71.082031 46.421875 71.082031 C 46.421875 71.082031 46.167969 71.148438 44.546875 70.230469 C 41.246094 68.371094 39.441406 65.78125 39.441406 65.78125 C 39.441406 65.78125 39.660156 66.640625 40.835938 67.949219 C 42.011719 69.261719 43.023438 70 43.023438 70 C 43.023438 70 41.484375 69.347656 41.039063 68.980469 C 40.589844 68.617188 39.523438 67.410156 39.03125 66.742188 C 38.535156 66.070313 38.074219 65.488281 37.9375 65.261719 C 37.796875 65.035156 37.644531 64.851563 37.515625 64.6875 C 36.894531 63.878906 36.117188 63.714844 36.117188 63.714844 "/>
<path style=" stroke:none;fill-rule:evenodd;fill:rgb(92.498779%,0%,54.899597%);fill-opacity:1;" d="M 47.152344 1.488281 C 47.152344 1.488281 47.8125 1.441406 48.671875 1.441406 C 49.53125 1.441406 50.636719 1.515625 50.039063 1.675781 C 49.445313 1.835938 49.015625 2.023438 49.015625 2.023438 C 49.015625 2.023438 48.523438 2.160156 48.523438 2.011719 C 48.523438 1.863281 49.027344 2.183594 49.027344 1.863281 C 49.027344 1.636719 47.152344 1.488281 47.152344 1.488281 "/>
<path style=" stroke:none;fill-rule:evenodd;fill:rgb(92.498779%,0%,54.899597%);fill-opacity:1;" d="M 46.679688 0.417969 C 46.679688 0.503906 47.238281 0.394531 47.238281 0.492188 C 47.238281 0.59375 47.359375 0.542969 47.65625 0.46875 C 47.957031 0.394531 49.382813 0.132813 48.878906 0.144531 C 48.371094 0.15625 47.914063 0.28125 47.546875 0.292969 C 47.175781 0.304688 46.679688 0.332031 46.679688 0.417969 "/>
<path style=" stroke:none;fill-rule:evenodd;fill:rgb(92.498779%,0%,54.899597%);fill-opacity:1;" d="M 49.582031 0.121094 C 49.753906 0.167969 50.730469 0.230469 50.757813 0.167969 C 50.78125 0.105469 51.605469 0.09375 51.113281 0.0195313 C 50.621094 -0.0546875 50.777344 0.09375 50.273438 0.0820313 C 49.765625 0.0703125 49.40625 0.0703125 49.582031 0.121094 "/>
</g>
</svg>