<?xml version="1.0" encoding="UTF-8" standalone="no"?>
<svg
   width="41.700043"
   height="10.932"
   version="1.1"
   id="svg1"
   viewBox="0 0 41.700043 10.932"
   inkscape:version="1.4 (e7c3feb100, 2024-10-09)"
   sodipodi:docname="Express.svg"
   xmlns:inkscape="http://www.inkscape.org/namespaces/inkscape"
   xmlns:sodipodi="http://sodipodi.sourceforge.net/DTD/sodipodi-0.dtd"
   xmlns="http://www.w3.org/2000/svg"
   xmlns:svg="http://www.w3.org/2000/svg">
  <defs
     id="defs1" />
  <sodipodi:namedview
     id="namedview1"
     pagecolor="#ffffff"
     bordercolor="#666666"
     borderopacity="1.0"
     inkscape:showpageshadow="2"
     inkscape:pageopacity="0.0"
     inkscape:pagecheckerboard="0"
     inkscape:deskcolor="#d1d1d1"
     inkscape:zoom="6.27"
     inkscape:cx="38.197767"
     inkscape:cy="27.671451"
     inkscape:window-width="1707"
     inkscape:window-height="852"
     inkscape:window-x="0"
     inkscape:window-y="0"
     inkscape:window-maximized="1"
     inkscape:current-layer="svg1" />
  <path
     d="M 7.716,0 7.524,0.972 h -4.8 l -0.576,2.7 H 6.612 L 6.432,4.62 H 1.956 L 1.32,7.584 H 6.18 L 5.964,8.5440003 H 0 L 1.812,0 Z m 5.472001,2.352 -2.652,2.988 1.572,3.2040003 h -1.176 L 9.7920007,6.024 l -2.088,2.5200003 h -1.248 l 2.904,-3.2760003 -1.368,-2.916 h 1.164 l 0.9600003,2.232 1.848,-2.232 z m 2.028011,0 -0.192,0.876 q 0.804,-1.032 2.1,-1.032 1.092,0 1.728,0.708 0.636,0.708 0.636,1.932 0,1.608 -0.888,2.748 -0.888,1.1280003 -2.424,1.1280003 -1.608,0 -1.992,-1.2120003 l -0.72,3.432 h -1.02 l 1.824,-8.58 z m 1.596,0.672 q -0.756,0 -1.308,0.552 -0.54,0.54 -0.768,1.26 -0.228,0.708 -0.228,1.428 0,0.744 0.444,1.188 0.456,0.444 1.212,0.444 0.96,0 1.62,-0.888 0.672,-0.9 0.672,-2.208 0,-0.852 -0.432,-1.308 -0.42,-0.468 -1.212,-0.468 z m 7.920005,-0.804 -0.24,1.08 q -0.168,-0.024 -0.36,-0.024 -1.068,0 -1.608,0.696 -0.528,0.684 -0.78,1.824 l -0.6,2.7480003 h -1.032 l 1.32,-6.1920003 h 0.96 l -0.3,1.32 q 0.84,-1.476 2.256,-1.476 0.216,0 0.384,0.024 z m 5.052008,4.38 q -0.24,1.02 -1.02,1.5960003 -0.768,0.564 -1.848,0.564 -1.212,0 -1.896,-0.72 Q 24.348025,7.32 24.348025,6.108 q 0,-1.668 0.96,-2.796 0.96,-1.14 2.376,-1.14 1.14,0 1.788,0.684 0.66,0.684 0.66,1.884 0,0.444 -0.084,0.996 h -4.644 q -0.036,0.192 -0.036,0.432 0,0.816 0.432,1.284 0.432,0.456 1.188,0.456 1.308,0 1.752,-1.308 z m -4.248,-1.68 h 3.6 q 0.012,-0.108 0.012,-0.24 0,-0.804 -0.396,-1.224 -0.384,-0.432 -1.116,-0.432 -0.756,0 -1.32,0.504 -0.552,0.492 -0.78,1.392 z M 35.928033,4.164 h -1.008 q -0.012,-1.128 -1.368,-1.128 -0.576,0 -0.924,0.228 -0.336,0.228 -0.336,0.612 0,0.096 0.012,0.18 0.024,0.072 0.072,0.156 0.06,0.072 0.108,0.132 0.06,0.048 0.168,0.12 0.12,0.072 0.192,0.12 0.084,0.036 0.252,0.108 0.168,0.072 0.264,0.12 0.108,0.036 0.324,0.12 0.228,0.084 0.36,0.144 0.396,0.156 0.612,0.276 0.216,0.108 0.456,0.3 0.252,0.192 0.36,0.48 0.108,0.276 0.108,0.66 0,0.876 -0.696,1.4160003 -0.696,0.528 -1.836,0.528 -1.2,0 -1.848,-0.54 Q 30.552033,7.656 30.552033,6.648 v -0.06 h 0.996 v 0.024 q 0,0.624 0.408,0.96 0.42,0.336 1.188,0.336 0.636,0 1.02,-0.276 0.396,-0.276 0.396,-0.732 0,-0.276 -0.204,-0.492 -0.204,-0.228 -0.384,-0.312 -0.18,-0.084 -0.516,-0.216 -0.048,-0.024 -0.288,-0.108 -0.24,-0.096 -0.312,-0.12 -0.06,-0.036 -0.276,-0.12 -0.216,-0.096 -0.3,-0.144 -0.072,-0.06 -0.252,-0.168 -0.168,-0.108 -0.24,-0.192 -0.072,-0.084 -0.192,-0.216 -0.108,-0.132 -0.156,-0.252 -0.048,-0.132 -0.096,-0.3 -0.036,-0.168 -0.036,-0.348 0,-0.816 0.612,-1.272 0.612,-0.468 1.68,-0.468 2.328,0 2.328,1.908 z m 5.772011,0 h -1.008 q -0.012,-1.128 -1.368,-1.128 -0.576,0 -0.924,0.228 -0.336,0.228 -0.336,0.612 0,0.096 0.012,0.18 0.024,0.072 0.072,0.156 0.06,0.072 0.108,0.132 0.06,0.048 0.168,0.12 0.12,0.072 0.192,0.12 0.084,0.036 0.252,0.108 0.168,0.072 0.264,0.12 0.108,0.036 0.324,0.12 0.228,0.084 0.36,0.144 0.396,0.156 0.612,0.276 0.216,0.108 0.456,0.3 0.252,0.192 0.36,0.48 0.108,0.276 0.108,0.66 0,0.876 -0.696,1.4160003 -0.696,0.528 -1.836,0.528 -1.2,0 -1.848,-0.54 Q 36.324044,7.656 36.324044,6.648 v -0.06 h 0.996 v 0.024 q 0,0.624 0.408,0.96 0.42,0.336 1.188,0.336 0.636,0 1.02,-0.276 0.396,-0.276 0.396,-0.732 0,-0.276 -0.204,-0.492 -0.204,-0.228 -0.384,-0.312 -0.18,-0.084 -0.516,-0.216 -0.048,-0.024 -0.288,-0.108 -0.24,-0.096 -0.312,-0.12 -0.06,-0.036 -0.276,-0.12 -0.216,-0.096 -0.3,-0.144 -0.072,-0.06 -0.252,-0.168 -0.168,-0.108 -0.24,-0.192 -0.072,-0.084 -0.192,-0.216 -0.108,-0.132 -0.156,-0.252 -0.048,-0.132 -0.096,-0.3 -0.036,-0.168 -0.036,-0.348 0,-0.816 0.612,-1.272 0.612,-0.468 1.68,-0.468 2.328,0 2.328,1.908 z"
     id="text1"
     style="font-style:italic;font-size:12px;line-height:1.25;font-family:'Helvetica Neue';-inkscape-font-specification:'Helvetica Neue Italic';text-align:center;letter-spacing:0px;word-spacing:0px;text-anchor:middle"
     aria-label="Express" />
</svg>
