<?xml version="1.0" encoding="UTF-8" standalone="no"?>
<svg
   width="560pt"
   height="160pt"
   viewBox="0 0 560 160"
   version="1.1"
   id="svg31"
   sodipodi:docname="Fedora Linux.svg"
   inkscape:version="1.3.2 (091e20ef0f, 2023-11-25, custom)"
   xmlns:inkscape="http://www.inkscape.org/namespaces/inkscape"
   xmlns:sodipodi="http://sodipodi.sourceforge.net/DTD/sodipodi-0.dtd"
   xmlns:xlink="http://www.w3.org/1999/xlink"
   xmlns="http://www.w3.org/2000/svg"
   xmlns:svg="http://www.w3.org/2000/svg">
  <sodipodi:namedview
     id="namedview31"
     pagecolor="#ffffff"
     bordercolor="#666666"
     borderopacity="1.0"
     inkscape:showpageshadow="2"
     inkscape:pageopacity="0.0"
     inkscape:pagecheckerboard="0"
     inkscape:deskcolor="#d1d1d1"
     inkscape:document-units="pt"
     inkscape:zoom="1.1410714"
     inkscape:cx="373.33333"
     inkscape:cy="106.47887"
     inkscape:window-width="1707"
     inkscape:window-height="844"
     inkscape:window-x="0"
     inkscape:window-y="0"
     inkscape:window-maximized="1"
     inkscape:current-layer="svg31" />
  <defs
     id="defs24">
    <filter
       id="alpha"
       filterUnits="objectBoundingBox"
       x="0"
       y="0"
       width="1"
       height="1">
      <feColorMatrix
         type="matrix"
         in="SourceGraphic"
         values="0 0 0 0 1 0 0 0 0 1 0 0 0 0 1 0 0 0 1 0"
         id="feColorMatrix1" />
    </filter>
    <clipPath
       id="clip1">
      <rect
         width="560"
         height="160"
         id="rect1" />
    </clipPath>
    <g
       id="surface11"
       clip-path="url(#clip1)">
      <rect
         x="0"
         y="0"
         width="560"
         height="160"
         style="fill:rgb(100%,100%,100%);fill-opacity:0.8;stroke:none;"
         id="rect2" />
    </g>
    <mask
       id="mask0">
      <g
         filter="url(#alpha)"
         id="g2">
        <use
           xlink:href="#surface11"
           id="use2" />
      </g>
    </mask>
    <clipPath
       id="clip3">
      <rect
         width="560"
         height="160"
         id="rect3" />
    </clipPath>
    <g
       id="surface8"
       clip-path="url(#clip3)">
      <path
         style=" stroke:none;fill-rule:nonzero;fill:rgb(0%,68.234253%,83.920288%);fill-opacity:1;"
         d="M 102.199219 62.898438 C 94.078125 62.84375 85.394531 65.53125 78.863281 72.605469 C 65.851563 86.707031 67.015625 106.097656 78.761719 120.675781 C 83.136719 126.101563 91.726563 129.601563 98.144531 130.304688 C 106.5625 131.230469 113.671875 129.773438 121.757813 125.453125 C 130.160156 120.960938 133.574219 115.332031 130.167969 111.554688 C 128.128906 109.292969 124.484375 109.707031 120.820313 112.621094 C 104.714844 124.339844 85.476563 118.796875 82.84375 101.1875 L 107.644531 100.933594 C 136.566406 100.65625 135.261719 101.078125 134.347656 92.675781 C 132.351563 74.363281 117.695313 63 102.199219 62.898438 Z M 101.84375 74.714844 C 111.394531 74.707031 120.640625 80.75 122.167969 90.339844 L 83.679688 91.355469 C 84.929688 81.789063 91.984375 74.664063 101.84375 74.714844 Z M 101.84375 74.714844 "
         id="path3" />
    </g>
    <clipPath
       id="clip2">
      <rect
         width="560"
         height="160"
         id="rect4" />
    </clipPath>
    <g
       id="surface13"
       clip-path="url(#clip2)">
      <use
         xlink:href="#surface8"
         id="use4" />
    </g>
    <clipPath
       id="clip4">
      <rect
         width="560"
         height="160"
         id="rect5" />
    </clipPath>
    <g
       id="surface20"
       clip-path="url(#clip4)">
      <rect
         x="0"
         y="0"
         width="560"
         height="160"
         style="fill:rgb(100%,100%,100%);fill-opacity:0.8;stroke:none;"
         id="rect6" />
    </g>
    <mask
       id="mask1">
      <g
         filter="url(#alpha)"
         id="g6">
        <use
           xlink:href="#surface20"
           id="use6" />
      </g>
    </mask>
    <clipPath
       id="clip6">
      <rect
         width="560"
         height="160"
         id="rect7" />
    </clipPath>
    <g
       id="surface17"
       clip-path="url(#clip6)">
      <path
         style=" stroke:none;fill-rule:nonzero;fill:rgb(0%,68.234253%,83.920288%);fill-opacity:1;"
         d="M 207.859375 29.25 C 206.105469 29.175781 203.453125 29.753906 202.058594 31.070313 C 200.203125 32.828125 200.195313 32.910156 200.195313 53.890625 L 200.195313 74.960938 L 197.390625 71.109375 C 192.929688 66.425781 187.902344 64.074219 181.261719 63.539063 C 164.40625 62.175781 150.476563 73.695313 147.769531 91.21875 C 144.792969 110.484375 156.6875 128.164063 174.117188 130.421875 C 184.144531 132.007813 192.339844 128.238281 199.328125 121.484375 C 199.328125 125.980469 200.65625 129.9375 207.007813 129.9375 C 213.183594 129.9375 214.324219 123.929688 214.351563 119.75 L 214.578125 81.445313 C 214.703125 56.554688 214.597656 35.351563 214.351563 34.339844 C 213.59375 31.253906 210.777344 29.371094 207.859375 29.25 Z M 180.609375 75.644531 C 186.511719 75.566406 192.582031 78.011719 195.753906 82.203125 C 204.601563 93.875 200.804688 112.136719 188.457031 117.328125 C 185.109375 118.738281 176.460938 118.726563 173.210938 117.304688 C 162.632813 112.667969 157.980469 97.960938 163.496094 86.609375 C 166.722656 79.789063 173.230469 75.941406 180.609375 75.644531 Z M 180.609375 75.644531 "
         id="path7" />
    </g>
    <clipPath
       id="clip5">
      <rect
         width="560"
         height="160"
         id="rect8" />
    </clipPath>
    <g
       id="surface22"
       clip-path="url(#clip5)">
      <use
         xlink:href="#surface17"
         id="use8" />
    </g>
    <clipPath
       id="clip7">
      <rect
         width="560"
         height="160"
         id="rect9" />
    </clipPath>
    <g
       id="surface29"
       clip-path="url(#clip7)">
      <rect
         x="0"
         y="0"
         width="560"
         height="160"
         style="fill:rgb(100%,100%,100%);fill-opacity:0.8;stroke:none;"
         id="rect10" />
    </g>
    <mask
       id="mask2">
      <g
         filter="url(#alpha)"
         id="g10">
        <use
           xlink:href="#surface29"
           id="use10" />
      </g>
    </mask>
    <clipPath
       id="clip9">
      <rect
         width="560"
         height="160"
         id="rect11" />
    </clipPath>
    <g
       id="surface26"
       clip-path="url(#clip9)">
      <path
         style=" stroke:none;fill-rule:nonzero;fill:rgb(0%,68.234253%,83.920288%);fill-opacity:1;"
         d="M 260.246094 63.675781 C 239.554688 63.675781 228.433594 79.382813 228.433594 96.015625 C 228.433594 112.824219 238.046875 130.699219 260.488281 130.699219 C 282.917969 130.699219 291.886719 112.5 291.886719 95.695313 C 291.886719 79.066406 280.933594 63.675781 260.246094 63.675781 Z M 259.976563 75.5625 C 268.410156 75.378906 276.414063 80.78125 279.101563 90.027344 C 282.570313 103.96875 274.972656 117.867188 260.28125 118.441406 C 246.703125 118.417969 238.042969 106.449219 241.03125 91.847656 C 242.949219 82.226563 250.433594 76.355469 259.976563 75.5625 Z M 259.976563 75.5625 "
         id="path11" />
    </g>
    <clipPath
       id="clip8">
      <rect
         width="560"
         height="160"
         id="rect12" />
    </clipPath>
    <g
       id="surface31"
       clip-path="url(#clip8)">
      <use
         xlink:href="#surface26"
         id="use12" />
    </g>
    <clipPath
       id="clip10">
      <rect
         width="560"
         height="160"
         id="rect13" />
    </clipPath>
    <g
       id="surface38"
       clip-path="url(#clip10)">
      <rect
         x="0"
         y="0"
         width="560"
         height="160"
         style="fill:rgb(100%,100%,100%);fill-opacity:0.8;stroke:none;"
         id="rect14" />
    </g>
    <mask
       id="mask3">
      <g
         filter="url(#alpha)"
         id="g14">
        <use
           xlink:href="#surface38"
           id="use14" />
      </g>
    </mask>
    <clipPath
       id="clip12">
      <rect
         width="560"
         height="160"
         id="rect15" />
    </clipPath>
    <g
       id="surface35"
       clip-path="url(#clip12)">
      <path
         style=" stroke:none;fill-rule:nonzero;fill:rgb(0%,68.234253%,83.920288%);fill-opacity:1;"
         d="M 385.089844 63.242188 C 368.863281 63.539063 354.972656 75.386719 352.273438 91.773438 C 349.304688 109.816406 362.589844 128.28125 380.117188 130.496094 C 388.414063 131.546875 397.082031 128.984375 402.28125 123.917969 C 403.71875 122.515625 405.234375 121.441406 405.234375 121.707031 C 405.234375 127.382813 407.949219 130.054688 412.445313 130.054688 C 417.160156 130.054688 419.402344 127.433594 419.402344 122.746094 L 419.296875 107.425781 C 419.179688 90.523438 418.835938 88.308594 417.25 84.355469 C 412.214844 71.785156 402.078125 64.398438 388.371094 63.34375 C 387.273438 63.257813 386.171875 63.222656 385.089844 63.242188 Z M 384.8125 75.488281 C 390.773438 75.230469 396.851563 77.527344 400.71875 82.246094 C 409.710938 93.226563 405.804688 111.949219 393.445313 117.132813 C 389.949219 118.597656 382.238281 118.691406 378.453125 117.3125 C 364.859375 112.347656 361.28125 91.4375 372.191406 80.773438 C 375.609375 77.433594 380.179688 75.6875 384.8125 75.488281 Z M 384.8125 75.488281 "
         id="path15" />
    </g>
    <clipPath
       id="clip11">
      <rect
         width="560"
         height="160"
         id="rect16" />
    </clipPath>
    <g
       id="surface40"
       clip-path="url(#clip11)">
      <use
         xlink:href="#surface35"
         id="use16" />
    </g>
    <clipPath
       id="clip13">
      <rect
         width="560"
         height="160"
         id="rect17" />
    </clipPath>
    <g
       id="surface47"
       clip-path="url(#clip13)">
      <rect
         x="0"
         y="0"
         width="560"
         height="160"
         style="fill:rgb(100%,100%,100%);fill-opacity:0.8;stroke:none;"
         id="rect18" />
    </g>
    <mask
       id="mask4">
      <g
         filter="url(#alpha)"
         id="g18">
        <use
           xlink:href="#surface47"
           id="use18" />
      </g>
    </mask>
    <clipPath
       id="clip15">
      <rect
         width="560"
         height="160"
         id="rect19" />
    </clipPath>
    <g
       id="surface44"
       clip-path="url(#clip15)">
      <path
         style=" stroke:none;fill-rule:nonzero;fill:rgb(0%,68.234253%,83.920288%);fill-opacity:1;"
         d="M 36.804688 129.617188 C 32.484375 127.878906 32.351563 127.023438 32.351563 101.105469 L 32.351563 77.023438 L 27.0625 77.023438 C 20.511719 77.023438 17.390625 75.109375 17.410156 71.101563 C 17.433594 66.472656 19.925781 64.894531 27.214844 64.894531 L 32.15625 64.894531 L 32.496094 57.332031 C 32.785156 50.816406 33.207031 49.027344 35.535156 44.425781 C 40.253906 35.097656 48.328125 29.945313 59.003906 29.445313 C 64.734375 29.179688 65.519531 29.332031 67.6875 31.148438 C 69.5 32.667969 70.070313 33.851563 70.070313 36.089844 C 70.070313 40.097656 68.261719 41.597656 62.949219 42.003906 C 56.320313 42.507813 55.15625 42.859375 52.238281 45.25 C 48.351563 48.429688 46.515625 52.96875 46.496094 59.433594 L 46.476563 64.894531 L 51.824219 64.894531 C 57.832031 64.894531 61.351563 66.140625 61.351563 70.355469 C 61.351563 74.746094 58.796875 77.023438 51.839844 77.023438 L 46.476563 77.023438 L 46.476563 101.242188 C 46.476563 125.210938 46.457031 125.476563 44.605469 127.496094 C 42.46875 129.824219 39.394531 130.660156 36.804688 129.617188 Z M 36.804688 129.617188 "
         id="path19" />
    </g>
    <clipPath
       id="clip14">
      <rect
         width="560"
         height="160"
         id="rect20" />
    </clipPath>
    <g
       id="surface49"
       clip-path="url(#clip14)">
      <use
         xlink:href="#surface44"
         id="use20" />
    </g>
    <clipPath
       id="clip16">
      <rect
         width="560"
         height="160"
         id="rect21" />
    </clipPath>
    <g
       id="surface56"
       clip-path="url(#clip16)">
      <rect
         x="0"
         y="0"
         width="560"
         height="160"
         style="fill:rgb(100%,100%,100%);fill-opacity:0.8;stroke:none;"
         id="rect22" />
    </g>
    <mask
       id="mask5">
      <g
         filter="url(#alpha)"
         id="g22">
        <use
           xlink:href="#surface56"
           id="use22" />
      </g>
    </mask>
    <clipPath
       id="clip18">
      <rect
         width="560"
         height="160"
         id="rect23" />
    </clipPath>
    <g
       id="surface53"
       clip-path="url(#clip18)">
      <path
         style=" stroke:none;fill-rule:nonzero;fill:rgb(0%,68.234253%,83.920288%);fill-opacity:1;"
         d="M 312.652344 130.027344 C 308.910156 130.027344 306.015625 127.71875 306.015625 124.289063 L 306.015625 70.859375 C 306.015625 67.03125 307.472656 63.332031 312.695313 63.175781 C 317.917969 63.019531 319.894531 68.707031 319.894531 71.015625 C 319.894531 73.289063 320.808594 73.117188 323.464844 70.351563 C 327.078125 66.582031 333.863281 63.324219 339.917969 63.101563 C 343.113281 62.980469 346.003906 63.398438 347.273438 64.558594 C 348.628906 65.796875 349.210938 67.335938 349.285156 69.101563 C 349.5 74.375 344.820313 75.984375 338.40625 76.082031 C 330.414063 76.203125 321.890625 84.378906 320.824219 88.9375 C 320.382813 90.84375 319.835938 98.433594 319.894531 108.101563 L 319.984375 123.984375 C 319.984375 128.253906 316.605469 130.027344 312.652344 130.027344 Z M 312.652344 130.027344 "
         id="path23" />
    </g>
    <clipPath
       id="clip17">
      <rect
         width="560"
         height="160"
         id="rect24" />
    </clipPath>
    <g
       id="surface50"
       clip-path="url(#clip17)">
      <use
         xlink:href="#surface53"
         id="use24" />
    </g>
  </defs>
  <g
     id="g32"
     transform="translate(-423.67594)">
    <path
       style="fill:#00457a;fill-opacity:1;fill-rule:nonzero;stroke:none"
       d="m 491.83984,29.242188 c -28.01562,0 -50.7539,22.738281 -50.7539,50.753906 0,0.535156 0.0195,1.0625 0.0351,1.59375 l -0.0351,44.320316 c 0,2.68359 2.16406,4.84765 4.84765,4.84765 l 44.60157,-0.0234 c 0.0156,0 0.0312,0 0.043,0 0.42188,0.0117 0.83985,0.0117 1.26172,0.0117 28.01172,0 50.75,-22.73828 50.75,-50.749996 0,-28.015625 -22.73828,-50.753906 -50.75,-50.753906 z m 0,0"
       id="path24" />
    <path
       style="fill:#00aed4;fill-opacity:1;fill-rule:nonzero;stroke:none"
       d="m 462.76562,108.86719 c -2.19531,-2.16406 -3.49218,-5.17188 -3.49218,-8.49219 0,-6.578125 5.33984,-11.917969 11.91797,-11.917969 0.0391,0 0.0781,0 0.11718,0 l 4.75391,0.04687 c -3.07813,-0.207031 -5.36719,-2.636718 -5.36719,-5.804687 0,-3.167969 2.54297,-5.507813 5.50781,-5.710938 l -6.42187,0.277344 c -19.05469,0.816406 -28.41016,22.89843 -15.66406,38.80859 -0.51953,-0.86328 -0.85938,-1.75 -0.9336,-2.80468 -0.21484,-3.14453 2.66797,-5.91015 5.35938,-6.08594 1.58594,-0.10546 3.14062,0.60157 4.22265,1.6836 z m 51.83985,-52.824221 c 2.41015,2.183594 3.96875,5.363281 3.96875,8.867187 0,6.578125 -5.33985,11.917969 -11.91797,11.917969 l -5.00781,-0.01172 c 3.08984,0.03906 5.63672,2.578125 5.63672,5.683594 0,3.136719 -2.53516,5.671875 -5.69532,5.6875 1.71875,0.02734 3.96094,-0.08594 5.67969,-0.05469 12.9375,0 22.91016,-10.238282 22.91016,-23.175782 0,-6.144531 -2.3711,-11.734375 -6.2461,-15.917968 0.60547,0.910156 0.95703,2.011718 0.95703,3.195312 0,3.183594 -2.58984,5.765625 -5.78906,5.765625 -1.60937,0 -3.47656,-0.929687 -4.49609,-1.957031 z m 0,0"
       id="path25" />
    <path
       style="fill:#ffffff;fill-opacity:1;fill-rule:nonzero;stroke:none"
       d="m 476.41797,76.988281 7.01562,-0.0078 v -11.8125 c 0,-0.05469 0,-0.109375 0,-0.164063 0,-12.9375 10.50391,-23.441406 23.44141,-23.441406 6.36719,0 12.14062,2.542969 16.33594,6.644531 1.02343,1.023438 1.67187,2.46875 1.67187,4.066407 0,3.1875 -2.58203,5.769531 -5.76953,5.769531 -1.60156,0 -3.05078,-0.652344 -4.06641,-1.679688 -2.11328,-2.046875 -5.03515,-3.324218 -8.2539,-3.324218 -6.57813,0 -11.91797,5.339843 -11.91797,11.917968 0,0.195313 0,0.378907 0.0117,0.570313 0,0.01172 0,0.02344 0,0.03516 l -0.0117,10.171875 c 0,0.628906 0.51172,1.140625 1.14062,1.140625 l 5.65235,-0.0078 c 3.11328,-0.0078 5.69531,2.542968 5.69531,5.675781 0,3.136719 -2.52734,5.679687 -5.67578,5.695312 l -6.83594,0.113282 c 0,4.019531 -0.0234,8.039062 0.0469,12.058599 0,0.43359 -0.0234,0.85547 -0.0469,1.28125 -0.55859,12.28125 -11.22656,21.99609 -23.39453,22.16015 -6.21875,0.0469 -12.11328,-2.58984 -16.5625,-6.85156 -1.08203,-1.06641 -1.73047,-2.50391 -1.73047,-4.09375 0,-3.15625 2.5586,-5.71484 5.71094,-5.71484 1.58203,0 3.01562,0.64453 4.09375,1.72656 2.19141,2.13281 5.125,3.42187 8.35937,3.42187 6.5586,0 11.88672,-5.30859 11.91797,-11.85937 0,-0.0195 0,-0.0391 0,-0.0586 V 89.644531 c 0,-0.628906 -0.5,-1.140625 -1.1289,-1.140625 -0.63282,0 -2.73438,0.01563 -5.83594,0 -3.10547,-0.01172 -5.61719,-2.585937 -5.61719,-5.753906 0,-3.167969 2.65235,-5.75 5.75391,-5.761719 z m 0,0"
       id="path26" />
  </g>
  <g
     id="g31"
     transform="translate(117.50394)">
    <use
       xlink:href="#surface13"
       mask="url(#mask0)"
       id="use26" />
    <use
       xlink:href="#surface22"
       mask="url(#mask1)"
       id="use27" />
    <use
       xlink:href="#surface31"
       mask="url(#mask2)"
       id="use28" />
    <use
       xlink:href="#surface40"
       mask="url(#mask3)"
       id="use29" />
    <use
       xlink:href="#surface49"
       mask="url(#mask4)"
       id="use30" />
    <use
       xlink:href="#surface50"
       mask="url(#mask5)"
       id="use31" />
  </g>
</svg>
