<?xml version="1.0" encoding="UTF-8" standalone="no"?>
<svg
   clip-rule="evenodd"
   fill-rule="evenodd"
   stroke-linejoin="round"
   stroke-miterlimit="2"
   viewBox="0 0 430.20636 154.53174"
   version="1.1"
   id="svg23"
   sodipodi:docname="InkScape.svg"
   width="430.20636"
   height="154.53174"
   inkscape:version="1.3.2 (091e20ef0f, 2023-11-25, custom)"
   xmlns:inkscape="http://www.inkscape.org/namespaces/inkscape"
   xmlns:sodipodi="http://sodipodi.sourceforge.net/DTD/sodipodi-0.dtd"
   xmlns="http://www.w3.org/2000/svg"
   xmlns:svg="http://www.w3.org/2000/svg">
  <defs
     id="defs23" />
  <sodipodi:namedview
     id="namedview23"
     pagecolor="#ffffff"
     bordercolor="#666666"
     borderopacity="1.0"
     inkscape:showpageshadow="2"
     inkscape:pageopacity="0.0"
     inkscape:pagecheckerboard="0"
     inkscape:deskcolor="#d1d1d1"
     inkscape:zoom="1.5214286"
     inkscape:cx="280"
     inkscape:cy="200.14085"
     inkscape:window-width="1707"
     inkscape:window-height="844"
     inkscape:window-x="0"
     inkscape:window-y="0"
     inkscape:window-maximized="1"
     inkscape:current-layer="svg23" />
  <g
     id="g23"
     transform="translate(22.478358,-206.40948)">
    <path
       d="m 190.313,306.459 c -0.865,0 -1.297,-0.608 -1.297,-1.824 0,-1.215 0.631,-2.571 1.893,-4.067 2.104,-2.525 5.026,-3.986 8.767,-4.383 l 1.928,-0.105 c 4.255,0 7.34,1.694 9.257,5.084 1.146,2.08 1.718,4.477 1.718,7.188 0,1.122 -0.093,2.303 -0.28,3.542 -0.678,4.161 -2.291,7.691 -4.839,10.59 -2.805,3.202 -6.078,4.803 -9.818,4.803 -3.717,0 -6.078,-1.04 -7.083,-3.12 -0.304,-0.655 -0.456,-1.345 -0.456,-2.069 0,-0.748 0.199,-1.531 0.596,-2.349 0.771,-1.497 1.823,-2.245 3.156,-2.245 0.117,0 0.187,0.07 0.21,0.211 0.047,0.117 0.035,0.245 -0.037,0.385 -0.047,0.141 -0.129,0.211 -0.245,0.211 -0.795,0 -1.485,0.514 -2.069,1.542 -0.374,0.725 -0.561,1.391 -0.561,1.999 0,0.608 0.117,1.169 0.351,1.683 0.748,1.59 2.536,2.385 5.365,2.385 3.202,0 6.1,-1.637 8.695,-4.909 2.338,-2.946 3.846,-6.406 4.524,-10.379 0.234,-1.286 0.35,-2.502 0.35,-3.647 0,-2.548 -0.572,-4.699 -1.718,-6.452 -1.519,-2.361 -3.903,-3.541 -7.153,-3.541 -4.067,0 -7.118,1.367 -9.152,4.102 -1.028,1.403 -1.543,2.712 -1.543,3.927 0,0.491 0.106,0.737 0.316,0.737 -0.14,0.467 -0.432,0.701 -0.876,0.701 z m 5.05,13.29 c 0,-3.554 0.315,-7.002 0.946,-10.345 0.631,-3.366 1.403,-6.019 2.315,-7.96 0.935,-1.963 1.835,-2.945 2.699,-2.945 0.374,0 0.562,0.187 0.562,0.561 -1.052,2.174 -1.976,5.073 -2.771,8.696 -1.472,6.616 -2.209,11.396 -2.209,14.342 0,0.304 -0.163,0.456 -0.49,0.456 -0.702,0 -1.052,-0.936 -1.052,-2.805 z"
       id="path1"
       style="fill-rule:nonzero" />
    <path
       d="m 226.202,313.156 c -0.888,0 -1.332,-0.97 -1.332,-2.91 0,-1.099 0.211,-2.127 0.631,-3.086 -1.59,1.379 -3.366,3.951 -5.33,7.715 -1.963,3.74 -2.945,6.182 -2.945,7.328 0,0.281 -0.187,0.421 -0.561,0.421 -0.678,0 -1.017,-0.924 -1.017,-2.771 0,-3.483 0.351,-6.639 1.052,-9.467 0.701,-2.828 1.554,-4.243 2.559,-4.243 0.445,0 0.667,0.257 0.667,0.772 -1.075,3.413 -1.847,6.908 -2.314,10.484 h 0.245 c 1.894,-4.371 3.985,-7.784 6.276,-10.239 1.31,-1.402 2.502,-2.103 3.577,-2.103 0.234,0 0.421,0.07 0.561,0.21 0.164,0.14 0.246,0.315 0.246,0.526 -0.164,0.163 -0.363,0.409 -0.597,0.736 -0.234,0.327 -0.549,1.11 -0.946,2.349 -0.398,1.216 -0.596,2.548 -0.596,3.998 0,0.187 -0.059,0.28 -0.176,0.28 z"
       id="path2"
       style="fill-rule:nonzero" />
    <path
       d="m 231.438,323.22 c -1.917,0 -2.876,-1.508 -2.876,-4.524 0,-1.8 0.444,-3.775 1.333,-5.926 1.239,-3.015 2.863,-5.072 4.874,-6.171 0.865,-0.467 1.671,-0.701 2.419,-0.701 0.748,0 1.333,0.163 1.753,0.491 0.445,0.327 0.725,0.654 0.842,0.981 l 0.21,0.456 c -0.07,0.398 -0.268,0.597 -0.596,0.597 -0.374,0 -0.596,-0.082 -0.666,-0.246 -0.047,-0.187 -0.105,-0.339 -0.176,-0.456 -0.07,-0.14 -0.233,-0.315 -0.49,-0.526 -0.257,-0.234 -0.55,-0.351 -0.877,-0.351 -1.519,0 -2.898,1.368 -4.137,4.103 -1.403,3.156 -2.105,6.125 -2.105,8.906 0,1.403 0.281,2.105 0.842,2.105 0.444,0 1.064,-0.492 1.859,-1.473 0.818,-1.006 1.671,-2.256 2.559,-3.752 1.543,-2.572 2.794,-4.804 3.752,-6.698 0.795,-1.683 1.613,-2.524 2.455,-2.524 0.444,0 0.666,0.269 0.666,0.806 -0.21,0.444 -0.479,1.076 -0.807,1.894 -0.327,0.818 -0.759,2.443 -1.297,4.874 -0.538,2.431 -0.806,4.85 -0.806,7.258 0,2.408 0.362,3.612 1.087,3.612 0.28,0 0.537,-0.129 0.771,-0.386 0.234,-0.234 0.444,-0.596 0.631,-1.087 0.07,-0.257 0.234,-0.386 0.491,-0.386 0.094,0 0.164,0.035 0.21,0.105 0.047,0.071 0.047,0.188 0,0.351 -0.046,0.164 -0.128,0.386 -0.245,0.667 -0.117,0.304 -0.374,0.701 -0.771,1.192 -0.374,0.491 -0.772,0.736 -1.193,0.736 -0.981,0 -1.741,-0.643 -2.279,-1.928 -0.514,-1.286 -0.771,-2.805 -0.771,-4.559 0,-1.753 0.129,-3.436 0.385,-5.049 h -0.35 c -2.969,5.072 -5.201,7.609 -6.697,7.609 z"
       id="path3"
       style="fill-rule:nonzero" />
    <path
       d="m 264.276,307.336 c 0.678,0.514 1.321,0.771 1.929,0.771 0.631,0 1.075,-0.082 1.332,-0.245 0,0.303 -0.14,0.596 -0.42,0.876 -0.258,0.257 -0.644,0.386 -1.158,0.386 -0.491,0 -1.028,-0.117 -1.613,-0.351 -0.046,2.198 -0.409,4.453 -1.087,6.768 -0.678,2.291 -1.554,4.219 -2.63,5.785 -1.075,1.543 -2.139,2.315 -3.19,2.315 -1.052,0 -1.859,-0.409 -2.42,-1.227 -0.585,-0.912 -0.877,-2.21 -0.877,-3.893 0,-0.958 0.059,-1.987 0.176,-3.086 -2.899,5.19 -5.132,7.785 -6.697,7.785 -1.543,0 -2.315,-1.31 -2.315,-3.927 0,-2.712 0.666,-5.611 1.999,-8.696 1.122,-2.455 2.15,-3.741 3.085,-3.857 0.445,0 0.667,0.245 0.667,0.736 -0.281,0.678 -0.631,1.555 -1.052,2.63 -0.421,1.052 -0.982,2.746 -1.683,5.084 -0.678,2.338 -1.017,4.067 -1.017,5.189 0,1.099 0.245,1.649 0.736,1.649 0.608,0 1.555,-0.982 2.84,-2.946 1.31,-1.964 2.455,-3.927 3.437,-5.891 l 1.508,-2.91 c 0.654,-1.309 1.239,-1.964 1.753,-1.964 0.514,0 0.771,0.246 0.771,0.736 -1.425,4.886 -2.139,8.709 -2.139,11.467 0,1.286 0.374,1.928 1.122,1.928 0.842,0 1.719,-0.689 2.63,-2.069 0.935,-1.402 1.707,-3.214 2.314,-5.434 0.632,-2.245 0.947,-4.454 0.947,-6.628 v -0.21 c -0.677,-0.491 -1.227,-1.075 -1.648,-1.753 -0.421,-0.678 -0.631,-1.181 -0.631,-1.508 0,-0.351 0.152,-0.666 0.456,-0.947 0.304,-0.28 0.631,-0.421 0.982,-0.421 0.444,0 0.841,0.398 1.192,1.193 0.351,0.771 0.585,1.659 0.701,2.665 z"
       id="path4"
       style="fill-rule:nonzero" />
    <path
       d="m 282.86,305.267 c 0,1.729 0.491,2.653 1.473,2.77 -0.07,0.327 -0.339,0.491 -0.806,0.491 -0.959,0 -1.637,-0.585 -2.034,-1.754 -0.187,-0.537 -0.281,-1.192 -0.281,-1.963 0,-0.795 0.304,-1.742 0.912,-2.841 1.379,-2.547 3.88,-4.184 7.504,-4.908 1.239,-0.234 2.559,-0.351 3.962,-0.351 1.426,0 2.642,-0.14 3.647,-0.421 1.005,-0.28 1.695,-0.596 2.069,-0.947 0.982,-0.911 1.706,-1.367 2.174,-1.367 0.467,0 0.701,0.14 0.701,0.421 v 0.21 c -0.164,0.654 -0.865,1.274 -2.104,1.859 -0.748,0.327 -1.589,0.584 -2.524,0.771 -0.772,0.327 -1.415,1.227 -1.929,2.7 -0.514,1.449 -1.052,3.553 -1.613,6.311 1.215,-0.116 2.221,-0.175 3.015,-0.175 0.211,0 0.304,0.129 0.281,0.386 -0.094,0.281 -0.339,0.433 -0.736,0.456 -0.398,0 -1.321,0.117 -2.771,0.351 -1.098,5.423 -2.057,9.256 -2.875,11.501 -2.057,5.68 -4.991,8.52 -8.801,8.52 -2.735,0 -4.441,-1.25 -5.119,-3.752 -0.258,-0.865 -0.386,-1.73 -0.386,-2.594 0,-1.637 0.432,-3.273 1.297,-4.909 1.309,-2.502 3.028,-3.752 5.155,-3.752 0.304,0 0.549,0.07 0.736,0.21 0.21,0.14 0.351,0.35 0.421,0.631 -2.011,0 -3.67,1.04 -4.979,3.121 -1.029,1.613 -1.543,3.285 -1.543,5.014 0,2.525 0.888,4.068 2.665,4.629 0.421,0.116 0.97,0.175 1.648,0.175 0.678,0 1.39,-0.199 2.139,-0.596 0.771,-0.374 1.461,-1.075 2.068,-2.104 0.632,-1.005 1.146,-1.847 1.543,-2.525 0.398,-0.701 0.854,-1.94 1.368,-3.717 0.607,-2.173 1.122,-4.184 1.543,-6.031 0.42,-1.87 0.678,-2.992 0.771,-3.366 -1.309,0.211 -2.303,0.316 -2.98,0.316 -0.655,0 -1.029,-0.292 -1.122,-0.877 -0.025,-0.467 0.104,-0.736 0.385,-0.806 0.117,0.14 0.479,0.21 1.087,0.21 0.631,0 1.613,-0.059 2.946,-0.175 0.584,-2.291 1.145,-4.15 1.683,-5.576 0.538,-1.449 1.168,-2.548 1.893,-3.295 -0.374,0.024 -0.958,0.036 -1.753,0.036 -4.488,0 -7.632,1.321 -9.432,3.963 -0.865,1.239 -1.298,2.489 -1.298,3.751 z m 15.429,7.188 c 0,0.117 -0.106,0.175 -0.316,0.175 -0.21,0 -0.421,-0.046 -0.631,-0.14 -0.187,-0.094 -0.281,-0.222 -0.281,-0.386 0,-2.384 0.269,-4.301 0.807,-5.75 0.538,-1.473 1.251,-2.209 2.139,-2.209 0.234,0 0.433,0.082 0.596,0.245 0.163,0.163 0.245,0.386 0.245,0.667 -1.052,1.051 -1.811,2.617 -2.279,4.698 -0.187,0.865 -0.28,1.765 -0.28,2.7 z"
       id="path5"
       style="fill-rule:nonzero" />
    <path
       d="m 311.724,313.156 c -0.889,0 -1.333,-0.97 -1.333,-2.91 0,-1.099 0.211,-2.127 0.631,-3.086 -1.589,1.379 -3.366,3.951 -5.329,7.715 -1.964,3.74 -2.946,6.182 -2.946,7.328 0,0.281 -0.187,0.421 -0.561,0.421 -0.678,0 -1.017,-0.924 -1.017,-2.771 0,-3.483 0.351,-6.639 1.053,-9.467 0.701,-2.828 1.554,-4.243 2.559,-4.243 0.444,0 0.666,0.257 0.666,0.772 -1.075,3.413 -1.847,6.908 -2.314,10.484 h 0.245 c 1.894,-4.371 3.986,-7.784 6.277,-10.239 1.309,-1.402 2.501,-2.103 3.577,-2.103 0.233,0 0.42,0.07 0.561,0.21 0.163,0.14 0.245,0.315 0.245,0.526 -0.163,0.163 -0.362,0.409 -0.596,0.736 -0.234,0.327 -0.549,1.11 -0.947,2.349 -0.397,1.216 -0.596,2.548 -0.596,3.998 0,0.187 -0.059,0.28 -0.175,0.28 z"
       id="path6"
       style="fill-rule:nonzero" />
    <path
       d="m 323.201,306.213 c 1.776,0 2.665,1.041 2.665,3.121 0,1.193 -0.398,2.443 -1.193,3.752 -1.356,2.174 -3.155,3.261 -5.4,3.261 -0.35,0 -0.642,-0.058 -0.876,-0.175 -0.234,-0.117 -0.41,-0.292 -0.526,-0.526 1.659,0 3.179,-0.959 4.558,-2.876 1.122,-1.542 1.683,-2.957 1.683,-4.242 0,-0.958 -0.385,-1.438 -1.157,-1.438 -1.543,0 -2.981,1.204 -4.313,3.612 -1.426,2.618 -2.139,5.306 -2.139,8.065 0,2.337 0.666,3.74 1.999,4.207 0.257,0.094 0.584,0.141 0.982,0.141 0.397,0 0.818,-0.094 1.262,-0.281 0.444,-0.21 0.818,-0.456 1.122,-0.736 0.608,-0.561 1.111,-1.181 1.508,-1.859 0.093,-0.187 0.269,-0.28 0.526,-0.28 0.421,0 0.619,0.07 0.596,0.21 -0.07,0.257 -0.339,0.69 -0.807,1.297 -0.444,0.608 -0.864,1.1 -1.262,1.473 -0.374,0.351 -0.876,0.666 -1.507,0.947 -0.608,0.304 -1.228,0.456 -1.859,0.456 -2.478,0 -4.056,-1.169 -4.734,-3.507 -0.21,-0.794 -0.315,-1.612 -0.315,-2.454 0,-1.566 0.362,-3.273 1.086,-5.12 1.146,-2.805 2.724,-4.827 4.734,-6.066 1.099,-0.654 2.221,-0.982 3.367,-0.982 z"
       id="path7"
       style="fill-rule:nonzero" />
    <path
       d="m 336.812,306.213 c 1.776,0 2.665,1.041 2.665,3.121 0,1.193 -0.397,2.443 -1.192,3.752 -1.356,2.174 -3.156,3.261 -5.4,3.261 -0.351,0 -0.643,-0.058 -0.877,-0.175 -0.234,-0.117 -0.409,-0.292 -0.526,-0.526 1.66,0 3.18,-0.959 4.559,-2.876 1.122,-1.542 1.683,-2.957 1.683,-4.242 0,-0.958 -0.386,-1.438 -1.157,-1.438 -1.543,0 -2.981,1.204 -4.313,3.612 -1.426,2.618 -2.139,5.306 -2.139,8.065 0,2.337 0.666,3.74 1.998,4.207 0.258,0.094 0.585,0.141 0.982,0.141 0.397,0 0.818,-0.094 1.263,-0.281 0.444,-0.21 0.818,-0.456 1.122,-0.736 0.607,-0.561 1.11,-1.181 1.507,-1.859 0.094,-0.187 0.269,-0.28 0.526,-0.28 0.421,0 0.62,0.07 0.597,0.21 -0.07,0.257 -0.34,0.69 -0.807,1.297 -0.444,0.608 -0.865,1.1 -1.262,1.473 -0.374,0.351 -0.877,0.666 -1.508,0.947 -0.608,0.304 -1.227,0.456 -1.859,0.456 -2.477,0 -4.056,-1.169 -4.733,-3.507 -0.211,-0.794 -0.316,-1.612 -0.316,-2.454 0,-1.566 0.363,-3.273 1.087,-5.12 1.146,-2.805 2.723,-4.827 4.734,-6.066 1.099,-0.654 2.221,-0.982 3.366,-0.982 z"
       id="path8"
       style="fill-rule:nonzero" />
    <path
       d="m 346.391,328.339 c -1.356,0 -2.361,-0.713 -3.015,-2.139 -0.632,-1.425 -0.947,-3.564 -0.947,-6.417 0,-2.851 0.421,-6.229 1.262,-10.133 0.842,-3.904 1.824,-7.142 2.945,-9.713 1.146,-2.571 2.139,-3.857 2.981,-3.857 0.398,0 0.596,0.234 0.596,0.701 -0.491,1.122 -1.11,2.817 -1.858,5.085 -0.748,2.244 -1.379,4.324 -1.894,6.241 -0.491,1.917 -0.946,4.161 -1.367,6.732 -0.397,2.571 -0.596,4.78 -0.596,6.627 0,1.824 0.175,3.227 0.526,4.208 0.374,1.006 0.876,1.508 1.508,1.508 0.537,0 1.051,-0.257 1.542,-0.771 0.491,-0.491 0.842,-0.982 1.052,-1.473 0.117,-0.257 0.327,-0.327 0.631,-0.211 0.117,0.048 0.14,0.141 0.07,0.281 -0.046,0.163 -0.14,0.362 -0.28,0.596 -0.117,0.234 -0.339,0.596 -0.666,1.087 -0.702,1.099 -1.531,1.648 -2.49,1.648 z"
       id="path9"
       style="fill-rule:nonzero" />
    <path
       d="m 351.464,334.195 c 2.104,0 3.752,-0.993 4.944,-2.981 1.029,-1.753 1.823,-3.938 2.385,-6.557 -4.231,0.094 -7.481,1.707 -9.748,4.84 -0.141,0.21 -0.363,0.245 -0.667,0.104 -0.163,-0.093 -0.21,-0.21 -0.14,-0.35 1.005,-1.519 2.408,-2.817 4.208,-3.892 1.8,-1.052 3.986,-1.625 6.557,-1.718 0.257,-1.169 0.502,-2.537 0.736,-4.103 0.234,-1.566 0.503,-3.086 0.807,-4.559 h -0.316 c -3.039,5.4 -5.353,8.101 -6.943,8.101 -1.776,0 -2.665,-1.368 -2.665,-4.103 0,-2.735 0.585,-5.482 1.754,-8.24 1.169,-2.782 2.232,-4.278 3.19,-4.489 l 0.211,-0.036 c 0.397,0 0.596,0.257 0.596,0.772 -0.257,0.631 -0.584,1.461 -0.982,2.489 -0.397,1.005 -0.923,2.677 -1.578,5.014 -0.654,2.315 -0.982,4.126 -0.982,5.436 0,1.285 0.281,1.928 0.842,1.928 0.655,0 1.707,-1.134 3.156,-3.401 2.127,-3.32 3.974,-6.686 5.54,-10.099 0.678,-1.426 1.403,-2.139 2.174,-2.139 0.491,0 0.737,0.269 0.737,0.806 -0.445,0.818 -0.982,2.35 -1.613,4.594 -0.632,2.244 -1.146,4.512 -1.543,6.803 -0.398,2.267 -0.736,4.043 -1.017,5.329 1.776,0.304 2.805,1.075 3.086,2.315 0.046,0.21 0.07,0.491 0.07,0.841 0,0.374 -0.14,0.69 -0.421,0.947 -0.281,0.281 -0.526,0.421 -0.737,0.421 0.047,-0.164 0.059,-0.456 0.037,-0.877 -0.024,-0.397 -0.106,-0.736 -0.245,-1.017 -0.117,-0.28 -0.351,-0.572 -0.702,-0.876 -0.351,-0.304 -0.807,-0.526 -1.367,-0.667 -1.801,6.779 -4.921,10.169 -9.362,10.169 -1.917,0 -3.191,-0.678 -3.823,-2.034 -0.024,-0.07 -0.036,-0.128 -0.036,-0.175 0,-0.14 0.128,-0.233 0.386,-0.281 0.234,-0.024 0.409,0.058 0.526,0.246 0.42,0.958 1.402,1.437 2.945,1.437 z"
       id="path10"
       style="fill-rule:nonzero" />
    <path
       d="m 369.483,323.465 c -0.491,0 -0.737,-0.455 -0.737,-1.367 0,-0.561 0.152,-1.157 0.456,-1.789 0.304,-0.631 0.737,-0.946 1.297,-0.946 0.468,0 0.702,0.268 0.702,0.806 0,0.538 -0.433,1.438 -1.298,2.7 z"
       id="path11"
       style="fill-rule:nonzero" />
    <path
       d="m 162.109,268.503 c -0.11,-4.544 -0.166,-7.094 -0.166,-11.694 0,-4.599 0,-7.315 0.166,-11.97 0.111,-4.6 0.887,-4.766 4.766,-5.043 0.333,-0.333 0.333,-0.943 0,-1.275 -2.05,0.111 -5.486,0.277 -7.149,0.277 -1.662,0 -5.431,-0.166 -7.204,-0.277 -0.333,0.332 -0.333,0.942 0,1.275 3.879,0.332 4.766,0.443 4.877,5.043 0.111,4.6 0.166,7.315 0.166,11.915 0,4.6 -0.055,7.149 -0.166,11.749 -0.111,4.6 -0.998,4.877 -4.877,5.043 -0.333,0.333 -0.333,0.943 0,1.275 2.161,-0.111 5.542,-0.277 7.204,-0.277 1.663,0 4.877,0.111 7.149,0.277 0.333,-0.332 0.333,-0.942 0,-1.275 -3.879,-0.166 -4.655,-0.443 -4.766,-5.043 z"
       id="path12"
       style="fill-rule:nonzero" />
    <path
       d="m 200.248,245.448 0.056,19.231 c 0,1.053 -0.278,1.663 -0.666,1.663 -0.443,0 -1.053,-0.998 -2.66,-3.048 l -19.009,-24.496 -7.149,-0.111 c -0.333,0.333 -0.333,0.942 0,1.275 2.66,0.166 4.046,1.94 4.655,4.101 l -0.055,23.831 c 0,4.932 -0.943,5.264 -4.822,5.652 -0.332,0.333 -0.332,0.943 0,1.275 2.716,-0.055 3.658,-0.277 5.986,-0.277 2.327,0 3.158,0.222 5.93,0.277 0.332,-0.332 0.332,-0.942 0,-1.275 -3.88,-0.388 -4.822,-0.609 -4.822,-5.652 l -0.056,-17.679 c 0,-1.885 0.278,-2.716 0.721,-2.716 0.333,0 0.942,0.61 1.884,1.829 l 19.342,24.44 c 0.609,0.831 1.33,1.33 2.217,1.33 0.776,0 0.665,-0.665 0.665,-1.718 l 0.055,-27.932 c 0,-4.932 0.942,-5.265 4.822,-5.652 0.332,-0.333 0.332,-0.943 0,-1.275 -2.716,0.055 -3.658,0.277 -5.986,0.277 -2.327,0 -3.158,-0.222 -5.93,-0.277 -0.332,0.332 -0.332,0.942 0,1.275 3.88,0.387 4.822,0.609 4.822,5.652 z"
       id="path13"
       style="fill-rule:nonzero" />
    <path
       d="m 220.127,268.503 c -0.11,-4.433 -0.166,-6.983 -0.166,-11.361 1.94,0.056 3.88,0.942 5.043,2.383 l 8.701,10.973 c 1.108,1.441 1.884,3.104 1.996,3.991 0,0.166 0.055,0.332 0.276,0.332 1.109,-0.055 0.998,-0.277 2.66,-0.277 2.162,0 3.547,0.222 6.152,0.277 0.333,-0.332 0.333,-0.942 0,-1.275 -0.997,-0.166 -3.547,-0.72 -5.431,-3.048 l -12.137,-14.409 c -0.443,-0.499 -0.721,-0.942 -0.721,-1.386 0,-0.387 0.056,-0.776 1.94,-2.715 l 8.147,-8.368 c 2.549,-2.716 5.32,-3.547 7.537,-3.824 0.333,-0.333 0.333,-0.943 0,-1.275 -2.605,0.055 -3.602,0.277 -5.819,0.277 -2.217,0 -3.935,-0.222 -6.54,-0.277 -0.332,0.332 -0.332,0.942 0,1.275 1.996,0.166 4.379,1.108 2.106,3.602 l -8.867,9.754 c -1.163,1.274 -2.993,2.272 -5.043,2.438 0,-3.879 0.056,-6.539 0.166,-10.751 0.111,-4.6 0.942,-4.877 4.822,-5.043 0.332,-0.333 0.332,-0.943 0,-1.275 -2.716,0.055 -4.434,0.277 -7.26,0.277 -2.771,0 -4.323,-0.222 -7.094,-0.277 -0.332,0.332 -0.332,0.942 0,1.275 3.879,0.166 4.655,0.443 4.766,5.043 0.111,4.6 0.222,7.315 0.222,11.915 0,4.6 -0.111,7.149 -0.222,11.749 -0.111,4.6 -0.887,4.877 -4.766,5.043 -0.332,0.333 -0.332,0.943 0,1.275 2.716,-0.055 4.378,-0.277 7.205,-0.277 2.771,0 4.378,0.222 7.149,0.277 0.332,-0.332 0.332,-0.942 0,-1.275 -3.88,-0.166 -4.711,-0.443 -4.822,-5.043 z"
       id="path14"
       style="fill-rule:nonzero" />
    <path
       d="m 267.15,239.574 c -3.214,-0.443 -3.048,-1.497 -8.479,-1.497 -5.597,0 -10.53,3.714 -10.53,9.588 0,5.21 3.658,7.703 7.981,9.533 3.491,1.551 9.255,2.77 9.255,9.088 0,4.489 -2.66,7.371 -7.038,7.371 -5.21,0 -9.089,-2.882 -10.308,-8.424 -0.665,-0.221 -0.721,-0.111 -1.22,0.167 0.222,4.267 0.443,5.708 1.108,8.424 3.492,0 4.988,1.274 9.921,1.274 2.549,0 4.932,-0.609 6.872,-1.773 3.159,-1.995 5.21,-5.431 5.21,-8.978 0,-5.265 -3.603,-7.759 -7.649,-9.477 -2.66,-1.109 -10.308,-3.27 -10.308,-8.701 0,-3.104 2.938,-6.761 6.152,-6.761 5.431,0 7.703,3.99 8.812,7.647 0.609,0 0.72,0.056 1.219,-0.332 -0.166,-2.66 -0.388,-4.212 -0.998,-7.149 z"
       id="path15"
       style="fill-rule:nonzero" />
    <path
       d="m 291.612,275.098 c 5.375,0 10.862,-2.549 14.63,-7.481 -0.277,-0.499 -0.665,-0.832 -1.274,-0.832 -3.935,4.323 -7.704,6.041 -12.858,6.041 -8.59,0 -12.913,-8.701 -12.913,-16.792 0,-9.034 5.764,-16.46 12.747,-16.46 7.648,0 10.918,5.098 12.359,9.865 0.498,0.055 0.831,0 1.274,-0.277 -0.277,-2.882 -0.665,-5.542 -1.219,-8.59 -2.826,-0.278 -5.32,-2.495 -12.137,-2.495 -10.973,0 -18.011,8.591 -18.011,19.01 0,9.809 5.486,18.011 17.402,18.011 z"
       id="path16"
       style="fill-rule:nonzero" />
    <path
       d="m 322.613,259.137 c -1.22,0 -1.607,-0.443 -1.386,-0.997 l 5.82,-14.354 h 0.166 l 5.32,15.351 z m -6.262,11.583 3.325,-8.59 c 0.277,-0.721 0.609,-1.219 1.939,-1.219 h 11.583 l 3.492,10.197 c 0.776,2.272 -1.441,2.272 -4.102,2.438 -0.332,0.333 -0.332,0.943 0,1.275 2.051,-0.055 5.099,-0.277 7.261,-0.277 2.272,0 4.655,0.222 6.706,0.277 0.332,-0.332 0.332,-0.942 0,-1.275 -2.162,-0.166 -3.991,-0.388 -4.988,-3.214 l -11.583,-32.255 c -0.831,0.499 -2.162,1.109 -2.882,1.109 l -12.857,30.259 c -1.441,3.381 -3.104,3.935 -5.542,4.101 -0.333,0.333 -0.333,0.943 0,1.275 2.05,-0.055 3.325,-0.277 5.486,-0.277 2.272,0 3.935,0.222 5.986,0.277 0.332,-0.332 0.332,-0.942 0,-1.275 -2.107,-0.111 -4.711,-0.498 -3.824,-2.826 z"
       id="path17"
       style="fill-rule:nonzero" />
    <path
       d="m 357.318,258.14 c 1.219,0.388 2.826,0.499 4.711,0.499 10.086,0 12.968,-6.319 12.968,-11.029 0,-3.27 -2.051,-9.366 -12.303,-9.366 -1.441,0 -5.32,0.554 -7.537,0.554 -2.771,0 -4.323,-0.222 -7.094,-0.277 -0.333,0.332 -0.333,0.942 0,1.275 3.879,0.166 4.711,0.443 4.766,5.043 0.056,4.6 0.111,7.315 0.111,11.915 0,4.6 0,7.149 -0.111,11.749 -0.111,4.655 -0.887,4.877 -4.766,5.043 -0.333,0.333 -0.333,0.943 0,1.275 2.716,-0.055 4.378,-0.277 7.205,-0.277 3.103,0 5.098,0.222 7.869,0.277 0.333,-0.332 0.333,-0.942 0,-1.275 -3.824,-0.221 -5.653,-0.498 -5.708,-3.713 -0.055,-4.156 -0.111,-7.703 -0.111,-11.693 z m 0.111,-15.906 c 0.055,-1.607 0.942,-2.66 4.932,-2.66 3.824,0 7.759,1.995 7.759,9.033 0,5.986 -3.048,8.701 -8.424,8.701 -1.33,0 -3.657,-0.11 -4.378,-0.277 v -0.277 c 0,-4.6 0.056,-9.92 0.111,-14.52 z"
       id="path18"
       style="fill-rule:nonzero" />
    <path
       d="m 394.76,254.759 -6.485,0.056 c 0,0 -0.055,-7.538 0.111,-12.082 0.056,-1.33 0.721,-2.439 2.051,-2.439 h 8.645 c 4.157,0 4.988,2.937 6.207,6.761 0.665,0.111 0.776,0 1.331,-0.276 -0.278,-2.273 -1.109,-7.759 -1.22,-8.203 0,-0.11 -0.055,-0.166 -0.221,-0.166 -0.942,0.166 -1.441,0.388 -2.772,0.388 h -16.182 c -1.663,0 -4.434,-0.222 -7.205,-0.277 -0.332,0.332 -0.332,0.942 0,1.275 3.879,0.166 4.6,0.443 4.766,5.043 0.111,4.544 0.111,7.315 0.111,11.915 0,4.6 0,7.205 -0.111,11.749 -0.166,4.6 -0.887,4.877 -4.766,5.043 -0.332,0.333 -0.332,0.943 0,1.275 2.716,-0.055 5.653,-0.277 7.316,-0.277 h 12.303 c 2.66,0 7.094,0.277 7.094,0.277 0.776,-2.771 1.552,-6.595 1.995,-9.421 -0.555,-0.333 -0.61,-0.444 -1.33,-0.278 -1.109,3.991 -3.104,7.981 -7.316,7.981 h -8.645 c -1.219,0 -1.995,-0.887 -2.051,-2.383 -0.166,-4.655 -0.111,-14.354 -0.111,-14.354 l 6.485,0.056 c 4.71,0.055 4.932,1.219 5.098,3.713 0.333,0.332 0.887,0.332 1.219,0 -0.055,-1.94 -0.221,-2.605 -0.221,-4.323 0,-1.829 0.166,-3.103 0.221,-4.766 -0.332,-0.333 -0.886,-0.333 -1.219,0 -0.166,3.048 -0.388,3.713 -5.098,3.713 z"
       id="path19"
       style="fill-rule:nonzero" />
  </g>
  <g
     id="g24"
     transform="translate(-201.81312,-65.000086)">
    <path
       d="m 265.665,70.306 -57.806,59.153 c -19.531,24.186 13.292,21.372 27.363,28.339 5.047,5.159 -19.347,8.967 -14.299,14.131 5.047,5.159 30.521,9.939 35.577,15.098 5.047,5.16 -10.332,10.633 -5.284,15.793 5.047,5.159 16.721,0.27 18.907,12.181 1.558,8.512 21.037,3.658 30.564,-3.313 5.047,-5.164 -9.656,-4.677 -4.609,-9.837 12.552,-12.836 24.239,-4.664 28.533,-17.526 2.122,-6.355 -18.477,-9.797 -13.421,-14.957 14.523,-8.481 64.717,-14.001 40.9,-37.819 L 292.171,70.306 c -7.328,-7.036 -19.557,-7.113 -26.506,0 z m 66.399,114.019 c 0,2.935 21.623,4.858 21.623,-0.693 -3.081,-8.915 -19.067,-8.313 -21.623,0.693 z m -97.402,15.594 c 5.121,4.428 13.029,-1.101 15.401,-7.28 -4.962,-6.592 -23.533,0.237 -15.401,7.28 z m 94.691,-9.565 c -6.6,5.921 0.74,11.928 7.246,8.102 1.45,-1.471 -0.038,-6.63 -7.246,-8.102 z"
       id="path20"
       style="fill-rule:nonzero" />
    <g
       fill="#ffffff"
       id="g22"
       style="fill-rule:nonzero">
      <path
         d="m 251.831,160.999 c 1.545,0.959 24.91,5.706 30.62,6.652 1.979,0.418 0.577,2.458 -2.152,3.834 -6.153,1.635 -35.998,-10.486 -28.468,-10.486 z"
         id="path21" />
      <path
         d="m 288.677,74.454 22.871,23.227 c 2.168,2.216 2.138,6.51 0.925,7.745 l -11.356,-9.083 -2.233,13.451 -9.488,-5.009 -15.194,9.6 -5.03,-20.237 -8.163,14.123 h -12.478 c -5.086,0 -5.685,-6.455 -1.063,-11.076 8.072,-8.714 17.337,-17.595 22.371,-22.741 5.06,-5.173 13.877,-5.026 18.838,0 z"
         id="path22" />
    </g>
  </g>
</svg>
