<?xml version="1.0" encoding="UTF-8" standalone="no"?>
<svg
   clip-rule="evenodd"
   fill-rule="evenodd"
   stroke-linejoin="round"
   stroke-miterlimit="2"
   viewBox="0 0 829.83075 154.53174"
   version="1.1"
   id="svg23"
   sodipodi:docname="Inkscape.svg"
   width="829.83075"
   height="154.53174"
   inkscape:version="1.4 (e7c3feb100, 2024-10-09)"
   xmlns:inkscape="http://www.inkscape.org/namespaces/inkscape"
   xmlns:sodipodi="http://sodipodi.sourceforge.net/DTD/sodipodi-0.dtd"
   xmlns="http://www.w3.org/2000/svg"
   xmlns:svg="http://www.w3.org/2000/svg">
  <defs
     id="defs23" />
  <sodipodi:namedview
     id="namedview23"
     pagecolor="#ffffff"
     bordercolor="#666666"
     borderopacity="1.0"
     inkscape:showpageshadow="2"
     inkscape:pageopacity="0.0"
     inkscape:pagecheckerboard="0"
     inkscape:deskcolor="#d1d1d1"
     inkscape:zoom="1.5214286"
     inkscape:cx="470.93896"
     inkscape:cy="178.4507"
     inkscape:window-width="1707"
     inkscape:window-height="852"
     inkscape:window-x="0"
     inkscape:window-y="0"
     inkscape:window-maximized="1"
     inkscape:current-layer="svg23" />
  <path
     d="m 199.97556,109.6907 c -0.28207,-11.65245 -0.42568,-18.191565 -0.42568,-29.987614 0,-11.793486 0,-18.758284 0.42568,-30.695373 0.28465,-11.79605 2.27459,-12.221733 12.22174,-12.932061 0.85393,-0.853931 0.85393,-2.41819 0,-3.269557 -5.25694,0.284644 -14.06807,0.710328 -18.3326,0.710328 -4.26197,0 -13.92703,-0.425684 -18.47364,-0.710328 -0.85393,0.851367 -0.85393,2.415626 0,3.269557 9.94715,0.851368 12.22173,1.136011 12.50638,12.932061 0.28464,11.79605 0.42568,18.758283 0.42568,30.554333 0,11.79605 -0.14104,18.3326 -0.42568,30.128654 -0.28465,11.79605 -2.55923,12.50637 -12.50638,12.93206 -0.85393,0.85393 -0.85393,2.41819 0,3.26955 5.54158,-0.28464 14.21167,-0.71032 18.47364,-0.71032 4.26453,0 12.50638,0.28464 18.3326,0.71032 0.85393,-0.85136 0.85393,-2.41562 0,-3.26955 -9.94715,-0.42569 -11.93709,-1.13601 -12.22174,-12.93206 z"
     id="path12"
     style="fill-rule:nonzero;stroke-width:2.56436" />
  <path
     d="m 297.77764,50.569407 0.1436,49.315181 c 0,2.700272 -0.71289,4.264532 -1.70786,4.264532 -1.13601,0 -2.70027,-2.55923 -6.82119,-7.816169 l -48.7459,-62.816528 -18.3326,-0.284644 c -0.85393,0.853931 -0.85393,2.415626 0,3.269557 6.8212,0.425684 10.3754,4.974856 11.93709,10.516435 L 234.10974,108.129 c 0,12.64742 -2.41819,13.49878 -12.36533,14.49376 -0.85137,0.85393 -0.85137,2.41819 0,3.26955 6.96479,-0.14104 9.38042,-0.71032 15.35025,-0.71032 5.96726,0 8.09824,0.56928 15.20664,0.71032 0.85137,-0.85136 0.85137,-2.41562 0,-3.26955 -9.94971,-0.99498 -12.36533,-1.5617 -12.36533,-14.49376 l -0.14361,-45.335295 c 0,-4.833816 0.71289,-6.964798 1.8489,-6.964798 0.85394,0 2.41563,1.564259 4.83126,4.690212 l 49.59982,62.672921 c 1.56169,2.13099 3.4106,3.4106 5.68518,3.4106 1.98995,0 1.7053,-1.7053 1.7053,-4.40557 l 0.14104,-71.627663 c 0,-12.647416 2.41563,-13.501348 12.36534,-14.493755 0.85137,-0.853931 0.85137,-2.41819 0,-3.269557 -6.9648,0.14104 -9.38043,0.710328 -15.35025,0.710328 -5.96726,0 -8.09825,-0.569288 -15.20665,-0.710328 -0.85137,0.851367 -0.85137,2.415626 0,3.269557 9.94971,0.992407 12.36534,1.561695 12.36534,14.493755 z"
     id="path13"
     style="fill-rule:nonzero;stroke-width:2.56436" />
  <path
     d="m 348.75452,109.6907 c -0.28208,-11.367806 -0.42568,-17.906921 -0.42568,-29.133683 4.97486,0.143604 9.94971,2.415626 12.93206,6.110867 l 22.31248,28.138706 c 2.84131,3.69524 4.83126,7.95977 5.11846,10.23436 0,0.42568 0.14104,0.85136 0.70777,0.85136 2.84387,-0.14104 2.55923,-0.71032 6.82119,-0.71032 5.54414,0 9.09578,0.56928 15.77594,0.71032 0.85393,-0.85136 0.85393,-2.41562 0,-3.26955 -2.55667,-0.42569 -9.09578,-1.84634 -13.92704,-7.81617 L 366.94608,77.856748 c -1.13601,-1.279615 -1.8489,-2.415626 -1.8489,-3.554202 0,-0.992406 0.1436,-1.989942 4.97486,-6.962233 L 390.96387,45.88176 c 6.53655,-6.964798 13.64238,-9.09578 19.32757,-9.806108 0.85393,-0.853931 0.85393,-2.41819 0,-3.269557 -6.68016,0.14104 -9.23682,0.710328 -14.92201,0.710328 -5.68518,0 -10.09075,-0.569288 -16.7709,-0.710328 -0.85137,0.851367 -0.85137,2.415626 0,3.269557 5.11846,0.425684 11.22933,2.84131 5.40054,9.23682 L 361.2609,70.325226 c -2.98235,3.266993 -7.67512,5.826223 -12.93206,6.251907 0,-9.947148 0.1436,-16.768341 0.42568,-27.56942 0.28465,-11.79605 2.41563,-12.506377 12.36534,-12.932061 0.85137,-0.853931 0.85137,-2.41819 0,-3.269557 -6.9648,0.14104 -11.37037,0.710328 -18.61724,0.710328 -7.10584,0 -11.08573,-0.569288 -18.19156,-0.710328 -0.85137,0.851367 -0.85137,2.415626 0,3.269557 9.94714,0.425684 11.93709,1.136011 12.22173,12.932061 0.28464,11.79605 0.56929,18.758283 0.56929,30.554333 0,11.79605 -0.28465,18.3326 -0.56929,30.128654 -0.28464,11.79605 -2.27459,12.50637 -12.22173,12.93206 -0.85137,0.85393 -0.85137,2.41819 0,3.26955 6.96479,-0.14104 11.22676,-0.71032 18.4762,-0.71032 7.10584,0 11.22676,0.56928 18.3326,0.71032 0.85137,-0.85136 0.85137,-2.41562 0,-3.26955 -9.94971,-0.42569 -12.08069,-1.13601 -12.36534,-12.93206 z"
     id="path14"
     style="fill-rule:nonzero;stroke-width:2.56436" />
  <path
     d="m 469.33836,35.506365 c -8.24185,-1.136011 -7.81617,-3.838845 -21.7432,-3.838845 -14.35271,0 -27.00269,9.524028 -27.00269,24.58707 0,13.360309 9.38042,19.753255 20.46614,24.446031 8.95218,3.97732 23.73314,7.103274 23.73314,23.304889 0,11.51141 -6.82119,18.90189 -18.04795,18.90189 -13.36031,0 -23.30746,-7.39048 -26.43341,-21.60216 -1.7053,-0.56672 -1.84891,-0.28464 -3.12852,0.42825 0.56929,10.94212 1.13601,14.63736 2.84131,21.60216 8.95474,0 12.79102,3.26699 25.441,3.26699 6.53655,0 12.64742,-1.56169 17.62227,-4.54661 8.10081,-5.11589 13.36031,-13.92703 13.36031,-23.022809 0,-13.501348 -9.23938,-19.896859 -19.61478,-24.302427 -6.82119,-2.843873 -26.43341,-8.385452 -26.43341,-22.312484 0,-7.959769 7.53409,-17.337629 15.77594,-17.337629 13.92703,0 19.75325,10.231791 22.59713,19.609651 1.56169,0 1.84633,0.143604 3.12595,-0.851367 -0.42568,-6.821194 -0.99497,-10.801079 -2.55923,-18.3326 z"
     id="path15"
     style="fill-rule:nonzero;stroke-width:2.56436" />
  <path
     d="m 532.0677,126.60264 c 13.78343,0 27.85406,-6.53655 37.51657,-19.18397 -0.71033,-1.27961 -1.7053,-2.13354 -3.267,-2.13354 -10.09075,11.08572 -19.75582,15.49129 -32.97252,15.49129 -22.02784,0 -33.11356,-22.312487 -33.11356,-43.060712 0,-23.166416 14.78096,-42.209343 32.68788,-42.209343 19.61221,0 27.99766,13.0731 31.6929,25.297398 1.27706,0.141039 2.13099,0 3.267,-0.710328 -0.71033,-7.390481 -1.7053,-14.211675 -3.12596,-22.02784 -7.24687,-0.712892 -13.64238,-6.398075 -31.12362,-6.398075 -28.1387,0 -46.18666,22.030405 -46.18666,48.748457 0,25.153793 14.06807,46.186663 44.62497,46.186663 z"
     id="path16"
     style="fill-rule:nonzero;stroke-width:2.56436" />
  <path
     d="m 611.56538,85.672913 c -3.12852,0 -4.12092,-1.136011 -3.5542,-2.556666 l 14.92457,-36.808804 h 0.42568 l 13.64239,39.36547 z m -16.05801,29.702967 8.52649,-22.027842 c 0.71033,-1.848903 1.56169,-3.125953 4.97229,-3.125953 h 29.70297 l 8.95474,26.148765 c 1.98994,5.82622 -3.69524,5.82622 -10.519,6.25191 -0.85137,0.85393 -0.85137,2.41819 0,3.26955 5.2595,-0.14104 13.07566,-0.71032 18.61981,-0.71032 5.82622,0 11.93709,0.56928 17.19659,0.71032 0.85136,-0.85136 0.85136,-2.41562 0,-3.26955 -5.54415,-0.42569 -10.23436,-0.99498 -12.79103,-8.24185 L 630.46727,31.66752 c -2.13098,1.279615 -5.54414,2.843874 -7.39048,2.843874 l -32.96996,77.594926 c -3.69524,8.6701 -7.95977,10.09075 -14.21168,10.51644 -0.85393,0.85393 -0.85393,2.41819 0,3.26955 5.25694,-0.14104 8.5265,-0.71032 14.06807,-0.71032 5.82623,0 10.09076,0.56928 15.35026,0.71032 0.85136,-0.85136 0.85136,-2.41562 0,-3.26955 -5.40311,-0.28465 -12.0807,-1.27705 -9.80611,-7.24688 z"
     id="path17"
     style="fill-rule:nonzero;stroke-width:2.56436" />
  <path
     d="m 700.56145,83.116247 c 3.12595,0.994971 7.24687,1.279615 12.08069,1.279615 25.86412,0 33.2546,-16.204182 33.2546,-28.282311 0,-8.385453 -5.2595,-24.017783 -31.5493,-24.017783 -3.69524,0 -13.64239,1.420655 -19.32757,1.420655 -7.10584,0 -11.08572,-0.569288 -18.19156,-0.710328 -0.85393,0.851367 -0.85393,2.415626 0,3.269557 9.94715,0.425684 12.08069,1.136011 12.22173,12.932061 0.14361,11.79605 0.28465,18.758283 0.28465,30.554333 0,11.79605 0,18.3326 -0.28465,30.128654 -0.28464,11.93708 -2.27458,12.50637 -12.22173,12.93206 -0.85393,0.85393 -0.85393,2.41819 0,3.26955 6.9648,-0.14104 11.22676,-0.71032 18.4762,-0.71032 7.95721,0 13.0731,0.56928 20.17894,0.71032 0.85393,-0.85136 0.85393,-2.41562 0,-3.26955 -9.80611,-0.56673 -14.49632,-1.27705 -14.63736,-9.52147 -0.14104,-10.65747 -0.28464,-19.753252 -0.28464,-29.985043 z m 0.28464,-40.788688 c 0.14104,-4.120925 2.41563,-6.821194 12.64742,-6.821194 9.80611,0 19.89686,5.115895 19.89686,23.163851 0,15.350251 -7.81617,22.312485 -21.60216,22.312485 -3.4106,0 -9.37786,-0.28208 -11.22676,-0.710328 v -0.710327 c 0,-11.79605 0.1436,-25.438438 0.28464,-37.234487 z"
     id="path18"
     style="fill-rule:nonzero;stroke-width:2.56436" />
  <path
     d="m 796.57616,74.446151 -16.62986,0.143604 c 0,0 -0.14104,-19.330136 0.28464,-30.982581 0.14361,-3.410597 1.8489,-6.254471 5.2595,-6.254471 h 22.16888 c 10.66004,0 12.79102,7.531521 15.91697,17.337629 1.7053,0.284644 1.98995,0 3.41317,-0.707763 -0.7129,-5.828787 -2.84388,-19.896859 -3.12852,-21.035434 0,-0.282079 -0.14104,-0.425684 -0.56672,-0.425684 -2.41563,0.425684 -3.69525,0.994972 -7.10841,0.994972 h -41.49645 c -4.26453,0 -11.37036,-0.569288 -18.4762,-0.710328 -0.85137,0.851367 -0.85137,2.415626 0,3.269557 9.94715,0.425684 11.79605,1.136011 12.22173,12.932061 0.28465,11.652446 0.28465,18.758283 0.28465,30.554333 0,11.79605 0,18.476204 -0.28465,30.128654 -0.42568,11.79605 -2.27458,12.50637 -12.22173,12.93206 -0.85137,0.85393 -0.85137,2.41819 0,3.26955 6.9648,-0.14104 14.49632,-0.71032 18.76085,-0.71032 h 31.5493 c 6.82119,0 18.19156,0.71032 18.19156,0.71032 1.98994,-7.10583 3.97988,-16.91194 5.1159,-24.15882 -1.42322,-0.85393 -1.56426,-1.13857 -3.4106,-0.71289 -2.84388,10.23435 -7.95977,20.46615 -18.76085,20.46615 h -22.16888 c -3.12595,0 -5.11589,-2.27459 -5.2595,-6.11087 -0.42568,-11.93709 -0.28464,-36.808805 -0.28464,-36.808805 l 16.62986,0.143604 c 12.07813,0.14104 12.64742,3.125953 13.0731,9.521464 0.85393,0.851367 2.27459,0.851367 3.12596,0 -0.14104,-4.974856 -0.56673,-6.680155 -0.56673,-11.085723 0,-4.690212 0.42569,-7.957205 0.56673,-12.221733 -0.85137,-0.853931 -2.27203,-0.853931 -3.12596,0 -0.42568,7.816165 -0.99497,9.521464 -13.0731,9.521464 z"
     id="path19"
     style="fill-rule:nonzero;stroke-width:2.56436" />
  <g
     id="g24"
     transform="translate(-201.81312,-65.000086)">
    <path
       d="m 265.665,70.306 -57.806,59.153 c -19.531,24.186 13.292,21.372 27.363,28.339 5.047,5.159 -19.347,8.967 -14.299,14.131 5.047,5.159 30.521,9.939 35.577,15.098 5.047,5.16 -10.332,10.633 -5.284,15.793 5.047,5.159 16.721,0.27 18.907,12.181 1.558,8.512 21.037,3.658 30.564,-3.313 5.047,-5.164 -9.656,-4.677 -4.609,-9.837 12.552,-12.836 24.239,-4.664 28.533,-17.526 2.122,-6.355 -18.477,-9.797 -13.421,-14.957 14.523,-8.481 64.717,-14.001 40.9,-37.819 L 292.171,70.306 c -7.328,-7.036 -19.557,-7.113 -26.506,0 z m 66.399,114.019 c 0,2.935 21.623,4.858 21.623,-0.693 -3.081,-8.915 -19.067,-8.313 -21.623,0.693 z m -97.402,15.594 c 5.121,4.428 13.029,-1.101 15.401,-7.28 -4.962,-6.592 -23.533,0.237 -15.401,7.28 z m 94.691,-9.565 c -6.6,5.921 0.74,11.928 7.246,8.102 1.45,-1.471 -0.038,-6.63 -7.246,-8.102 z"
       id="path20"
       style="fill-rule:nonzero" />
    <g
       fill="#ffffff"
       id="g22"
       style="fill-rule:nonzero">
      <path
         d="m 251.831,160.999 c 1.545,0.959 24.91,5.706 30.62,6.652 1.979,0.418 0.577,2.458 -2.152,3.834 -6.153,1.635 -35.998,-10.486 -28.468,-10.486 z"
         id="path21" />
      <path
         d="m 288.677,74.454 22.871,23.227 c 2.168,2.216 2.138,6.51 0.925,7.745 l -11.356,-9.083 -2.233,13.451 -9.488,-5.009 -15.194,9.6 -5.03,-20.237 -8.163,14.123 h -12.478 c -5.086,0 -5.685,-6.455 -1.063,-11.076 8.072,-8.714 17.337,-17.595 22.371,-22.741 5.06,-5.173 13.877,-5.026 18.838,0 z"
         id="path22" />
    </g>
  </g>
</svg>
