<?xml version="1.0" encoding="UTF-8" standalone="no"?>
<svg
   width="132.74727"
   height="46.000336"
   version="1.1"
   id="svg3"
   sodipodi:docname="Java.svg"
   inkscape:version="1.4 (e7c3feb100, 2024-10-09)"
   xmlns:inkscape="http://www.inkscape.org/namespaces/inkscape"
   xmlns:sodipodi="http://sodipodi.sourceforge.net/DTD/sodipodi-0.dtd"
   xmlns="http://www.w3.org/2000/svg"
   xmlns:svg="http://www.w3.org/2000/svg">
  <defs
     id="defs3" />
  <sodipodi:namedview
     id="namedview3"
     pagecolor="#ffffff"
     bordercolor="#666666"
     borderopacity="1.0"
     inkscape:showpageshadow="2"
     inkscape:pageopacity="0.0"
     inkscape:pagecheckerboard="0"
     inkscape:deskcolor="#d1d1d1"
     inkscape:zoom="7.1"
     inkscape:cx="52.887324"
     inkscape:cy="22.887324"
     inkscape:window-width="1707"
     inkscape:window-height="852"
     inkscape:window-x="0"
     inkscape:window-y="0"
     inkscape:window-maximized="1"
     inkscape:current-layer="svg3" />
  <path
     d="m 10.955791,35.562 c 0,0 -1.7669998,1.075 1.23,1.383 3.6,0.46 5.53,0.384 9.524,-0.384 0,0 1.075,0.69 2.535,1.23 -8.987,3.84 -20.3539998,-0.23 -13.288,-2.227 z M 9.8037912,30.57 c 0,0 -1.92,1.46 1.0749998,1.767 3.917,0.384 7,0.46 12.29,-0.614 0,0 0.69,0.768 1.843,1.152 -10.83,3.226 -22.9659998,0.307 -15.2079998,-2.304 z m 21.1999998,8.756 c 0,0 1.306,1.075 -1.46,1.92 -5.146,1.536 -21.5829998,1.997 -26.1919998,0 -1.613,-0.69 1.46,-1.7 2.458,-1.843 1,-0.23 1.536,-0.23 1.536,-0.23 -1.766,-1.23 -11.752,2.535 -5.07,3.6 18.3569998,2.995 33.4879998,-1.306 28.7259998,-3.456 z m -19.204,-13.979 c 0,0 -8.3719998,1.997 -2.9959998,2.688 2.3039998,0.307 6.8359998,0.23 11.0599998,-0.077 3.456,-0.307 6.913,-0.922 6.913,-0.922 0,0 -1.23,0.538 -2.074,1.075 -8.526,2.227 -24.88599983,1.23 -20.1999998,-1.075 3.994,-1.92 7.2969998,-1.7 7.2969998,-1.7 z m 14.978,8.372 c 8.602,-4.455 4.608,-8.756 1.843,-8.218 -0.69,0.154 -1,0.307 -1,0.307 0,0 0.23,-0.46 0.768,-0.614 5.453,-1.92 9.755,5.76 -1.767,8.756 0,0 0.077,-0.077 0.154,-0.23 z m -14.132,12.135 c 8.295,0.538 20.97,-0.307 21.276,-4.224 0,0 -0.614,1.536 -6.836,2.688 -7.066,1.306 -15.822,1.152 -20.9699998,0.307 0,0 1.075,0.922 6.5299998,1.23 z"
     fill="#4e7896"
     id="path1" />
  <path
     d="m 21.554791,0 c 0,0 4.762,4.84 -4.532,12.136 -7.4499998,5.914 -1.7,9.294 0,13.134 -4.378,-3.917 -7.5269998,-7.373 -5.377,-10.6 3.15,-4.762 11.828,-7.066 9.908,-14.67 z m -2.458,22.044 c 2.227,2.535 -0.615,4.84 -0.615,4.84 0,0 5.684,-2.92 3.072,-6.53 -2.38,-3.456 -4.224,-5.146 5.76,-10.907 0,0 -15.746,3.917 -8.218,12.596 z"
     fill="#f58219"
     id="path2" />
  <path
     d="M 82.641912,36.4077 V 17.224742 c 0,-4.895539 -2.740188,-8.2205636 -9.590657,-8.2205636 -3.914789,0 -7.244742,0.9791079 -10.17878,2.1520656 l 0.979108,3.523803 c 2.152066,-0.783615 4.89554,-1.565587 7.829578,-1.565587 3.719295,0 5.480375,1.565587 5.480375,4.698404 v 2.546337 h -1.941787 c -9.396808,0 -13.70094,3.523803 -13.70094,9.199672 0,4.698404 2.935681,7.438591 8.220564,7.438591 3.32831,0 5.873004,-1.565587 8.220563,-3.523802 l 0.390987,2.935681 h 4.304132 z m -5.483661,-6.262348 c -1.95493,1.76108 -4.110282,2.740188 -6.068498,2.740188 -2.546337,0 -4.110281,-1.565587 -4.110281,-4.304132 0,-2.738545 1.565586,-4.698404 7.829577,-4.698404 h 2.349202 v 6.263991 z m 23.879719,6.263991 H 94.1875 L 85.968579,9.5939431 h 5.873005 l 5.089389,16.4444129 1.174601,4.895539 C 100.65191,23.88629 102.60684,16.644834 103.39046,9.5988715 h 5.87136 c -1.56559,8.8086855 -4.30413,18.3993425 -8.22056,26.8153995 z m 31.7093,0 V 17.224742 c 0,-4.895539 -2.74019,-8.2205636 -9.59395,-8.2205636 -3.91479,0 -7.24145,0.9791079 -10.17878,2.1520656 l 0.78362,3.523803 c 2.3492,-0.783615 5.08939,-1.565587 8.02507,-1.565587 3.71929,0 5.48037,1.565587 5.48037,4.698404 v 2.546337 h -1.95493 c -9.3968,0 -13.70094,3.523803 -13.70094,9.199672 0,4.698404 2.74019,7.438591 8.02508,7.438591 3.5238,0 6.06849,-1.565587 8.41605,-3.523802 l 0.39099,2.935681 h 4.30413 z m -5.48038,-6.263991 c -1.95493,1.76108 -4.11028,2.740188 -6.0685,2.740188 -2.54634,0 -4.11028,-1.565587 -4.11028,-4.304132 0,-2.738545 1.56559,-4.698404 7.82958,-4.698404 h 2.3492 v 6.263991 z M 55.430598,40.91061 C 53.865011,43.259812 51.515809,45.020892 48.580129,46 l -2.546338,-3.131174 c 1.958216,-1.174601 3.914789,-2.935681 4.698404,-4.501268 0.783614,-1.370094 0.979108,-3.328309 0.979108,-7.829577 V 0 h 5.873004 v 30.145352 c 0,6.068498 -0.588122,8.416057 -2.152066,10.765258 z"
     fill="#4e7896"
     id="path3"
     style="stroke-width:1.6428" />
</svg>
