<?xml version="1.0" encoding="UTF-8" standalone="no"?>
<!DOCTYPE svg PUBLIC "-//W3C//DTD SVG 1.1//EN" "http://www.w3.org/Graphics/SVG/1.1/DTD/svg11.dtd">
<svg xmlns="http://www.w3.org/2000/svg" version="1.1" viewBox="0.00 0.00 712.00 155.00">
<path fill="#f38577" d="
  M 86.98 0.00
  L 123.96 0.00
  L 108.27 24.33
  A 1.73 1.71 -28.7 0 0 107.99 25.27
  L 107.96 155.00
  L 103.02 155.00
  L 103.00 25.12
  Q 103.00 24.61 102.72 24.19
  L 86.98 0.00
  Z"
/>
<rect fill="#f38577" x="-3.06" y="-55.73" transform="translate(241.81,76.25) rotate(-0.1)" width="6.12" height="111.46" rx="0.48"/>
<rect fill="#f38577" x="534.73" y="20.77" width="6.02" height="111.46" rx="0.26"/>
<path fill="#f38577" d="
  M 354.75 61.26
  L 354.75 21.88
  Q 354.75 21.25 355.38 21.25
  L 360.02 21.25
  Q 360.69 21.25 360.70 21.92
  C 360.89 33.75 360.59 47.09 360.65 57.36
  Q 360.89 94.41 360.67 131.45
  A 0.51 0.51 0.0 0 1 360.16 131.96
  L 355.39 132.02
  Q 354.75 132.02 354.75 131.39
  L 354.75 121.23
  Q 354.75 119.68 353.82 120.91
  C 343.25 134.78 323.31 140.27 310.06 126.44
  C 292.36 107.95 298.42 73.04 322.41 63.37
  C 332.48 59.31 343.75 61.42 354.18 61.80
  Q 354.75 61.82 354.75 61.26
  Z
  M 325.53 68.12
  C 310.99 73.27 304.81 90.42 306.48 104.78
  C 308.37 121.12 322.75 134.17 339.51 125.17
  Q 354.90 116.90 354.87 97.22
  Q 354.85 82.84 354.68 68.43
  Q 354.68 67.92 354.17 67.87
  C 345.48 67.05 333.29 65.36 325.53 68.12
  Z"
/>
<rect fill="#83b9f5" x="-5.87" y="-4.34" transform="translate(82.38,27.09) rotate(-0.1)" width="11.74" height="8.68" rx="0.45"/>
<path fill="#527eb2" d="
  M 127.46 23.36
  L 205.12 79.79
  A 3.12 3.12 0.0 0 1 205.12 84.83
  L 127.46 141.26
  A 3.12 3.12 0.0 0 1 122.50 138.74
  L 122.50 25.88
  A 3.12 3.12 0.0 0 1 127.46 23.36
  Z"
/>
<rect fill="#83b9f5" x="-10.62" y="-4.27" transform="translate(77.63,40.98) rotate(0.1)" width="21.24" height="8.54" rx="0.43"/>
<rect fill="#f38577" x="-3.02" y="-3.00" transform="translate(568.98,47.00) rotate(0.6)" width="6.04" height="6.00" rx="0.53"/>
<rect fill="#83b9f5" x="42.25" y="50.50" width="46.00" height="8.74" rx="0.45"/>
<path fill="#f38577" d="
  M 459.30 73.70
  C 468.31 62.08 480.80 57.03 494.80 61.62
  C 509.03 66.29 513.44 78.69 513.47 92.50
  Q 513.52 111.96 513.50 131.42
  Q 513.50 132.00 512.93 132.00
  L 507.81 132.00
  Q 507.22 132.00 507.22 131.41
  Q 507.30 111.43 507.28 91.51
  C 507.28 82.87 503.61 71.85 494.97 68.31
  Q 480.56 62.41 468.77 72.52
  C 460.57 79.55 458.79 86.38 458.76 97.63
  Q 458.73 114.52 458.76 131.42
  Q 458.76 131.96 458.22 131.96
  L 453.39 132.02
  Q 452.75 132.02 452.75 131.39
  L 452.75 62.66
  Q 452.75 62.00 453.41 62.00
  L 458.12 62.00
  Q 458.75 62.00 458.75 62.62
  L 458.75 73.51
  Q 458.75 74.41 459.30 73.70
  Z"
/>
<path fill="#f38577" d="
  M 248.18 97.07
  L 285.36 60.84
  A 0.31 0.31 0.0 0 1 285.58 60.75
  L 293.40 60.75
  A 0.31 0.31 0.0 0 1 293.62 61.28
  L 256.97 97.04
  A 0.31 0.31 0.0 0 0 256.98 97.49
  L 293.50 131.20
  A 0.31 0.31 0.0 0 1 293.29 131.74
  L 285.51 131.75
  A 0.31 0.31 0.0 0 1 285.30 131.67
  L 248.19 97.52
  A 0.31 0.31 0.0 0 1 248.18 97.07
  Z"
/>
<path fill="#f38577" d="
  M 380.70 97.58
  C 381.68 114.24 389.88 126.35 407.36 127.91
  C 415.70 128.66 423.46 126.24 431.16 124.19
  Q 431.74 124.04 431.74 124.64
  L 431.75 129.41
  Q 431.76 129.94 431.24 130.09
  C 423.55 132.30 414.19 134.05 405.78 133.48
  C 385.45 132.10 373.82 114.17 374.52 94.87
  C 375.27 74.58 393.30 55.39 414.76 62.19
  C 428.35 66.50 435.66 82.82 435.07 96.43
  A 0.60 0.59 1.0 0 1 434.47 97.00
  L 381.24 97.00
  A 0.55 0.54 88.5 0 0 380.70 97.58
  Z
  M 404.06 67.07
  C 392.53 68.69 382.64 78.79 381.05 90.47
  A 0.23 0.23 0.0 0 0 381.28 90.73
  L 427.97 90.84
  Q 428.64 90.84 428.56 90.18
  C 427.08 78.30 417.38 65.20 404.06 67.07
  Z"
/>
<path fill="#f38577" d="
  M 712.00 93.08
  L 712.00 96.96
  L 658.16 96.97
  Q 657.31 96.97 657.40 97.82
  C 660.88 129.09 682.12 131.91 707.90 124.10
  Q 708.50 123.92 708.50 124.55
  L 708.50 129.42
  Q 708.50 129.83 708.10 129.95
  C 686.40 136.49 663.44 136.14 654.02 111.49
  C 648.01 95.77 651.73 77.70 665.29 67.11
  C 679.15 56.28 697.10 59.63 706.50 74.79
  Q 711.30 82.52 712.00 93.08
  Z
  M 681.74 66.97
  C 669.90 68.08 659.61 78.64 657.76 90.24
  Q 657.68 90.76 658.21 90.76
  L 705.25 90.76
  A 0.26 0.25 86.0 0 0 705.50 90.47
  C 703.92 78.79 694.84 65.74 681.74 66.97
  Z"
/>
<rect fill="#f38577" x="566.00" y="61.77" width="6.00" height="70.22" rx="0.53"/>
<path fill="#f38577" d="
  M 636.95 62.00
  L 642.62 62.00
  A 0.34 0.34 0.0 0 1 642.94 62.45
  L 618.60 131.74
  A 0.34 0.34 0.0 0 1 618.28 131.96
  L 612.54 132.02
  A 0.34 0.34 0.0 0 1 612.22 131.79
  L 587.12 62.46
  A 0.34 0.34 0.0 0 1 587.44 62.00
  L 593.12 62.00
  A 0.34 0.34 0.0 0 1 593.44 62.22
  L 615.08 121.97
  A 0.34 0.34 0.0 0 0 615.73 121.97
  L 636.63 62.23
  A 0.34 0.34 0.0 0 1 636.95 62.00
  Z"
/>
<path fill="#83b9f5" d="
  M 88.25 64.90
  L 88.25 72.38
  A 0.62 0.62 0.0 0 1 87.63 73.00
  L 17.37 73.00
  A 0.62 0.62 0.0 0 1 16.75 72.38
  L 16.75 64.86
  A 0.62 0.62 0.0 0 1 17.37 64.24
  L 87.63 64.28
  A 0.62 0.62 0.0 0 1 88.25 64.90
  Z"
/>
<path fill="#83b9f5" d="
  M 0.00 87.06
  L 0.00 78.29
  L 87.76 78.28
  Q 88.25 78.28 88.25 78.77
  L 88.25 86.22
  Q 88.25 86.68 87.79 86.68
  L 0.00 87.06
  Z"
/>
<rect fill="#83b9f5" x="28.00" y="92.00" width="60.26" height="8.76" rx="0.52"/>
<rect fill="#83b9f5" x="52.51" y="106.00" width="35.74" height="8.50" rx="0.26"/>
<rect fill="#83b9f5" x="42.75" y="119.75" width="45.50" height="8.76" rx="0.52"/>
<rect fill="#83b9f5" x="-11.00" y="-4.37" transform="translate(77.25,137.38) rotate(-0.1)" width="22.00" height="8.74" rx="0.57"/>
</svg>
