<?xml version="1.0" encoding="UTF-8" standalone="no"?>
<svg
   viewBox="0 0 1542.6555 309.46999"
   version="1.1"
   id="svg1"
   sodipodi:docname="Owncloud.svg"
   width="1542.6555"
   height="309.47"
   inkscape:version="1.4 (e7c3feb100, 2024-10-09)"
   xmlns:inkscape="http://www.inkscape.org/namespaces/inkscape"
   xmlns:sodipodi="http://sodipodi.sourceforge.net/DTD/sodipodi-0.dtd"
   xmlns="http://www.w3.org/2000/svg"
   xmlns:svg="http://www.w3.org/2000/svg">
  <defs
     id="defs1" />
  <sodipodi:namedview
     id="namedview1"
     pagecolor="#ffffff"
     bordercolor="#666666"
     borderopacity="1.0"
     inkscape:showpageshadow="2"
     inkscape:pageopacity="0.0"
     inkscape:pagecheckerboard="0"
     inkscape:deskcolor="#d1d1d1"
     inkscape:zoom="1.0823221"
     inkscape:cx="677.70955"
     inkscape:cy="79.920758"
     inkscape:window-width="1707"
     inkscape:window-height="852"
     inkscape:window-x="0"
     inkscape:window-y="0"
     inkscape:window-maximized="1"
     inkscape:current-layer="svg1" />
  <path
     d="m 652.22545,194.37455 c -30.2,0 -54.76,24.43 -54.76,54.45 0,30.02 24.57,54.45 54.76,54.45 30.19,0 54.76,-24.43 54.76,-54.45 0,-30.02 -24.57,-54.45 -54.76,-54.45 z m 0,94.89 c -22.42,0 -40.67,-18.14 -40.67,-40.44 0,-22.3 18.24,-40.44 40.67,-40.44 22.43,0 40.67,18.14 40.67,40.44 0,22.3 -18.24,40.44 -40.67,40.44 z m 212.01996,-23.46 v -67.56 h -14.1 v 67.56 c 0,12.93 -10.58,23.45 -23.59,23.45 -13.01,0 -23.59,-10.52 -23.59,-23.45 v -67.56 h -14.1 v 67.56 c 0,12.93 -10.58,23.45 -23.58996,23.45 -13.01,0 -23.58,-10.52 -23.58,-23.45 v -67.56 h -14.1 v 67.56 c 0,20.66 16.9,37.47 37.68,37.47 12.63,0 23.78996,-6.23 30.63996,-15.73 6.84,9.5 18.01,15.73 30.64,15.73 20.78,0 37.69,-16.81 37.69,-37.47 z m 368.20009,-71.43 c 30.2,0 54.77,24.43 54.77,54.46 0,30.03 -24.57,54.46 -54.77,54.46 -30.2,0 -54.77,-24.43 -54.77,-54.46 0,-30.03 24.57,-54.46 54.77,-54.46 z m -191.6201,-33.48 c 8.4009,6.50452 13.5704,6.69843 12.438,7.647 -14.43,12.5 -23.623,30.81 -23.815,51.24 v 0.653 c 0,37.95 31.06,68.83 69.23,68.83 h 2.71 v 14.02 h -2.71 c -45.94,0 -83.32,-37.17 -83.32,-82.85 0,-23.35 9.78,-44.46 25.47,-59.54 z m 86.4401,-10.74 c 4.48,3.11 9.19,5.91 14.1,8.37 v 107.28 c 0,12.93 10.58,23.45 23.58,23.45 h 2.71 v 14.02 h -2.71 c -20.78,0 -37.68,-16.81 -37.68,-37.47 z m 191.39,48.09 v 50.58 c 0,22.29 18.25,40.43 40.67,40.43 22.42,0 40.67,-18.13 40.67,-40.43 v -50.58 h 14.1 v 50.58 c 0,30.02 -24.57,54.45 -54.77,54.45 -30.2,0 -54.77,-24.43 -54.77,-54.45 v -50.58 z m 224,-86.27 v 153.94 c -0.38,20.69 -21.2,37.35 -38.19,37.35 h -17.02 c -30.2,0 -54.77,-24.42 -54.77,-54.45 0,-30.03 24.56,-54.46 54.76,-54.46 l 41.12,-0.05 v -82.33 z m -601.95009,81.96 c 30.2,0 54.77,24.43 54.77,54.46 v 50.58 h -14.1 v -50.58 c 0,-22.3 -18.24,-40.44 -40.67,-40.44 -22.43,0 -40.67,18.14 -40.67,40.44 v 50.58 h -14.1 v -50.58 c 0,-30.03 24.57,-54.46 54.77,-54.46 z m 291.74009,14.46 c -22.42,0 -40.67,18.14 -40.67,40.44 0,22.3 18.25,40.44 40.67,40.44 22.42,0 40.67,-18.14 40.67,-40.44 0,-22.3 -18.25,-40.44 -40.67,-40.44 z m 296.15,-0.07 -41.15,0.05 c -22.42,0 -40.67,18.15 -40.67,40.44 0,22.29 18.25,40.43 40.67,40.43 h 17.02 c 10.33,0 23.87,-11.44 24.09,-23.59 l 0.046,-3.133 c 0.062,-5.222 0.086,-12.383 0.088,-19.94 v -4.49 l -0.039,-17.233 c -0.017,-4.94 -0.038,-9.31 -0.055,-12.534 z"
     fill="#FFF"
     id="path1"
     style="fill:#000000"
     sodipodi:nodetypes="sssssssssssccsssccsssccsscsssssssccccsccsscccssccssccsssccsssccccsssccccssccsssccsssssssccssscccccc" />
  <path
     d="M 144.14,309.47 M 427.72,140.25 c 1.01,0 2.02,0.04 3.02,0.08 40.21,1.44 73.22,31.44 79.05,70.18 0.44481,2.9488 0.72524,5.92005 0.84,8.9 0.04,1.12 0.08,2.24 0.08,3.36 0,21.28 -8.15,40.71 -21.5,55.36 -1,1.11 -2.04,2.18 -3.11,3.23 -1.06246,1.03574 -2.14943,2.04602 -3.26,3.03 -14.67,12.98 -33.97,20.89 -55.11,20.89 -24.49,0 -46.52,-10.6 -61.72,-27.42 19.06,-19.2 31.38,-45.01 33.15,-73.63 0.09,-1.432 0.152,-2.876 0.186,-4.327 l 0.024,-1.453 c 0,-0.45 0.03,-0.88 0.03,-1.33 -0.004,-1.13937 -0.0294,-2.27857 -0.076,-3.417 l -0.044,-1.143 c -0.59,-15.2 -4.18,-29.65 -10.18,-42.8 9.97,-5.24 21.13,-8.5 32.96,-9.3 1.44,-0.1 2.88,-0.16 4.34,-0.18 z m -265.48,80.69 c 2.92,0 5.77,0.3 8.52,0.87 2.58,11.7 6.97,22.74 12.85,32.82 1.54455,2.64486 3.18907,5.23006 4.93,7.75 3.544,5.1 7.5,9.892 11.805,14.352 l 0.875,0.898 c -6.09,15.52 -21.25,26.56 -38.98,26.56 -11.92,0 -22.66,-5 -30.29,-12.97 -0.99,-1.03 -1.92,-2.12 -2.8,-3.25 -0.9,-1.15 -1.73,-2.35 -2.5,-3.6 -3.95,-6.35 -6.27,-13.8 -6.27,-21.8 0,-3.47 0.48,-6.82 1.29,-10.05 0.35,-1.43 0.79,-2.83 1.29,-4.2 0.51,-1.37 1.09,-2.71 1.73,-4.02 5.46,-11.05 15.69,-19.35 28.02,-22.22 1.41,-0.33 2.83,-0.59 4.29,-0.77 1.42,-0.18 2.86,-0.29 4.32,-0.32 0.31,-0.01 0.61,-0.05 0.92,-0.05 z M 283.72,90.72 c 0.83,0 1.65,0.04 2.48,0.06 15.38,0.36 29.96,3.93 43.09,10.1 h 0.02 c 2.6428,1.25339 5.23484,2.61112 7.77,4.07 17.1,9.82 31.24,24.19 40.7,41.46 0.68,1.25 1.33,2.54 1.97,3.82 0.65,1.31 1.26,2.64 1.86,3.98 6.02304,13.50306 9.13066,28.12455 9.12,42.91 0,0.92 -0.05,1.83 -0.07,2.74 -0.04,1.84 -0.14,3.68 -0.28,5.5 -0.14,1.83 -0.33,3.64 -0.56,5.44 -3.03,23.28 -13.64,44.22 -29.3,60.29 -1.03,1.06 -2.08,2.09 -3.15,3.1 -1.05,0.99 -2.11,1.96 -3.2,2.9 -18.83,16.42 -42.46,26.41 -70.44,26.41 -27.98,0 -53.48,-10.75 -72.57,-28.3 -1.24,-1.14 -2.46,-2.3 -3.64,-3.5 -1.29,-1.3 -2.55,-2.64 -3.77,-4.01 -3.24009,-3.62898 -6.23345,-7.47091 -8.96,-11.5 -6.40349,-9.49366 -11.21661,-19.96768 -14.25,-31.01 -0.49,-1.75 -0.93,-3.52 -1.32,-5.31 -0.36,-1.64 -0.68,-3.3 -0.96,-4.96 -0.99,-5.79 -1.53,-11.73 -1.53,-17.79 0,-22.97 7.38,-44.25 19.88,-61.66 0.84,-1.18 1.71,-2.34 2.6,-3.48 0.9,-1.15 1.82,-2.29 2.77,-3.41 5.67,-6.67 12.14,-12.64 19.28,-17.76 1.22,-0.87 2.45,-1.73 3.71,-2.55 1.25,-0.82 2.51,-1.62 3.79,-2.39 15.31858,-9.15562 32.68969,-14.32101 50.522,-15.023 L 280.66,90.8 c 1.02,-0.03 2.03,-0.08 3.06,-0.08 z M 76.439999,151.1 c 0.77,0 1.540001,0.04 2.3,0.06 -1.88008,7.35223 -2.83083,14.91119 -2.83,22.5 0,30.38 15.039997,57.32 38.090001,73.89 -1.52615,4.85368 -2.30177,9.91204 -2.3,15 0,10 2.96,19.32 8.04,27.15 -12.51517,8.60403 -27.314203,13.27553 -42.501,13.416 l -0.799001,0.004 C 34.289999,303.12 0,269.02 0,227.11 0,185.2 34.289999,151.1 76.439999,151.1 Z M 525.89,216.5 c 23.08,0 41.86,18.68 41.86,41.63 0,22.95 -18.78,41.62 -41.86,41.62 -12.62,0 -23.93,-5.61 -31.61,-14.42 15.54,-16.34 25.1,-38.35 25.1,-62.56 0,-1.91 -0.08,-3.8 -0.2,-5.68 2.19,-0.35 4.42,-0.59 6.71,-0.59 z M 167.58,91.14 c 1.96,0 3.9,0.1 5.83,0.23 1.07069,5.75808 2.73975,11.38861 4.98,16.8 0.56,1.35 1.15,2.68 1.78,3.99 0.62,1.31 1.28,2.61 1.97,3.88 2.46,4.53 5.34,8.81 8.56,12.8 -14.22,19.11 -22.65,42.73 -22.65,68.27 0,5.32 0.39,10.54 1.1,15.67 -2.28975,-0.31684 -4.59844,-0.47721 -6.91,-0.48 -0.67,0 -1.33,0.02 -1.99,0.05 -1.47,0.06 -2.91,0.18 -4.34,0.36 -1.44,0.19 -2.87,0.42 -4.28,0.72 -14.88,3.18 -27.34,12.88 -34.2,25.93 l -0.01,-0.02 C 97.479998,224.26 84.579996,200.43 84.579996,173.65 c 0.003,-8.81815 1.43095,-17.57788 4.23,-25.94 0.47,-1.39 0.97,-2.76 1.5,-4.11 6.07,-15.37 16.630004,-28.5 30.090004,-37.78 1.2,-0.82 2.42,-1.62 3.66,-2.39 1.26,-0.77 2.54,-1.52 3.84,-2.23 11.8,-6.41 25.32,-10.06 39.68,-10.06 z M 345.66,62.46 c 39.9,0 72.74,30.56 76.13,69.38 -12.76304,0.80387 -25.21504,4.27884 -36.55,10.2 h -0.01 c -10.54,-19.14 -26.4,-34.97 -45.58,-45.56 1.68719,-6.69935 2.54031,-13.58147 2.54,-20.49 0,-4.55 -0.37,-9.02 -1.07,-13.38 1.5,-0.09 3.01,-0.15 4.54,-0.15 z M 257.1,0 c 34.89,0 64.38,23.37 73.5,55.2 0.39,1.37 0.75,2.77 1.07,4.18 0.31,1.4 0.59,2.81 0.83,4.24 0.67,4.03 1.03,8.17 1.03,12.38 0,5.66 -0.65,11.18 -1.84,16.5 -11.92894,-5.42572 -24.69476,-8.78034 -37.75,-9.92 -1.95,-0.17 -3.92,-0.3 -5.9,-0.37 -1.44,-0.05 -2.87,-0.11 -4.32,-0.11 -0.51,0 -1.01,0.04 -1.51,0.04 -22.26,0.28 -43.02,6.85 -60.57,18 -1.29,0.82 -2.57,1.66 -3.83,2.53 -1.26,0.88 -2.51,1.77 -3.74,2.69 -6.51,4.89 -12.46,10.47 -17.8,16.6 -3.57373,-4.67746 -6.59698,-9.75087 -9.01,-15.12 -0.63,-1.4 -1.23,-2.82 -1.77,-4.26 -1.236,-3.2818 -2.2385,-6.64685 -3,-10.07 -0.33,-1.5 -0.63,-3.01 -0.88,-4.54 l 0.01,0.01 c -0.23,-1.47 -0.43,-2.95 -0.58,-4.45 -1.22954,-12.20921 0.54535,-24.53386 5.17,-35.9 0.59,-1.45 1.21,-2.89 1.88,-4.29 0.65,-1.35 1.34,-2.67 2.07,-3.98 C 203.2,15.91 228.31,0 257.1,0 Z m -99.79,35.18 c 8.11,0 15.65,2.44 21.95,6.6 -4.81029,10.76328 -7.29444,22.42072 -7.29,34.21 0,2.25 0.12,4.46 0.29,6.66 -1.16716,-0.0603 -2.33538,-0.098 -3.504,-0.113 L 167.57,82.53 c -16.27,0 -31.55,4.26 -44.81,11.68 -3.3,-5.76 -5.21,-12.4 -5.21,-19.49 0,-21.8 17.84,-39.54 39.76,-39.54 z"
     style="fill:#000000"
     id="path1-2" />
</svg>
