<?xml version="1.0" encoding="UTF-8" standalone="no"?>
<svg
   viewBox="0 0 2091.4756 309.46999"
   version="1.1"
   id="svg1"
   sodipodi:docname="Owncloud.svg"
   width="2091.4756"
   height="309.47"
   inkscape:version="1.4 (e7c3feb100, 2024-10-09)"
   xmlns:inkscape="http://www.inkscape.org/namespaces/inkscape"
   xmlns:sodipodi="http://sodipodi.sourceforge.net/DTD/sodipodi-0.dtd"
   xmlns="http://www.w3.org/2000/svg"
   xmlns:svg="http://www.w3.org/2000/svg">
  <defs
     id="defs1" />
  <sodipodi:namedview
     id="namedview1"
     pagecolor="#ffffff"
     bordercolor="#666666"
     borderopacity="1.0"
     inkscape:showpageshadow="2"
     inkscape:pageopacity="0.0"
     inkscape:pagecheckerboard="0"
     inkscape:deskcolor="#d1d1d1"
     inkscape:zoom="1.0823221"
     inkscape:cx="1223.7577"
     inkscape:cy="51.278635"
     inkscape:window-width="1707"
     inkscape:window-height="852"
     inkscape:window-x="0"
     inkscape:window-y="0"
     inkscape:window-maximized="1"
     inkscape:current-layer="svg1" />
  <path
     d="m 684.02158,131.13068 c -47.73549,0 -86.55613,38.61516 -86.55613,86.06613 0,47.45097 38.83645,86.06613 86.55613,86.06613 47.71967,0 86.55612,-38.61516 86.55612,-86.06613 0,-47.45097 -38.83645,-86.06613 -86.55612,-86.06613 z m 0,149.98742 c -35.43807,0 -64.28484,-28.6729 -64.28484,-63.92129 0,-35.24839 28.83097,-63.92129 64.28484,-63.92129 35.45387,0 64.28483,28.6729 64.28483,63.92129 0,35.24839 -28.83096,63.92129 -64.28483,63.92129 z M 1019.1499,244.03616 V 137.24778 h -22.28711 v 106.78838 c 0,20.43775 -16.72322,37.06613 -37.28741,37.06613 -20.5642,0 -37.28742,-16.62838 -37.28742,-37.06613 V 137.24778 h -22.2871 v 106.78838 c 0,20.43775 -16.72322,37.06613 -37.28735,37.06613 -20.5642,0 -37.27161,-16.62838 -37.27161,-37.06613 V 137.24778 h -22.2871 v 106.78838 c 0,32.65613 26.7129,59.22678 59.55871,59.22678 19.96354,0 37.60348,-9.84742 48.4309,-24.86355 10.81161,15.01613 28.46742,24.86355 48.43097,24.86355 32.8458,0 59.57452,-26.57065 59.57452,-59.22678 z m 581.9937,-112.90548 c 47.7354,0 86.5719,38.61516 86.5719,86.08194 0,47.46677 -38.8365,86.08193 -86.5719,86.08193 -47.7355,0 -86.572,-38.61516 -86.572,-86.08193 0,-47.46678 38.8365,-86.08194 86.572,-86.08194 z M 1298.2602,78.210685 c 45.6167,-40.535327 88.8975,-47.620339 19.6601,12.087194 -22.8088,19.758061 -37.3396,48.699671 -37.6431,80.992251 v 1.03217 c 0,59.98548 49.0948,108.7958 109.4281,108.7958 h 4.2835 v 22.16064 h -4.2835 c -72.6149,0 -131.6994,-58.75258 -131.6994,-130.95644 0,-36.90807 15.4587,-70.27549 40.259,-94.111615 z m 136.6311,-31.759158 c 7.0813,4.915806 22.2871,12.864863 22.2871,21.545454 V 244.03616 c 0,20.43775 16.7232,37.06613 37.2716,37.06613 h 4.2836 v 22.16065 h -4.2836 c -32.8458,0 -59.5587,-26.57065 -59.5587,-59.22678 z m 302.5197,90.796253 v 79.94903 c 0,35.23258 28.8468,63.90548 64.2848,63.90548 35.4381,0 64.2849,-28.65709 64.2849,-63.90548 v -79.94903 h 22.2871 v 79.94903 c 0,47.45097 -38.8365,86.06613 -86.572,86.06613 -47.7355,0 -86.5719,-38.61516 -86.5719,-86.06613 V 137.24778 Z M 2091.4755,0.88552641 V 244.21004 c -0.6007,32.70354 -33.5097,59.03709 -60.3649,59.03709 h -26.9025 c -47.7355,0 -86.572,-38.59935 -86.572,-86.06613 0,-47.46677 38.8207,-86.08193 86.5562,-86.08193 l 64.9961,-0.079 V 0.88552641 Z M 1140.006,130.4352 c 47.7355,0 86.5719,38.61516 86.5719,86.08193 v 79.94903 h -22.287 v -79.94903 c 0,-35.24838 -28.831,-63.92129 -64.2849,-63.92129 -35.4539,0 -64.2848,28.67291 -64.2848,63.92129 v 79.94903 h -22.2871 v -79.94903 c 0,-47.46677 38.8364,-86.08193 86.5719,-86.08193 z m 461.1376,22.85613 c -35.4381,0 -64.2849,28.6729 -64.2849,63.92129 0,35.24838 28.8468,63.92129 64.2849,63.92129 35.438,0 64.2848,-28.67291 64.2848,-63.92129 0,-35.24839 -28.8468,-63.92129 -64.2848,-63.92129 z m 468.108,-0.11065 -65.0435,0.079 c -35.4381,0 -64.2849,28.6887 -64.2849,63.92128 0,35.23258 28.8468,63.90549 64.2849,63.90549 h 26.9025 c 16.3281,0 37.73,-18.08258 38.0778,-37.28742 l 0.073,-4.95216 c 0.098,-8.25413 0.1359,-19.57313 0.1391,-31.51807 v -7.09709 l -0.062,-27.23926 c -0.027,-7.80839 -0.06,-14.71581 -0.087,-19.81181 z"
     fill="#FFF"
     id="path1"
     style="fill:#000000;stroke-width:1.58065"
     sodipodi:nodetypes="sssssssssssccsssccsssccsscsssssssccccsccsscccssccsscccssccssscccssssccccssccsssccssscsssccsssccccccsc" />
  <path
     d="M 144.14,309.47 M 427.72,140.25 c 1.01,0 2.02,0.04 3.02,0.08 40.21,1.44 73.22,31.44 79.05,70.18 0.44481,2.9488 0.72524,5.92005 0.84,8.9 0.04,1.12 0.08,2.24 0.08,3.36 0,21.28 -8.15,40.71 -21.5,55.36 -1,1.11 -2.04,2.18 -3.11,3.23 -1.06246,1.03574 -2.14943,2.04602 -3.26,3.03 -14.67,12.98 -33.97,20.89 -55.11,20.89 -24.49,0 -46.52,-10.6 -61.72,-27.42 19.06,-19.2 31.38,-45.01 33.15,-73.63 0.09,-1.432 0.152,-2.876 0.186,-4.327 l 0.024,-1.453 c 0,-0.45 0.03,-0.88 0.03,-1.33 -0.004,-1.13937 -0.0294,-2.27857 -0.076,-3.417 l -0.044,-1.143 c -0.59,-15.2 -4.18,-29.65 -10.18,-42.8 9.97,-5.24 21.13,-8.5 32.96,-9.3 1.44,-0.1 2.88,-0.16 4.34,-0.18 z m -265.48,80.69 c 2.92,0 5.77,0.3 8.52,0.87 2.58,11.7 6.97,22.74 12.85,32.82 1.54455,2.64486 3.18907,5.23006 4.93,7.75 3.544,5.1 7.5,9.892 11.805,14.352 l 0.875,0.898 c -6.09,15.52 -21.25,26.56 -38.98,26.56 -11.92,0 -22.66,-5 -30.29,-12.97 -0.99,-1.03 -1.92,-2.12 -2.8,-3.25 -0.9,-1.15 -1.73,-2.35 -2.5,-3.6 -3.95,-6.35 -6.27,-13.8 -6.27,-21.8 0,-3.47 0.48,-6.82 1.29,-10.05 0.35,-1.43 0.79,-2.83 1.29,-4.2 0.51,-1.37 1.09,-2.71 1.73,-4.02 5.46,-11.05 15.69,-19.35 28.02,-22.22 1.41,-0.33 2.83,-0.59 4.29,-0.77 1.42,-0.18 2.86,-0.29 4.32,-0.32 0.31,-0.01 0.61,-0.05 0.92,-0.05 z M 283.72,90.72 c 0.83,0 1.65,0.04 2.48,0.06 15.38,0.36 29.96,3.93 43.09,10.1 h 0.02 c 2.6428,1.25339 5.23484,2.61112 7.77,4.07 17.1,9.82 31.24,24.19 40.7,41.46 0.68,1.25 1.33,2.54 1.97,3.82 0.65,1.31 1.26,2.64 1.86,3.98 6.02304,13.50306 9.13066,28.12455 9.12,42.91 0,0.92 -0.05,1.83 -0.07,2.74 -0.04,1.84 -0.14,3.68 -0.28,5.5 -0.14,1.83 -0.33,3.64 -0.56,5.44 -3.03,23.28 -13.64,44.22 -29.3,60.29 -1.03,1.06 -2.08,2.09 -3.15,3.1 -1.05,0.99 -2.11,1.96 -3.2,2.9 -18.83,16.42 -42.46,26.41 -70.44,26.41 -27.98,0 -53.48,-10.75 -72.57,-28.3 -1.24,-1.14 -2.46,-2.3 -3.64,-3.5 -1.29,-1.3 -2.55,-2.64 -3.77,-4.01 -3.24009,-3.62898 -6.23345,-7.47091 -8.96,-11.5 -6.40349,-9.49366 -11.21661,-19.96768 -14.25,-31.01 -0.49,-1.75 -0.93,-3.52 -1.32,-5.31 -0.36,-1.64 -0.68,-3.3 -0.96,-4.96 -0.99,-5.79 -1.53,-11.73 -1.53,-17.79 0,-22.97 7.38,-44.25 19.88,-61.66 0.84,-1.18 1.71,-2.34 2.6,-3.48 0.9,-1.15 1.82,-2.29 2.77,-3.41 5.67,-6.67 12.14,-12.64 19.28,-17.76 1.22,-0.87 2.45,-1.73 3.71,-2.55 1.25,-0.82 2.51,-1.62 3.79,-2.39 15.31858,-9.15562 32.68969,-14.32101 50.522,-15.023 L 280.66,90.8 c 1.02,-0.03 2.03,-0.08 3.06,-0.08 z M 76.439999,151.1 c 0.77,0 1.540001,0.04 2.3,0.06 -1.88008,7.35223 -2.83083,14.91119 -2.83,22.5 0,30.38 15.039997,57.32 38.090001,73.89 -1.52615,4.85368 -2.30177,9.91204 -2.3,15 0,10 2.96,19.32 8.04,27.15 -12.51517,8.60403 -27.314203,13.27553 -42.501,13.416 l -0.799001,0.004 C 34.289999,303.12 0,269.02 0,227.11 0,185.2 34.289999,151.1 76.439999,151.1 Z M 525.89,216.5 c 23.08,0 41.86,18.68 41.86,41.63 0,22.95 -18.78,41.62 -41.86,41.62 -12.62,0 -23.93,-5.61 -31.61,-14.42 15.54,-16.34 25.1,-38.35 25.1,-62.56 0,-1.91 -0.08,-3.8 -0.2,-5.68 2.19,-0.35 4.42,-0.59 6.71,-0.59 z M 167.58,91.14 c 1.96,0 3.9,0.1 5.83,0.23 1.07069,5.75808 2.73975,11.38861 4.98,16.8 0.56,1.35 1.15,2.68 1.78,3.99 0.62,1.31 1.28,2.61 1.97,3.88 2.46,4.53 5.34,8.81 8.56,12.8 -14.22,19.11 -22.65,42.73 -22.65,68.27 0,5.32 0.39,10.54 1.1,15.67 -2.28975,-0.31684 -4.59844,-0.47721 -6.91,-0.48 -0.67,0 -1.33,0.02 -1.99,0.05 -1.47,0.06 -2.91,0.18 -4.34,0.36 -1.44,0.19 -2.87,0.42 -4.28,0.72 -14.88,3.18 -27.34,12.88 -34.2,25.93 l -0.01,-0.02 C 97.479998,224.26 84.579996,200.43 84.579996,173.65 c 0.003,-8.81815 1.43095,-17.57788 4.23,-25.94 0.47,-1.39 0.97,-2.76 1.5,-4.11 6.07,-15.37 16.630004,-28.5 30.090004,-37.78 1.2,-0.82 2.42,-1.62 3.66,-2.39 1.26,-0.77 2.54,-1.52 3.84,-2.23 11.8,-6.41 25.32,-10.06 39.68,-10.06 z M 345.66,62.46 c 39.9,0 72.74,30.56 76.13,69.38 -12.76304,0.80387 -25.21504,4.27884 -36.55,10.2 h -0.01 c -10.54,-19.14 -26.4,-34.97 -45.58,-45.56 1.68719,-6.69935 2.54031,-13.58147 2.54,-20.49 0,-4.55 -0.37,-9.02 -1.07,-13.38 1.5,-0.09 3.01,-0.15 4.54,-0.15 z M 257.1,0 c 34.89,0 64.38,23.37 73.5,55.2 0.39,1.37 0.75,2.77 1.07,4.18 0.31,1.4 0.59,2.81 0.83,4.24 0.67,4.03 1.03,8.17 1.03,12.38 0,5.66 -0.65,11.18 -1.84,16.5 -11.92894,-5.42572 -24.69476,-8.78034 -37.75,-9.92 -1.95,-0.17 -3.92,-0.3 -5.9,-0.37 -1.44,-0.05 -2.87,-0.11 -4.32,-0.11 -0.51,0 -1.01,0.04 -1.51,0.04 -22.26,0.28 -43.02,6.85 -60.57,18 -1.29,0.82 -2.57,1.66 -3.83,2.53 -1.26,0.88 -2.51,1.77 -3.74,2.69 -6.51,4.89 -12.46,10.47 -17.8,16.6 -3.57373,-4.67746 -6.59698,-9.75087 -9.01,-15.12 -0.63,-1.4 -1.23,-2.82 -1.77,-4.26 -1.236,-3.2818 -2.2385,-6.64685 -3,-10.07 -0.33,-1.5 -0.63,-3.01 -0.88,-4.54 l 0.01,0.01 c -0.23,-1.47 -0.43,-2.95 -0.58,-4.45 -1.22954,-12.20921 0.54535,-24.53386 5.17,-35.9 0.59,-1.45 1.21,-2.89 1.88,-4.29 0.65,-1.35 1.34,-2.67 2.07,-3.98 C 203.2,15.91 228.31,0 257.1,0 Z m -99.79,35.18 c 8.11,0 15.65,2.44 21.95,6.6 -4.81029,10.76328 -7.29444,22.42072 -7.29,34.21 0,2.25 0.12,4.46 0.29,6.66 -1.16716,-0.0603 -2.33538,-0.098 -3.504,-0.113 L 167.57,82.53 c -16.27,0 -31.55,4.26 -44.81,11.68 -3.3,-5.76 -5.21,-12.4 -5.21,-19.49 0,-21.8 17.84,-39.54 39.76,-39.54 z"
     style="fill:#000000"
     id="path1-2" />
</svg>
