<?xml version="1.0" encoding="UTF-8" standalone="no"?>
<svg
   xml:space="preserve"
   width="2130.5786"
   height="397.3981"
   version="1.1"
   id="svg31"
   sodipodi:docname="Postfix.svg"
   inkscape:version="1.4.2 (ebf0e940d0, 2025-05-08)"
   xmlns:inkscape="http://www.inkscape.org/namespaces/inkscape"
   xmlns:sodipodi="http://sodipodi.sourceforge.net/DTD/sodipodi-0.dtd"
   xmlns="http://www.w3.org/2000/svg"
   xmlns:svg="http://www.w3.org/2000/svg"><defs
     id="defs31" /><sodipodi:namedview
     id="namedview31"
     pagecolor="#ffffff"
     bordercolor="#666666"
     borderopacity="1.0"
     inkscape:showpageshadow="2"
     inkscape:pageopacity="0.0"
     inkscape:pagecheckerboard="0"
     inkscape:deskcolor="#d1d1d1"
     inkscape:zoom="1.5777554"
     inkscape:cx="461.73189"
     inkscape:cy="189.82663"
     inkscape:window-width="1707"
     inkscape:window-height="852"
     inkscape:window-x="0"
     inkscape:window-y="0"
     inkscape:window-maximized="1"
     inkscape:current-layer="svg31" /><path
     fill="#555753"
     d="m 89.908526,104.16001 a 22,22 0 0 0 -0.808,-0.119 c -10.394,-1.797 -20.854,5.47 -23.936,15.357 -4.543,12.474 -0.258,26.812 8.881,36.044 5.314,6.197 14.241,10.282 22.307,7.388 a 24,24 0 0 0 1.17,-0.431 c 4.787004,15.24 11.329004,30.236 22.656004,41.6 4.563,4.277 10.567,8.352 17.152,7.571 5.323,-1.453 8.04,-7.006 9.226,-11.972 -8.987,-0.869 -14.789,-8.787 -19.759,-15.477 -7.085,-10.031 -12.202,-21.324 -16.017,-33.003 2.701,-4.217 6.27,-9.003 6.956,-13.881 0.891,-6.825 2.952,-17.323 -2.136,-22.041 -4.335,-7.082 -17.366004,-9.65 -25.692004,-11.036"
     id="path1" /><path
     fill="#b4b4b4"
     d="m 88.211526,108.41301 c -10.065,-1.625 -19.161,4.684 -21.648,15.979 -2.944,13.385 4.503,28.727 16.628,34.249 5.571,2.537 11.176,1.711 15.908,-1.218 2.711004,9.522 14.185004,45.475 34.345004,51.1 6.44,1.95 9.189,-6.614 9.189,-6.614 -10.186,-2.152 -25.487,-21.867 -34.444,-48.984 -0.183,-0.557 -4.134,2.975 -4.312,2.413 2.579,-4.853 7.869,-9.815 9.249,-15.219 2.947,-13.385 4.35,-20.667 -7.773,-26.192 -1.896,-0.862 -15.280004,-5.214 -17.144004,-5.517 z"
     id="path2" /><path
     fill="#8f5902"
     d="m 122.93053,0.1150093 c -5.899,-0.95 -11.36,4.137 -11.302,10.0139997 -16.510004,53.967 -33.606004,107.825001 -49.583004,161.914001 0.805,9.607 14.647,15.539 21.697,8.729 5.161,-11.095 7.062,-23.322 11.322,-34.825 13.561004,-44.884 28.199004,-89.579001 41.006004,-134.610001 -0.641,-6.4519997 -7.306,-10.3599997 -13.14,-11.2219997"
     id="path3" /><path
     fill="#fcaf3e"
     d="m 125.93053,4.6920093 c 4.367,1.669 7.182,5.3759997 6.285,8.2879997 L 81.728526,176.88801 c -0.896,2.91 -5.164,3.919 -9.531,2.253 -4.367,-1.667 -7.183,-5.378 -6.285,-8.288 L 116.39853,6.9440093 c 0.895,-2.91 5.162,-3.919 9.532,-2.252"
     id="path4" /><path
     fill="#555753"
     d="m 78.506526,95.027009 c -5.943,-0.823 -12.862,3.753 -13.442,9.674001 -0.562,2.755 1.158,6.009 1.639,8.511 -5.672,0.876 -10.952,6.61 -10.222,12.321 0.296,3.951 3.273,7.484 5.473,10.654 -3.281,5.706 -1.124,13.522 3.885,17.089 7.306,5.87 19.63,7.058 27.585,1.491 4.798,-3.496 5.657,-10.782 2.207,-15.505 -0.937,-1.712 -2.798,-2.96 -3.794,-4.441 0.392,-2.027 -0.402,-4.241 -0.617,-6.038 5.483,-2.755 7.373,-9.746 5.816,-15.383 -1.869,-8.964 -9.208,-17.099001 -18.53,-18.373001"
     id="path5" /><path
     fill="#b4b4b4"
     d="m 84.634526,101.31501 c -3.661,-2.772001 -9.977,-3.972001 -13.088,0.187 -6.259,12.359 3.487,16.001 11.006,23.033 -5.086,-1.301 -9.05,-6.317 -11.809,-7.315 -4.026,-1.463 -7.748,-0.522 -9.574,6.345 0.034,11.199 11.677,13.482 22.609,16.03 -5.772,2.764 -17.84,-2.764 -18.214,-2.202 -2.298,3.43 -0.871,8.619 2.211,11.258 6.164,5.791 16.508,8.002 23.714,2.845 4.972,-3.351 1.044,-16.055 -4.581,-13.363 2.769,-4.441 2.317,-9.582 -2.434,-12.291 5.973,1.47 10.503,-5.781 9.022,-10.783 -0.863,-5.535 -4.176,-10.623 -8.862,-13.744"
     id="path6" /><path
     fill="#b4b4b4"
     stroke="#555753"
     stroke-width="3.795"
     d="m 117.37653,122.21701 c -4.864,9.496 -13.947,14.818 -20.292004,11.888 -6.339,-2.932 -7.54,-13.005 -2.676,-22.501 4.861,-9.493 13.944004,-14.815001 20.288004,-11.888001 6.344,2.928001 7.54,13.004001 2.675,22.501001 z"
     id="path7" /><path
     fill="#555753"
     d="m 111.39053,10.293009 c 4.763,-2.8319997 18.176,-0.045 23.519,6.104 l 205.387,55.782 -23.578,74.760001 -205.947,-56.650001 c -4.97,-3.987 -15.974004,-6.458 -22.492004,-6.718 6.641,-24.575 13.997004,-47.932 23.111004,-73.278"
     id="path8" /><path
     fill="#ffffff"
     d="m 133.62653,20.815009 200.002,54.702 -20.346,65.553001 c -38.25,-11.272 -160.884,-43.257001 -199.134,-54.527001 z m -19.966,-5.17 c -8.926,22.765 -12.768,41.496 -19.214004,63.134 0.275,-1.676 15.985004,3.567 15.787004,4.803 1.312,0.837 21.075,-64.558 19.696,-65.434 0.001,-0.002 -10.134,-6.918 -16.269,-2.503"
     id="path9" /><path
     d="m 137.38253,63.666009 c 0.716,-3.538 1.661,-7.043 2.763,-10.479 17.276,-9.981 27.398,17.577 -2.763,10.479 m -6.523,11.373 c -0.04,0.4 0.881,0.868 1.26,0.999 0.491,0.167 1.592,0.17 2.075,-0.022 0.449,-0.18 1.442,-0.688 1.552,-1.16 0.482,-2.079 0.566,-4.486 0.813,-6.737 4.815,0.613 9.803,0.775 14.565,-0.278 20.929,-4.591 8.969,-29.541 -10.852,-18.974 -1.154,0.621 -5.047,2.87 -5.08,4.44 -0.18,7.08 -3.617,14.5 -4.333,21.732 m 58.135,-11.002 c 7.537,15.166 -14.295,28.972 -21.958,13.529 -7.564,-15.216 14.26,-29.043 21.958,-13.529 m -2.271,21.171 c 21.514,-11.37 4.914,-40.829 -16.986,-29.189 -21.559,11.457 -4.867,40.73 16.986,29.189 m 18.672,-12.35 c 3.928,-4.26 9.903,-4.758 15.163,-3.101 0,1.162 0.18,2.513 0.787,3.526 l 2.437,-0.254 1.751,-1.31 0.439,-4.563 c 0.479,-6.653 -24.801,-2.511 -27.005,5.886 -1.865,7.151 19.283,6.008 21.836,13.26 -2.663,5.358 -8.461,6.307 -13.854,4.862 -9.192,-2.464 -6.505,-7.12 -9.73,-9.402 -3.595,0.934 -1.795,10.931 4.823,12.891 9.111,2.69 32.458,-6.591 25.2,-13.7 -3.468,-3.396 -17.584,-5.358 -21.847,-8.095 m 49.755,5.801 c 5.939,-4.995 -25.062,-13.99 -23.956,-2.988 l 1.48,1.561 c 2.473,0.189 4.974,-0.15 7.429,-0.371 -2.145,8.428 -4.261,16.909 -5.91,25.455001 l 1.182,1.144 2.071,0.018 1.556,-1.03 c 1.023,-8.838001 2.696,-16.861001 5.542,-25.304001 2.509,0.461 8.476,2.045 10.606,1.515 m 21.942,16.392 0.298,-0.495 -0.682,-1.929 c -3.005,-3.563 -14.734,-3.726 -19.208,-3.57 l 1.602,-5.363 c 3.219,-0.482 16.789,0.84 17.658,-0.075 l -0.449,-2.317 c -4.447,-4.729 -13.049,-4.369 -19.103,-3.504 -2.555,2.509 -3.098,8.099 -3.877,11.512 -2.395,0.776 -2.657,2.935 -1.142,4.748 -1.014,4.082 -2.163,8.409001 -2.689,12.355001 -0.057,0.425 0.845,1.056 1.26,1.168 0.507,0.136 1.615,0.226 2.102,0.03 0.465,-0.188 1.469,-0.795 1.541,-1.292 0.583,-4.115 0.861,-8.216001 1.843,-12.260001 6.896,-0.52 14.304,1.831 20.846,0.992 m 1.864,18.883001 c 0.427,-0.192 1.411,-0.627 1.529,-1.081 2.498,-9.628 4.404,-18.315001 7.479,-28.057001 l -1.227,-1.446 c -6.971,-1.897 -10.376,28.871001 -9.84,30.536001 0.157,0.489 1.589,0.259 2.059,0.048 m 36.039,-21.564001 c 0.061,-0.52 -0.426,-1.529 -0.709,-1.97 -0.299,-0.465 -1.393,-1.361 -1.893,-1.131 -4.016,1.854 -9.764,7.26 -12.853,10.393 -0.833,-2.037 -5.077,-15.637 -5.897,-15.66 -0.501,-0.016 -1.502,0.394 -1.861,0.743 -0.373,0.361 -1.184,1.284 -1.057,1.787 0.824,3.271 3.943,12.283 5.709,16.271001 -3.922,3.93 -7.805,7.547 -11.547,12.021 -0.293,0.352 0.322,1.4 0.662,1.707 0.359,0.325 1.203,0.89 1.684,0.949 0.518,0.064 1.688,-0.026 2.052,-0.402 2.89,-2.983 5.749,-6.689 8.938,-9.866 1.007,2.416 4.696,11.554 5.873,12.544 0.42,0.354 1.65,-0.459 2.018,-0.865 0.395,-0.433 1.063,-1.429 1.236,-1.987 0.272,-0.88 -5.421,-11.58 -5.939,-12.769 1.696,-1.583 13.514,-11.178001 13.584,-11.765001"
     id="path10" /><path
     fill="#8f5902"
     d="m 312.40153,275.94201 c -5.947,0.298 -13.213,0.021 -17.365,5.021 -4.473,6.772 -2.844,15.45 -2.23,23.075 0.133,2.479 1.22,5.163 0.938,7.48 -7.805,9.375 -12.33,14.365 -19.897,23.927 7.534,10.2 19.446,22.676 31.779,27.02 0.984,-9.112 1.985,-18.227 2.897,-27.346 10.272,14.895 26.459,24.451 42.942,31.156 11.72,4.49 24.794,7.477 37.26,4.441 7.078,-2.106 12.996,-8.796 12.582,-16.448 0.015,-9.016 -3.95,-17.343 -6.992,-25.646 -9.604,-22.331 -28.702,-40.618 -52.042,-47.96 -9.59,-3.215 -19.727,-4.9 -29.872,-4.72"
     id="path11" /><path
     fill="#e9b96e"
     d="m 280.26653,333.21801 17.787,-20.95 c 0,0 -5.534,-24.51 0.792,-30.041 6.324,-5.533 80.636,-9.094 98.422,67.593 6.325,39.132 -81.822,9.487 -91.308,-28.854 0.79,-4.35 -3.163,32.41 -3.163,32.41 0,0 -14.23,-20.158 -22.53,-20.158"
     id="path12" /><path
     fill="#555753"
     d="m 433.44453,130.58301 c -21.237,0.32 -40.755,13.048 -52.673,30.068 -26.47,2.771 -34.2,10.75 -41.1,31.033 -11.392,4.354 -25.313,11.707 -21.283,25.728 -0.381,4.18 0.683,8.547 -1.126,12.488 -8.447,33.572 -7.097,70.156 6.511,102.179 2.519,5.313 5.98,11.681 12.336,12.735 9.143,1.722 17.945,-3.114 24.69,-8.833 4.559,-3.857 9.439,-7.577 15.303,-9.11 8.536,-3.302 19.014,-11.725 21.8,-20.928 2.828,-13.408 -4.231,-17.627 -16.104,-19.53 -14.763,-1.563 -30.433,9.688 -43.646,-8.878 5.805,-10.66 15.167,-27.436 21.703,-37.676 2.768,4.256 5.393,8.958 10.16,9.742 1.544,16.255 20.184,15.596 25.29,12.705 15.4,17.164 55.275,15.671 75.701,13.194 17.138,-3.21 35.775,-10.952 45.35,-26.01 23.843,-60.682 1.082,-79.734 -40.295,-106.47 -12.845,-7.507 -27.505,-12.767 -42.617,-12.437"
     id="path13" /><path
     fill="#f8eda6"
     d="m 434.08453,134.34401 c -26.179,0.367 -38.568,15.684 -45.096,24.25 0,0 16.984,-0.165 35.542,6.229 -47.716,-11.914 -83.558,14.892 -78.68,25.033 11.506,-4.757 41.473,0.585 39.416,1.497 -19.014,-0.083 -67.887,-1.724 -62.764,33.616 -17.33,58.135 3.354,112.35 12.298,115.705 31.942,7.41 32.46,-35.721 54.215,-42.793 5.875,2.125 -10.388,23.383 -15.361,25.954 -1.551,0.8 4.053,2.836 9.846,-5.188 18.03,-17.602 11.899,-31.583 -10.506,-28.51 -6.795,0.975 -20.847,1.71 -26.181,0.558 -0.888,1.238 13.522,4.748 9.707,7.697 0,0 -10.09,-3.146 -12.153,-8.067 0,0 -0.641,-0.452 -0.943,-0.691 2.904,10.841 14.618,17.773 14.618,17.773 -13.163,-1.317 -23.67,-24.606 -24.348,-29.897 0,0 25.834,-47.278 25.834,-43.367 3.328,11.396 18.232,16.363 32.261,9.563 0.063,-0.011 -4.028,6.732 -17.674,6.415 4.992,17.025 23.81,11.148 37.787,-4.857 0,0 -1.928,7.982 -13.521,15.341 14.91,12.27 84.625,26.274 111.708,-10.576 -7.525,1.074 -57.46,7.894 -55.712,-0.837 11.317,-17.608 -11.32,-75.463 -11.32,-75.463 -4.92,-7.428 32.511,-17.676 51.055,-13.254 a 163,163 0 0 0 -3.102,-2.522 c -22.41,-17.846 -41.392,-23.828 -56.926,-23.609 m 62.998,28.676 c 11.236,13.76 15.23,68.804 14.633,84.66 7.536,-11.62 11.104,-27.854 8.125,-50.103 -1.875,-13.997 -13.625,-26.521 -22.758,-34.557"
     id="path14" /><path
     fill="#555753"
     d="m 183.23153,118.53201 c -18.462,0.423 -34.813,13.49 -42.341,29.842 -5.273,10.854 -6.317,23.603 -4.469,35.327 -14.7,5.104 -26.682,17.582 -30.669,32.684 -17.634004,-1.969 -35.773004,-2.905 -53.212004,0.888 -6.899,1.461 -13.499,4.031 -19.797,7.107 -4.596,1.332 -9.864,0.688 -13.783,3.903 -3.74,2.53 -5.165,7.285 -4.339,11.601 1.357,8.339 7.994,14.495 14.243,19.585 10.712,8.243 24.796,11.729 38.2,9.657 19.874,-2.287 37.525004,-12.667 55.948004,-19.62 7.74,-2.342 16.112,-0.219 23.901,-2.527 3.545,-0.853 6.99,-2.255 10.033,-4.313 23.09,18.49 21.128,45.656 14.075,71.745 -7.002,-5.377 -13.604,-16.424 -22.084,-19.133 -15.815,4.509 -20.854,23.492 -30.497,38.218 4.324,3.333 6.525,1.236 10.809,4.624 6.706,-8.645 12.974,-18.217 19.716,-26.856 7.114,5.063 15.368,15.374 21.124,21.92 7.44,46.396 47.346,42.303 84.534,29.33 6.55,5.869 15.66,11.578 24.855,11.528 8.492,-1.119 9.949,-14.407 12.396,-26.409 -3.625,-4.796 -3.424,-5.488 -8.12,-8.415 -4.976,8.963 -3.905,12.324 -8.951,21.252 -0.974,-0.732 -9.491,-8.872 -7.971,-10.485 20.538,-43.33 8.29,-74.539 -26.822,-103.612 17.603,-9.512 38.994,-8.926 57.747,-3.509 1.051,0.521 3.545,0.65 3.6,1.56 -3.076,4.12 -5.905,9.998 -3.121,14.97 3.803,5.815 10.134,9.247 15.572,13.335 11.243,7.396 23.266,13.896 36.151,17.897 19.029,-0.64 18.737,-10.956 10.813,-22.168 3.865,-1.955 7.882,-7.41 2.671,-18.104 6.23,-15.263 -14.159,-27.133 -27.441,-28.534 -7.968,-0.41 -15.656,2.246 -23.238,4.12 -13.758,-1.604 -27.438,-3.597 -41.188,-5.354 17.104,-11.63 31.044,-29.405 34.238,-50.252 2.299,-15.281 -2.925,-32.495 -16.016,-41.448 -13.16,-9.159 -30.69,-9.081 -45.526,-4.338 -9.688,2.836 -18.836,7.407 -27.454,12.515 -7.547,-10.803 -20.034,-18.944 -33.587,-18.531"
     id="path15" /><path
     fill="#b4b4b4"
     d="m 183.25353,122.31701 c -25.772,0.354 -50.874,29.855 -42.175,63.931 -22.205,5.553 -32.323,26.979 -32.119,34.253 -58.696004,-7.268 -70.982004,7.277 -77.690004,8.396 -1.677,0 -19.545,-0.563 -10.601,16.767 35.217,46.397 89.872004,-1.827 108.996004,-1.132 16.429,0.597 21.408,-4.303 24.313,-6.213 11.632,-12.704 9.588,-14.631 14.388,-21.943 l 12.071,-15.822 c 3.056,0.938 -4.179,16.947 -9.915,20.187 -1.676,4.624 -12.941,17.624 -12.346,18.217 30.854,24.938 18.944,57.271 14.142,89.663 -0.396,-0.335 -0.867,-10.075 -1.258,-10.397 -12.888,-10.703 -21.81,-19.188 -21.81,-19.188 -8.393,-1.872 -18.821,20.104 -26.521,33.298 l 4.91,2.1 21.24,-28.279 c 0,0 17.12,17.78 24.388,26.727 11.729,54.201 65.433,31.524 78.069,26.772 0.978,-0.367 -7.488,-10.298 -7.535,-12.705 9.271,10.261 19.054,21.382 34.479,24.827 7.97,0 11.407,-26.901 11.407,-26.901 -1.007,-2.237 -2.489,-3.714 -4.255,-4.74 l -9.139,25.295 c -5.206,-2.395 -20.563,-20.267 -23.33,-25.284 0.23,-0.42 11.006,8.764 11.228,8.345 27.178,-51.073 -13.563,-89.24 -27.063,-99.536 -0.508,-0.388 -10.205,5.157 -10.63,4.847 -1.367,-0.983 6.94,-7.449 6.643,-7.581 31.86,-22.274 76.53,-3.906 74.297,-3.349 0,0 -9.689,10.488 -5.707,15.174 10.615,12.489 43.201,28.194 49.301,29.006 12.757,0.038 12.797,-7.008 9.085,-13.288 -2.138,-3.609 -6.104,-6.136 -8.539,-8.694 16.288,2.376 12.916,-12.17 4.131,-16.359 0.056,-0.609 5.448,0.431 5.48,-0.173 -0.835,-25.517 -29.343,-25.249 -47.052,-18.493 l -53.531,-7.133 c 68.65,-37.87 47.397,-120.297 -23.438,-91.875 -26.731,7.592 -37.669,39.88 -39.676,66.985 -0.455,-1.95 -1.891,-10.075 -2.113,-11.934 -25.241,-15.153 -35.013,-7.405 -52.021,5.149 19.52,-27.827 40.65,-17.047 53.07,-7.84 -0.943,-16.589 6.99,-29.698 17.323,-44.076 -1.906,-8.156 -19.619,-17.153 -30.497,-17.004 m 84.318,29.514 c 9.237,0.05 16.646,4.681 17.851,17.438 -8.736,-27.849 -54.7,-2.974 -60.829,20.608 18.178,-8.263 16.512,21.617 -0.637,15.603 1.738,6.731 8.521,7.2 20.458,2.19 -34.099,19.034 -31.503,-18.224 -15.505,-37.767 7.74,-8.426 25.16,-18.143 38.662,-18.072 m -61.89,72.573 c 15.854,5.21 20.154,7.37 43.98,0 -12.828,5.522 -30.084,10.157 -36.283,17.002 l 3.295,-7.755 z"
     id="path16" /><path
     fill="#8f5902"
     d="m 52.468526,299.26501 c -6.436,0.579 -13.715,-0.137 -19.137,3.771 -12.5,9.003 -15.558,27.935 -9.008,41.777 5.887,13.275 18.124,22.305 30.396,29.355 16.078,8.826 33.734,14.479 51.408004,19.234 9.468,2.311 19.191,4.41 28.994,3.926 4.62,-0.42 9.969,-3.195 10.412,-8.322 0.695,-6.076 -2.976,-11.366 -4.694,-16.97 -3.028,-7.675 -6.34,-15.233 -9.574,-22.824 q 6.468,-5.408 12.938,-10.813 c -5.83,-7.45 -12.277,-15.76 -22.026,-17.852 -4.017,-1.229 -7.991,1.935 -8.913,6.012 -0.424,1.873 -1.146,3.662 -1.648,5.519 -12.749004,-19.709 -35.154004,-33.813 -59.148004,-32.813"
     id="path17" /><path
     fill="#555753"
     d="m 107.42653,218.95501 c 1.958,3.946 6.59,7.078 11.06,5.424 7.541,16.843 30.997,4.488 34.883,-10.006 3.83,-14.293 5.396,-33.063 -13.277,-27.914 -12.746,-17.221 -39.753,13.043 -32.666,32.496"
     id="path18" /><path
     fill="#ffffff"
     d="m 109.67053,196.87501 c -6.473,7.17 -1.849,31.207 10.354,24.431 3.748,19.008 26.143,5.476 29.502,-7.072 6.757,-25.205 -3.41,-27.46 -10.43,-23.577 -6.682,3.698 -12.487,10.837 -18.13,26.697 1.547,-10.5 8.729,-25.735 16.214,-28.89 -4.389,-8.65 -22.804,0.971 -27.51,8.411"
     id="path19" /><path
     d="m 138.53053,212.69401 c -1.862,-0.095 -3.583,2.09 -3.865,4.864 -0.282,2.771 0.971,5.103 2.835,5.196 1.862,0.098 3.584,-2.09 3.865,-4.86 0.009,-0.088 -0.009,-0.166 0,-0.253 a 2.04,2.04 0 0 1 -1.549,0.671 c -1.098,0 -2.01,-0.709 -2.01,-1.594 0,-0.887 0.912,-1.596 2.01,-1.596 0.552,0 1.032,0.172 1.395,0.461 -0.397,-1.646 -1.373,-2.822 -2.681,-2.889 m -19.32,-6.528 c -1.521,-0.067 -2.88,2.14 -3.063,4.915 -0.181,2.778 0.876,5.09 2.396,5.159 1.517,0.07 2.879,-2.138 3.061,-4.916 0.005,-0.087 -0.007,-0.166 -0.005,-0.251 -0.288,0.403 -0.708,0.682 -1.245,0.692 -0.894,0.015 -1.646,-0.683 -1.663,-1.565 -0.014,-0.883 0.718,-1.604 1.609,-1.621 0.446,-0.007 0.84,0.157 1.14,0.442 -0.352,-1.644 -1.166,-2.808 -2.23,-2.855"
     id="path20" /><path
     fill="#a40000"
     d="m 170.45853,220.81601 c -1.199,2.053 -2.858,5.707 -4.357,6.688 14.59,15.843 16.445,50.523 37.654,30.227 16.354,-20.042 -14.708,-39.268 -28.881,-42.092 -3.258,1.496 -2.179,2.232 -4.416,5.177"
     id="path21" /><path
     fill="#ef2929"
     d="m 173.59853,216.60401 c -0.674,0.108 -1.31,1.182 -3.22,4.368 11.764,-2.284 17.289,11.65 15.8,11.838 l -16.133,-11.424 c -2.214,2.878 -3.964,5.979 -4.193,5.979 13.523,6.325 18.465,37.029 27.247,32.667 13.237,-6.574 16.495,-29.063 -18.582,-43.32 -0.04,-0.009 -0.869,-0.115 -0.919,-0.108"
     id="path22" /><path
     d="m 39.860526,213.43801 c 3.013,16.664 -3.307,31.171 -14.105,32.399 -10.8,1.23 -21.9959997,-11.278 -25.00599968,-27.943 -3.00800002,-16.665 3.30799998,-31.171 14.10499968,-32.402 10.801,-1.23 21.998,11.281 25.006,27.946"
     id="path23" /><path
     fill="#e9b96e"
     d="m 111.13353,338.39001 c 0,0 -22.698004,-44.17 -72.582004,-33.723 -7.701,1.613 -50.682,53.141 65.220004,84.195 36.354,9.74 39.135,2.769 37.946,-3.163 -1.187,-5.93 -15.02,-37.55 -15.02,-37.55 l 12.253,-10.275 c 0,0 -11.463,-15.813 -20.558,-13.438 -1.156,1.158 -3.278,8.05 -4.459,12.634 -0.162,0.63 4.688,11.24 4.541,11.812 -0.596,2.351 -7.341,-10.492 -7.341,-10.492"
     id="path24" /><path
     fill="#c17d11"
     d="m 35.871526,313.01701 c 15.521,-8.013 34.328,31.997 58.479,48.738 19.673004,13.634 40.836004,20.98 39.935004,27.979 -17.04,6.901 -137.4800037,-28.581 -98.414004,-76.717"
     opacity="0.6"
     id="path25" /><path
     fill="#ffffff"
     d="m 22.896526,208.86601 c 0,8.242 -4.177,14.924 -9.33,14.924 -5.1499997,0 -9.3269997,-6.681 -9.3269997,-14.924 0,-8.243 4.177,-14.924 9.3269997,-14.924 5.153,0 9.33,6.682 9.33,14.924"
     opacity="0.4"
     id="path26" /><path
     fill="#ffffff"
     d="m 42.333526,226.40401 c -0.287,0.244 -1.205,7.903 -0.333,7.555 14.815,-5.929 37.775,-10.72 65.345004,-11.674 -5.461,-1.366 -42.128004,-7.041 -65.012004,4.119"
     id="path27" /><path
     fill="#555753"
     d="m 104.37453,194.53701 c 0,0 -10.696004,11.605 -0.229,20.479 -2.729,-7.509 -2.274,-15.701 0.229,-20.479"
     id="path28" /><path
     fill="#ffffff"
     d="m 490.88153,162.76001 c -14.844,0.225 -30.037,2.504 -43.155,9.702 -0.794,0.438 -2.004,1.521 -1.038,2.467 7.215,20.263 14.034,41.22 13.82,62.975 a 38.2,38.2 0 0 1 -2.582,11.391 c 3.885,1.354 8.146,0.904 12.203,1.19 12.957,0.04 25.952,-1.771 38.695,-3.371 -0.271,-1.76 -0.217,-3.552 -0.157,-5.365 -0.438,-21.338 -2.72,-42.771 -8.013,-63.425 -1.6,-5.203 -3.276,-10.844 -7.3,-14.738 -0.709,-0.52 -1.58,-0.88 -2.473,-0.826"
     id="path29" /><path
     fill="#555753"
     d="m 470.95753,240.82501 c -0.643,-2.438 -0.34,-6.908 -0.34,-6.908 0,0 14.494,-3.8 11.287,-4.412 l -12.464,-3.13 c -1.183,-2.624 0.54,-6.825 0.54,-6.825 0,0 19.569,-0.044 26.527,-0.441 1.724,2.866 -0.574,4.754 -0.574,4.754 -4.521,0.26 -15.451,0.332 -19.973,0.592 l 13.854,3.471 c 0.419,6.085 -8.467,5.028 -12.082,7.988 5.874,-0.338 13.438,2.004 20.826,2.004 3.667,0.732 1.065,5.203 0.027,4.995 -6.507,0.369 -21.874,-1.331 -27.628,-2.088 m 19.36,-37.304 c 0.568,2.357 -0.271,5.168 1.437,7.149 2.044,0.566 5.171,1.147 4.357,4.233 -2.825,2.8 -28.271,-3.859 -28.271,-3.859 -3.699,-2.299 -0.04,-5.88 3.609,-7.095 5.628,-1.87 16.128,-4.353 22.778,-6.623 1.425,2.959 -0.408,6.576 -3.91,6.195 m -4.525,6.692 c 0.861,-2.938 0.073,-5.418 0.073,-5.418 -1.217,0.435 -12.064,2.275 -10.994,3.37 2.887,0.559 8.031,1.492 10.921,2.048 m -21.401,-13.13 c -1.976,-3.037 4.521,-5.036 4.521,-5.036 6.617,-0.38 15.12,-1.699 21.737,-2.081 1.977,3.036 -3.203,5.411 -3.203,5.411 -6.621,0.38 -16.439,1.326 -23.055,1.706 m -0.614,-10.363 c -3.361,-7.494 16.104,-5.521 21.034,-5.897 0.474,-2.804 -5.59,-12.144 -1.996,-13.729 4.271,-0.109 6.582,17.236 5.806,18.285 -7.777,0.447 -17.062,0.893 -24.844,1.341"
     id="path30" /><path
     fill="#ffffff"
     d="m 203.30353,181.93601 c -0.287,0.246 -0.7,8.421 -0.333,7.557 15.263,-35.944 38.89,-59.3 69.458,-61.032 -27.14,0.967 -56.691,3.633 -69.125,53.475"
     id="path31" /><text
     xml:space="preserve"
     style="font-size:512.258px;line-height:1.25;font-family:'Noto Sans';-inkscape-font-specification:'Noto Sans';letter-spacing:0px;word-spacing:0px;stroke-width:25.6129"
     x="510.30743"
     y="391.87704"
     id="text31"><tspan
       sodipodi:role="line"
       id="tspan31"
       x="510.30743"
       y="391.87704"
       style="stroke-width:25.6129">Postfix</tspan></text></svg>
