<?xml version="1.0" encoding="UTF-8" standalone="no"?>
<svg
   version="1.1"
   viewBox="0 0 151.87107 23.8"
   width="480.92505"
   height="75.366669"
   id="svg1"
   sodipodi:docname="Python AIOHTTP.svg"
   inkscape:version="1.3.2 (091e20ef0f, 2023-11-25, custom)"
   xmlns:inkscape="http://www.inkscape.org/namespaces/inkscape"
   xmlns:sodipodi="http://sodipodi.sourceforge.net/DTD/sodipodi-0.dtd"
   xmlns="http://www.w3.org/2000/svg"
   xmlns:svg="http://www.w3.org/2000/svg">
  <defs
     id="defs1" />
  <sodipodi:namedview
     id="namedview1"
     pagecolor="#ffffff"
     bordercolor="#666666"
     borderopacity="1.0"
     inkscape:showpageshadow="2"
     inkscape:pageopacity="0.0"
     inkscape:pagecheckerboard="0"
     inkscape:deskcolor="#d1d1d1"
     inkscape:zoom="1.0246711"
     inkscape:cx="278.13804"
     inkscape:cy="33.669342"
     inkscape:window-width="1707"
     inkscape:window-height="844"
     inkscape:window-x="0"
     inkscape:window-y="0"
     inkscape:window-maximized="1"
     inkscape:current-layer="svg1" />
  <path
     d="M 0,11.9 A 11.92,11.92 0 0 1 11.9,0 11.92,11.92 0 0 1 23.8,11.9 11.92,11.92 0 0 1 11.9,23.8 11.92,11.92 0 0 1 0,11.9 Z m 11.9,10.91 a 10.86,10.86 0 0 0 6.753,-2.347 l -0.3006,-0.6508 a 0.7399,0.7399 0 0 1 -0.2315,0.03695 0.7408,0.7408 0 0 1 -0.7405,-0.7405 0.7399,0.7399 0 0 1 0.3556,-0.6316 l -0.7156,-1.55 a 1.233,1.233 0 0 1 -0.379,0.05968 1.235,1.235 0 0 1 -1.151,-0.787 l -2.454,0.6275 q 0,0.0057 0,0.01168 a 0.7408,0.7408 0 0 1 -0.7421,0.738 0.7405,0.7405 0 0 1 -0.7402,-0.7405 0.7427,0.7427 0 0 1 0.02053,-0.174 l -3.444,-1.481 a 1.234,1.234 0 0 1 -1.07,0.618 1.242,1.242 0 0 1 -0.1974,-0.01579 l -0.7418,2.569 a 0.7408,0.7408 0 0 1 0.396,0.6556 0.7412,0.7412 0 0 1 -0.5646,0.7197 l 0.05179,1.348 a 10.84,10.84 0 0 0 5.895,1.734 z M 5.701,20.874 5.65742,19.741 a 0.7408,0.7408 0 0 1 -0.6205,-0.731 0.7405,0.7405 0 0 1 0.7402,-0.7405 q 0.03158,0 0.06,0.0025 l 0.7418,-2.569 a 1.235,1.235 0 0 1 -0.7522,-1.137 l -4.634,-0.5615 a 10.94,10.94 0 0 0 4.509,6.869 z m 13.19,-0.6032 a 10.99,10.99 0 0 0 2.716,-3.392 l -3.793,-0.745 a 1.238,1.238 0 0 1 -0.5239,0.6663 l 0.7263,1.574 a 0.7472,0.7472 0 0 1 0.1052,-0.0076 0.7405,0.7405 0 0 1 0.7405,0.7402 0.739,0.739 0 0 1 -0.2526,0.5558 z m 2.854,-3.667 a 10.84,10.84 0 0 0 1.068,-4.705 10.86,10.86 0 0 0 -2.471,-6.906 l -1.499,0.511 a 0.7421,0.7421 0 0 1 0.02053,0.174 0.7405,0.7405 0 0 1 -0.7405,0.7405 0.7408,0.7408 0 0 1 -0.6764,-0.4386 l -3.116,1.062 A 2.472,2.472 0 0 1 14.42,7.702 2.466,2.466 0 0 1 13.324,9.755 l 2.832,4.86 a 1.232,1.232 0 0 1 0.4854,-0.09916 1.234,1.234 0 0 1 1.235,1.234 q 0,0.04611 -0.0035,0.09158 z m -8.772,-0.06663 2.444,-0.625 a 1.247,1.247 0 0 1 -0.01042,-0.1601 1.232,1.232 0 0 1 0.4926,-0.9868 l -2.832,-4.859 a 2.458,2.458 0 0 1 -1.117,0.2665 2.457,2.457 0 0 1 -1.306,-0.3748 l -2.747,3.858 a 1.232,1.232 0 0 1 0.3995,0.9092 1.236,1.236 0 0 1 -0.04863,0.3436 l 3.454,1.484 a 0.7393,0.7393 0 0 1 0.5937,-0.2981 0.7408,0.7408 0 0 1 0.6777,0.4405 z m -7.109,-2.265 a 1.235,1.235 0 0 1 1.2,-0.9395 1.229,1.229 0 0 1 0.5943,0.1522 l 2.747,-3.857 a 2.463,2.463 0 0 1 -0.9221,-1.924 2.459,2.459 0 0 1 0.6114,-1.626 l -3.671,-3.612 a 10.92,10.92 0 0 0 -5.434,9.433 10.93,10.93 0 0 0 0.1484,1.8 z m 8.368,-7.509 3.148,-1.074 q 0,-0.00537 0,-0.01074 a 0.7408,0.7408 0 0 1 0.7405,-0.7405 0.7396,0.7396 0 0 1 0.593,0.2968 l 1.421,-0.4844 A 10.89,10.89 0 0 0 11.9015,0.98732998 10.84,10.84 0 0 0 6.6915,2.31333 l 3.61,3.551 a 2.459,2.459 0 0 1 1.649,-0.6316 2.47,2.47 0 0 1 2.284,1.528 z"
     style="fill:#2c5bb4"
     id="path1" />
  <text
     xml:space="preserve"
     style="font-style:normal;font-variant:normal;font-weight:normal;font-stretch:normal;font-size:29.0195px;line-height:1.25;font-family:'Liberation Sans';-inkscape-font-specification:'Liberation Sans';letter-spacing:0px;word-spacing:0px;fill:#2c5bb4;fill-opacity:1;stroke-width:0.201524"
     x="27.6455"
     y="21.91881"
     id="text1"><tspan
       sodipodi:role="line"
       id="tspan1"
       style="font-style:normal;font-variant:normal;font-weight:normal;font-stretch:normal;font-family:'Liberation Sans';-inkscape-font-specification:'Liberation Sans';fill:#2c5bb4;fill-opacity:1;stroke-width:0.201524"
       x="27.6455"
       y="21.91881">AIOHTTP</tspan></text>
</svg>
