<?xml version="1.0" encoding="UTF-8" standalone="no"?>
<svg
   width="173.31635"
   height="41.66761"
   preserveAspectRatio="xMidYMid"
   version="1.1"
   id="svg1"
   sodipodi:docname="Python Flask.svg"
   inkscape:version="1.4 (e7c3feb100, 2024-10-09)"
   xmlns:inkscape="http://www.inkscape.org/namespaces/inkscape"
   xmlns:sodipodi="http://sodipodi.sourceforge.net/DTD/sodipodi-0.dtd"
   xmlns="http://www.w3.org/2000/svg"
   xmlns:svg="http://www.w3.org/2000/svg">
  <defs
     id="defs1" />
  <sodipodi:namedview
     id="namedview1"
     pagecolor="#ffffff"
     bordercolor="#666666"
     borderopacity="1.0"
     inkscape:showpageshadow="2"
     inkscape:pageopacity="0.0"
     inkscape:pagecheckerboard="0"
     inkscape:deskcolor="#d1d1d1"
     inkscape:zoom="6.0280853"
     inkscape:cx="91.48842"
     inkscape:cy="24.468798"
     inkscape:window-width="1707"
     inkscape:window-height="852"
     inkscape:window-x="0"
     inkscape:window-y="0"
     inkscape:window-maximized="1"
     inkscape:current-layer="svg1" />
  <path
     d="m 13.958644,37.11561 c -1.78,-1.4 -3.677,-2.74 -4.9739999,-4.63 -2.73,-3.332 -4.83,-7.2 -6.268,-11.245 -0.87,-2.637 -1.166,-5.463 -2.28599997,-7.998 -1.1700001,-1.84 0.202,-3.8530007 2.21799997,-4.4380007 0.897,-0.173 2.476,-1.02 0.57,-0.414 -1.7,1.253 -1.873,-1.138 -0.122,-1.3 1.196,-0.16 1.636,-1.137 1.226,-2.017 -1.284,-0.838 3.112,-1.756 0.9,-3.006 -2.303,-2.48499995 3.222,-2.96399995 1.86,-0.14 -0.326,2.17 3.8619999,-0.4 2.9,2.108 0.9879999,1.204 3.6999999,0.275 3.6299999,1.963 1.44,0.1 1.933,1.3 3.282,1.402 1.4,0.632 3.938,1.13 4.413,2.7069997 -1.4,1.1 -4.603,-2.2699997 -4.758,0.772 0.42,4.496001 0.313,9.127001 1.957,13.407001 0.778,2.592 2.664,4.632 4.367,6.65 1.63,1.977 3.837,3.37 6.088,4.54 1.974,0.93 4.1,1.547 6.252,1.935 0.872,-0.667 2.412,-3.148 3.773,-2.102 0.066,1.177 -2.7,2.458 -0.13,2.328 1.5,-0.456 2.557,1.167 3.8,-0.297 1.145,1.357 4.76,-0.866 3.946,1.907 -1.102,0.7 -2.7,0.28 -3.813,1.26 -1.82,-0.9 -3.268,0.812 -5.283,0.595 -2.237,0.4 -4.514,0.562 -6.782,0.565 -3.722,-0.294 -7.522,-0.418 -11.062,-1.713 -1.995,-0.58 -3.94,-1.716 -5.694,-2.852 z m 3.143,1.363 c 1.947,0.84 3.852,1.73 5.986,1.997 3.386,0.47 6.883,1.196 10.28,0.535 -1.538,-0.694 -3.128,0.27 -4.66,-0.496 -1.837,0.395 -3.8,-0.1 -5.678,-0.346 -2.124,-0.946 -4.417,-1.596 -6.406,-2.825 -2.487,-0.908 1.285,1.165 1.957,1.333 1.554,0.882 -1.7,-0.452 -2.17,-0.82 -1.302,-0.73 -1.467,-0.578 -0.13,0.163 0.27,0.158 0.536,0.323 0.818,0.458 z m -3.706,-2.62 c 1.888,0.7 -0.008,-1.327 -0.872,-1.2 -0.383,-0.665 -1.464,-1.085 -0.702,-1.44 -1.37,0.476 -1.437,-1.8 -2.0799999,-1.483 -1.45,-0.458 -0.564,-2.08 -2.293,-3.078 -0.158,-1.05 -1.717,-1.96 -2.213,-3.544 -0.22,-0.8 -1.762,-3.14 -0.815,-0.973 0.806,2.086 2.225,3.873 3.406,5.657 0.916,1.7 2,3.476 3.6699999,4.535 0.563,0.54 1.106,1.367 1.9,1.537 z m -5.4359999,-5.97 c 0.065,-0.285 0.345,0.617 0,0 z m 7.6969999,6.807 c 0.418,-0.187 -0.6,-0.236 0,0 z m 1.024,0.374 c -0.106,-0.516 -0.468,0.3 0,0 z m 1.283,0.535 c 0.6,-0.58 -0.94,-0.367 0,0 z m 2.198,1.225 c 0.37,-0.548 -1.187,-0.206 0,0 z m -4.22,-2.942 c 0.947,-0.613 -1.225,-0.01 0,0 z m 0.962,0.48 c -0.027,-0.323 -0.342,0.145 0,0 z m 4.807,3 c 0.773,0.488 4.514,1.07 2.172,0.2 -0.393,0.082 -4.343,-1.118 -2.172,-0.2 z m -7.63,-5.944 c -0.075,-0.324 -1.2,-0.36 0,0 z m 2.237,1.305 c 0.583,-0.407 -1.2,-0.314 0,0 z m 1.883,1.154 c 0.836,-0.315 -1.355,-0.316 0,0 z m -5.032,-3.45 c 0.907,0.696 3.658,0.1 1.4,-0.415 -1.032,-0.55 -3.36,-0.927 -1.773,0.332 l 0.384,0.083 z m 6.307,3.85 c 0.378,-0.643 -1.585,-0.368 0,0 z m -1.916,-1.523 c 2.217,0.626 -1.865,-1.403 -0.547,-0.232 l 0.292,0.133 0.255,0.1 z m 3.842,2.22 c 2.1,0.02 -1.897,-0.3 0,0 z m -9.04,-5.762 c -0.082,-0.4 -0.518,0.032 0,0 z m 12.593,7.754 c 0.056,-0.706 -0.685,0.526 0,0 z m -9,-5.56 c -0.128,-0.372 -0.656,-0.016 0,0 z m -3.385,-2.44 c 1.205,-0.073 -1.65,-0.53 0,0 z m -3.9999999,-2.592 c -0.15,-0.58 -1.3,-1.04 0,0 z m 10.5269999,6.68 c -0.22,-0.252 -0.104,0.055 0,0 z m 6.552,4.02 c -0.02,-0.385 -0.357,0.145 0,0 z m -7.13,-4.62 c 0.118,-0.496 -1.028,-0.15 0,0 z m -4.88,-3.094 c 0.897,-0.096 -1.438,-0.606 0,0 z m 8.257,5.13 c 1.398,-0.554 -1.363,-0.27 0,0 z m -4.294,-2.915 c 1.6,0.207 -1.917,-1.097 -0.354,-0.117 z m 5.598,3.442 c 1.505,-0.898 1.008,2.106 2.552,0.254 1.522,-1.112 -1.315,1.375 0.56,0.198 1.358,-0.908 3.362,0.43 4.628,0.866 0.9,-0.044 1.796,0.787 2.73,0.28 1.797,-0.484 -3.515,-0.718 -2.123,-1.576 -1.644,0.48 -2.86,-0.57 -3.668,-1.624 -1.845,-0.426 -3.977,-1.37 -4.898,-3.002 -0.376,-0.612 0.542,0.087 -0.324,-0.915 -1.1,-0.988 -1.666,-2.1 -2.412,-3.312 -0.9,-0.475 -0.996,-1.875 -1.086,-0.046 0.007,-1.154 -1.076,-1.93 -1.34,-1.608 -0.005,-1.1 1.16,-0.554 0.345,-1.376 -0.175,-1.152 -0.753,-2.352 -0.926,-3.652 -0.27,-0.626 -0.038,-1.97 -0.92,-0.55 -0.32,1.5 -0.106,-1.842 0.394,-0.74 0.656,-1.124 -0.236,-1 -0.272,-0.836 0.427,-0.948 0.27,-2.295 -0.112,-1.78 0.228,-1.006 0.36,-3.7 -0.34,-3.223 0.425,-1.052 0.805,-4.8130007 -1.04,-3.380001 -0.747,0.01 -2.04,0.270001 -2.652,0.575001 1.917,1.057 -0.193,0.382 -0.975,0.214 -0.1,0.978 -0.875,0.556 -1.8399999,0.565 1.5439999,0.2 -0.752,1.58 -1.636,1.04 -1.15,0.55 1,1.92 0.023,2.346 0.12,0.638 -1.76,-0.23 -1.614,1.246 -1.116,-0.47 -0.153,1.75 0.406,1 1.898,0.514 1.336,1.685 1.384,2.798 -0.3,0.648 -1.527,-1.524 -0.27,-1.423 -1,-1.6 -1.096,-0.582 -1.92,0.166 -0.2,0.054 2.1,1.064 0.662,1.563 1.265,0.196 1.302,1.303 1.56,2.003 0.76,0.792 0.604,-0.875 1.514,0.078 -0.576,-0.85 -3.05,-2.4 -1.058,-1.896 -0.01,-0.853 -0.36,-1.542 0.25,-1.525 0.605,-1.094 -0.634,2.7 0.73,1.308 0.377,-0.165 0.47,-1.095 1.1499999,0.088 0.984,0.97 0.356,1.67 -1.0329999,0.783 0.248,0.844 1.8579999,1.144 1.5549999,2.463 0.32,1.16 0.77,0.732 1.16,0.666 0.307,1.126 0.48,0.298 0.495,-0.24 1.404,0.3 1.075,1.13 1.515,1.7 0.968,0.436 -1.385,-2.96 0.276,-1.02 1.748,1.58 0.656,2.237 -0.913,1.984 0.993,-0.08 1.312,1.342 2.554,1.292 1.132,0.54 1.9,2.608 -0.053,1.747 -0.677,-0.6 -3.074,-1.364 -1.116,-0.203 1.806,0.838 3.243,1.338 4.986,2.4 1.247,0.9 1.786,1.9 2.258,2.112 -1.05,0.5 -3.16,-0.4 -1.592,-0.675 -0.978,-0.178 -2.078,-0.673 -1.142,0.545 0.797,0.666 2.822,0.595 3.186,0.67 -0.308,0.678 -0.836,0.732 0.012,0.784 -0.946,0.505 0.304,0.583 0.4,0.87 z m -1.935,-5.466 c -0.576,-0.603 -0.725,-1.73 -0.103,-0.75 0.32,0.13 1.023,1.844 0.103,0.75 z m 6.304,4.004 c 0.36,-0.024 0.01,0.273 0,0 z m -7.213,-5.48 c -0.023,-0.9 0.207,0.703 0,0 z m -0.626,-0.842 c -0.725,-1.4 0.913,0.396 0,0 z m -7.593,-5.24 c 0.426,-0.114 0.2,0.728 0,0 z m 6.044,3.275 c 0.26,-0.982 0.307,0.823 0,0 z m -4.27,-2.97 c -0.3,-0.542 0.63,0.5 0,0 z m 3.663,1.174 c -0.686,-1.537 0.487,-0.84 0.153,0.252 z m -6.318,-4.213 c -0.307,-0.505 -0.814,-1.984 -0.65,-2.436 0.147,0.736 1.564,3.167 0.694,1.007 -0.96,-1.8 1.15,0.587 1.366,1.04 0.1,0.45 -0.593,-0.123 -0.123,0.93 -0.858,-1.2 -0.506,0.662 -1.287,-0.54 z m -1.9519999,-1.346 c 0.08,-1.173 0.446,0.804 0,0 z m 0.8779999,0.303 c 0.42,-0.885 0.7,1.234 0,0 z m -2.1129999,-1.634 c -0.727,-0.723 -1.253,-1.4 0.035,-0.45 0.495,0.02 -1.102,-1.514 0.12,-0.487 1.284,0.234 0.634,2.106 -0.154,0.936 z m 1.1,-0.03 c 0.422,-0.42 0.224,0.412 0,0 z m 0.684,0.218 c -0.64,-1.2 0.7769999,0.503 0,0 z m -1.358,-1.297 c -2.113,-1.882 2.6549999,0.983 0.345,0.348 z m 6.0549999,3.517 c -0.915,-0.548 -0.243,-3.86 0.07,-1.595 0.9,-0.288 -0.05,1.17 0.613,1.156 -0.104,0.92 -0.4,1.25 -0.682,0.44 z m 2.223,1.32 c 0.1,-1 0.188,0.683 0,0 z m -0.4,-0.385 c 0.1,-0.426 0.01,0.502 0,0 z m -7.4999999,-5.075 c -1.358,-1.873 3.9459999,1.895 0.87,0.475 -0.32,-0.085 -0.7,-0.115 -0.87,-0.475 z m 4.3129999,2.286 c -0.13,-1.577 0.287,0.26 0,0 z m 3.274,2.1 c 0.253,-0.898 0.02,0.594 0,0 z m -7.3779999,-5.102 c 0.807,-0.173 3.3429999,1.416 1.0139999,0.454 -0.2599999,-0.287 -0.7999999,-0.156 -1.0139999,-0.454 z m 6.9299999,3.453 c 0.086,-1.613 0.482,-0.963 0.004,0.232 z m -6.3279999,-4.015 c 0.3299999,-0.482 -0.874,-2.18 0.173,-0.6 0.4519999,0.36 1.2999999,0.6 0.5529999,0.753 1.2,1.05 -0.3,0.284 -0.7249999,-0.144 z m 5.9859999,3.5 c 0.227,-1.838 0.2,1.076 0,0 z m -6.6729999,-5.208 c 0.252,-0.108 0.133,0.335 0,0 z m 1.5619999,0.93 c 0.402,-0.844 0.74,0.94 0,0 z m 4.404,2.45 c -0.004,-0.323 0.083,0.47 0,0 z m -0.255,-0.564 c -0.6,-1.508 0.57,0.798 0,0 z m -0.375,-1 c -0.102,-0.623 0.35,0.783 0,0 z m 0.6,-0.993 c -0.42,-0.74 0.53,-3.257 0.636,-1.695 -0.443,1.217 -0.128,1.897 0.18,0.265 0.57,-1.284 -0.123,2.536 -0.816,1.43 z m 0.628,-3.745001 c 0.183,-0.225 0.04,0.27 0,0 z m -1.05,20.657001 c -0.248,-0.217 0.032,0.137 0,0 z m 2.16,1.092 c 1.2,0.3 1.196,-0.186 0.1,-0.334 -0.583,-0.543 -2.427,-1.12 -0.777,-0.067 0.1,0.277 0.454,0.27 0.667,0.4 z m -4.264,-2.833 c 0.66,0.494 2.492,1.398 0.943,0.2 0.523,-0.608 -1,-0.93 -0.495,-1.338 -1.285,-0.787 -1.014,-0.716 -0.113,-0.7 -1.544,-0.7 0.223,-0.638 0.14,-0.993 -0.595,-0.117 -2.9579999,-1.05 -1.568,0.076 -1.4129999,-0.72 -0.337,0.268 -0.764,0.165 -1.4449999,-0.394 1.286,1.1 -0.23,0.73 0.828,0.656 2.23,1.682 0.35,0.694 -0.247,0.357 1.346,0.897 1.737,1.168 z m 2.258,1.298 c 2.746,0.884 -1.347,-1.082 0,0 z m 11.562,7.004 c 0.036,-0.545 -0.375,0.465 0,0 z m 1.2,0.5 c 0.634,-0.613 0.026,0.978 1.05,-0.15 0.01,-0.808 -0.03,-1.285 -1.176,-0.303 -0.316,0.176 -0.457,0.92 0.126,0.454 z M 8.5806441,26.84161 c -0.195,-0.765 -1.364,-0.76 0,0 z m 1.268,0.83 c -0.47,-0.78 -1.68,-0.707 0,0 z m 7.2199999,4.354 c 0.705,0.626 3.237,0.46 0.856,0.078 -0.352,-0.52 -2.238,-0.396 -0.856,-0.078 z m 9.923,6.13 c 1.085,-0.9 -1.05,0.406 0,0 z m 2.256,1.55 c 0.007,-0.292 -0.468,0.128 0,0 z m 0.004,-0.4 c 1.2,-1.272 -1.163,0.075 0,0 z M 5.4586441,24.22861 c -1.024,-1.46 -0.636,-2.117 -1.624,-3.3 -0.188,-0.913 -1.694,-2.982 -0.78,-0.8 0.838,1.283 1.086,3.268 2.403,4.1 z m 23.4159999,14.664 c 2.2,-1.428 -0.907,-0.622 0,0 z m 1.687,0.66 c 1.107,-0.95 -0.7,-0.198 0,0 z M 8.2046441,25.21561 c 0.316,-0.47 -0.818,-0.06 0,0 z m 22.0049999,13.875 c 1.072,-0.7 -0.247,-0.585 -0.194,0.063 z m -14.542,-9.155 c -0.037,-0.468 -0.567,0.04 0,0 z m 0.898,0.517 c -0.286,-0.578 -0.44,0.1 0,0 z m 15.363,9.116 c 1.373,-1 -0.83,-0.2 -0.287,0.188 z m -0.526,-0.254 c 1.12,-0.937 -1.18,0.415 0,0 z m 2.687,1.788 c 0.75,-0.502 -0.913,-0.162 0,0 z M 8.8926441,24.88561 c 1.006,0.225 4.0219999,2.478 2.2429999,0.156 -0.9,-0.27 -0.365,-2.497 -1.2939999,-2.104 0.6239999,1.043 0.5129999,1.485 -0.797,0.83 -1.645,-0.804 -0.925,0.397 -0.602,0.73 -0.44,0.1 0.58,0.38 0.45,0.4 z m -4.585,-3.62 c 0.18,-0.746 -1.66,-4.1 -0.87,-1.68 0.285,0.507 0.255,1.467 0.87,1.68 z m 8.4159999,5.2 c -0.52,-0.433 -0.025,-0.062 0,0 z m 1.276,0.297 c 0,-0.8 -1.4,-0.32 0,0 z m 11.06,6.972 c -0.2,-0.54 -0.834,-0.012 0,0 z m 0.53,0.388 c -0.08,-0.302 -0.307,0.06 0,0 z m 4.383,2.753 c 0.42,-0.3 -0.526,-0.04 0,0 z M 6.5976441,21.85061 c 1.206,-0.467 -1.292,-0.333 0,0 z m 17.4999999,11.018 c -0.014,-0.78 -0.77,0.195 0,0 z m -17.9669999,-12.13 c 0.774,-0.26 -0.717,-0.172 0,0 z m 2.248,1.1 c -0.013,-0.256 -0.237,0.098 0,0 z m 27.4139999,16.807 c 0.996,-0.202 3.267,0.507 3.633,-0.264 -1.2,-0.03 -4.184,-0.854 -4.325,0.195 l 0.265,0.042 0.427,0.026 z M 9.0926441,22.00761 c 0.018,-0.8 -0.617,-0.03 0,0 z m -5.9,-4.1 c -0.268,-1.507 -1.02,-0.228 0,0 z m 1.4,0.354 c 0.018,-0.484 -1.3,-0.436 0,0 z m 0.805,0.396 c -0.233,-0.2 -0.18,0.237 0,0 z m 5.0699999,3.25 c 0.24,-0.22 -0.5649999,-0.162 0,0 z m -5.6149999,-4.142 c -0.137,-1.138 -1.634,-0.17 0,0 z m -2.9,-1.876 c -0.04,-0.525 -0.282,0.198 0,0 z m 0.42,-0.324 c -0.07,-0.623 -0.37,0.078 0,0 z m 2.375,1.417 c 1.005,-0.394 -1.83,-0.816 -0.205,-0.074 z m 31.7999999,19.637 c 0.643,-0.6 -0.816,-0.182 0,0 z m 3.84,2 c 0.258,-0.76 -0.65,0.1 0,0 z m -35.3999999,-22.88 c 0.106,-0.737 -0.797,0.147 0,0 z m -3.38,-2.265 c -0.18,-1.04 -0.156,-2.867001 1.58,-2.250001 -2.31699997,0.460001 1.605,2.880001 1.1,0.970001 0.975,0.048 1.907,-0.576 1.395,0.37 1.92,-0.2 3.252,-1.877001 5.1069999,-1.643001 1.445,-0.192 3.025,-0.337 4.582,-0.92 1.28,-0.092 2.513,-1.4699997 1.8,-2.2879997 -1.746,-0.148 -3.574,0.07 -5.503,0.455 -2.1379999,0.444 -4.0799999,1.288 -6.2379999,1.65 -2.104,0.2829997 0.422,0.7779997 -0.18,0.8999997 -1.097,0.38 1.3,0.637001 -0.142,1.040001 -0.896,-0.17 -1.83,-0.478 -1.446,-1.423001 -2.014,0.263 -3.78499997,1.098001 -2.193,3.148001 l 0.118,10e-4 z m 4.855,-2.472001 c 0.47,-1.7399997 2.53,1.432001 0.773,0.232001 -0.2,-0.158001 -0.555,-0.285001 -0.773,-0.232001 z m 0.092,-0.844 c 0.68,-0.5069997 0.362,0.285 0,0 z m 0.865,0.014 c 0.062,-0.7999997 1.982,0.424 0.316,0.288 z m 1.184,-0.4759997 c 0.433,-0.506 0.126,0.4479997 0,0 z m 0.303,-0.203 c 0.72,-0.865 4.0769999,-0.553 1.6199999,-0.085 -0.6599999,-0.496 -1.1629999,0.292 -1.6199999,0.085 z m 4.3799999,-0.675 c -0.108,-2.364 2.178,0.84 0,0 z m 1.243,-0.007 c 0.455,-1.2 1.765,-0.478 0.2,-0.24 0.033,0.128 -0.046,0.616 -0.2,0.24 z M 4.4966441,15.12861 c 1.358,-0.832 -1.44,-0.722 0,0 z m 1.005,0.278 c 0.476,-0.506 -1.036,-0.205 0,0 z m -2.929,-2.091 c 0.776,-0.597 -0.92,-0.227 0,0 z m 40.0999999,25.086 c 0.023,-0.692 -0.593,0.3 0,0 z m -4.075,-2.78 c 0.116,-0.796 -0.524,0.07 0,0 z m 5.195,3.05 c 1.085,0.004 3.287,-0.338 0.927,-0.337 -0.37,0.057 -2.158,0.046 -0.927,0.337 z M 6.4066441,14.91761 c 0.878,-0.06 1.373,-0.968 -0.17,-0.916 -2.392,-0.247 2.1,0.82 -0.307,0.514 -0.324,0.215 0.458,0.462 0.477,0.402 z m 0.773,0.392 c -0.092,-0.563 -0.272,0.3 0,0 z m 0.918,-2.446 c 0.38,-0.473 -0.528,-0.126 0,0 z m -2.92,-4.8800007 c 1.568,-0.532 3.7,-1.13 4.45,0.263 -0.753,-0.906 -0.304,-1.798 0.4069999,-0.473 1.006,1.34 1.5,-0.6 0.855,-1.06 0.746,0.926 1.593,1.364 0.5,0.06 1.2,-1.43 -2.3799999,0.187 -3.1919999,0.17 -0.4,0.175 -4.03,0.928 -3.02,1.04 z m 0.92,-1.758 c 0.894,-0.674 3.1,0.402 1.68,-0.67 -0.138,-0.122 -3.088,0.814 -1.68,0.67 z m 3.26,0.135 c 1.0449999,0.026 -0.45,-1.406 0.7949999,-0.757 -0.2039999,-0.668 -1.4499999,-0.793 -2.0599999,-1.06 -0.345,0.6 0.7,1.825 1.266,1.817 z m -2.687,-2.958 c 0.362,-0.5 -0.635,0.25 0,0 z m 1.332,0.32 c 1.686,-0.223 -0.43,-0.725 -0.34,-0.018 z m -2.487,-1.945 c -1.187,-1.54999995 2.233,0.26 1.026,-1.36299996 -1.015,-0.80799999 -2,0.89999996 -1.026,1.36299996 z m 15.2299999,8.203 c 0.544,-0.964 -2.247,-1.3 -0.366,-0.34 0.173,0.057 0.134,0.4079997 0.366,0.34 z"
     id="path1"
     sodipodi:nodetypes="cccccccccccccccccccccccccccccccccccccccccccccccccccccccccccccccccccccccccccccccccccccccccccccccccccccccccccccccccccccccccccccccccccccccccccccccccccccccccccccccccccccccccccccccccccccccccccccccccccccccccccccccccccccccccccccccccccccccccccccccccccccccccccccccccccccccccccccccccccccccccccccccccccccccccccccccccccccccccccccccccccccccccccccccccccccccccccccccccccccccccccccccccccccccccccccccccccccccccccccccccccccccccccccccccccccccccccccccccccccccccccccccccccccccc" />
  <path
     d="m 77.409195,4.6171635 c -0.313077,1.2355672 -0.505611,3.3065654 -0.579277,6.1945795 0,0.569232 -0.257828,0.857196 -0.773485,0.857196 -0.515657,0 -0.875612,-0.251132 -1.078191,-0.746698 C 74.425752,9.5778503 73.903399,8.6402925 73.404484,8.1045436 72.815162,7.4800631 72.031632,7.1000174 71.057241,6.9727774 70.007511,6.8053564 67.394069,6.7216458 63.21524,6.7216458 c -0.957648,0 -1.583803,0.1004527 -1.875115,0.3047063 C 61.172703,7.1552663 61.06388,7.431511 61.06388,7.8550862 V 20.364787 c 0,0.423576 0.267873,0.624481 0.798598,0.607739 l 7.125439,-0.331494 c 0.607739,-0.07534 1.01792,-0.271222 1.228871,-0.594345 0.21095,-0.323122 0.418552,-1.171947 0.619457,-2.499596 0.128915,-0.736652 0.560861,-1.004526 1.297513,-0.837105 0.626155,0.128914 0.894029,0.41353 0.803621,0.837105 -0.515656,2.504619 -0.683077,5.762632 -0.498914,9.777389 0.02009,0.47715 -0.284616,0.736652 -0.910771,0.773485 -0.515656,0.05525 -0.837105,-0.220996 -0.966019,-0.828734 -0.47715,-2.300365 -1.36783,-3.515842 -2.678737,-3.688286 -1.310906,-0.172443 -3.41204,-0.234389 -6.33856,-0.234389 -0.331493,0 -0.495566,0.117195 -0.495566,0.358281 V 36.1325 c 0,0.920816 0.339865,1.546971 1.004526,1.875116 0.535747,0.276245 1.68593,0.525702 3.452222,0.746698 0.904073,0.09208 1.297513,0.488869 1.171947,1.171947 -0.112172,0.607738 -0.920816,0.84715 -2.430953,0.71991 -4.362992,-0.334842 -7.962545,-0.331493 -10.798657,0.05525 -0.791901,0.108824 -1.171947,-0.212624 -1.171947,-0.966019 0,-0.478824 0.395113,-0.753395 1.171947,-0.828734 1.804799,-0.200905 2.705524,-1.786383 2.705524,-4.749735 v -23.63985 c 0,-1.2138022 -0.217647,-2.1480115 -0.647919,-2.8026294 C 55.075229,7.0598363 54.266586,6.4654917 53.089616,5.9330928 52.352964,5.6015991 52.076719,5.1512366 52.260882,4.5803308 c 0.09208,-0.3482357 0.239412,-0.5424441 0.440317,-0.5792767 0.167421,-0.055249 0.673033,-0.016742 1.46326,0.1104978 1.160228,0.1674211 3.895887,0.2762448 8.203631,0.2762448 L 75.544125,4.056303 c 1.232219,-0.075339 1.850002,0.026787 1.850002,0.3013579 0,0.075339 -0.01004,0.1473305 -0.02846,0.2209957 z M 95.319897,39.675129 c 0,0.736653 -0.41353,1.058101 -1.242264,0.96602 -2.539777,-0.239412 -5.687292,-0.200906 -9.442546,0.108823 -0.753395,0.07534 -1.218825,0.05525 -1.396291,-0.05357 -0.177467,-0.108824 -0.261177,-0.41353 -0.261177,-0.912445 0,-0.440317 0.502263,-0.813666 1.503441,-1.118373 1.001177,-0.304706 1.506789,-1.210454 1.506789,-2.718917 V 10.954051 c 0,-1.5067891 -0.217647,-2.5866547 -0.64792,-3.2881505 C 84.909657,6.9644063 84.146218,6.4236364 83.063003,6.038568 82.493772,5.8376628 82.205808,5.5496986 82.205808,5.1813723 c 0,-0.5524894 0.41353,-0.9660193 1.242264,-1.242264 1.252309,-0.4051589 2.551496,-1.0296394 3.895887,-1.878464 1.104979,-0.6629873 1.804799,-0.9928067 2.097786,-0.9928067 0.681403,0 1.004526,0.4687789 1.004526,1.4063367 -0.04117,0.9206583 -0.07855,1.8414823 -0.112172,2.762447 l -0.05357,5.3859367 0.108824,24.661118 c 0,1.121721 0.276245,1.938735 0.828734,2.444347 0.552489,0.505611 1.501767,0.842127 2.846157,1.004526 0.828735,0.09208 1.242265,0.405159 1.242265,0.937558 z m 24.979223,-1.629006 c 0,0.385068 -0.70316,0.971042 -2.1095,1.752898 -1.40635,0.781856 -2.53645,1.171947 -3.38191,1.171947 -0.71992,0 -1.35277,-0.348236 -1.90526,-1.04973 -0.55248,-0.701494 -0.94089,-1.048055 -1.16022,-1.048055 -0.16742,0 -1.03802,0.378371 -2.62349,1.131766 -1.58548,0.753394 -3.17598,1.13344 -4.77652,1.13344 -1.50679,0 -2.77082,-0.443666 -3.78372,-1.339368 -1.104977,-0.976065 -1.674209,-2.302039 -1.674209,-3.977924 0,-3.186022 3.646429,-5.467971 10.937619,-6.864262 1.25064,-0.239412 1.88684,-0.746698 1.90358,-1.518509 l 0.0553,-1.767966 c 0.1105,-3.018601 -1.22217,-4.528739 -4.00472,-4.528739 -0.7919,0 -1.54027,0.708191 -2.25181,2.126247 -0.71154,1.418056 -1.72444,2.181496 -3.05041,2.293668 -1.50679,0.145657 -2.26521,-0.488869 -2.26521,-1.908599 0,-0.883984 1.12172,-1.913623 3.37019,-3.093941 2.35728,-1.232219 4.62082,-1.850003 6.79395,-1.850003 3.73684,0 5.58684,1.778012 5.55001,5.330686 l -0.11217,11.376259 c -0.0168,1.197061 0.48887,1.794754 1.5185,1.794754 0.20091,0 0.591,-0.0452 1.16023,-0.137286 l 0.99616,-0.137285 c 0.5324,0 0.80027,0.359955 0.80027,1.078192 z m -8.50498,-6.295031 c 0.0167,-0.460408 -0.0887,-0.765114 -0.33485,-0.910771 -0.24612,-0.145656 -0.59267,-0.175792 -1.08825,-0.08371 -4.43665,0.791901 -6.65665,2.238419 -6.65665,4.352947 0,2.114527 1.15018,3.175977 3.45222,3.175977 0.92082,0 1.87009,-0.174118 2.84616,-0.524028 1.14349,-0.406833 1.71271,-0.894028 1.71271,-1.464934 l 0.0552,-4.528739 z m 29.03415,3.135796 c 0,1.952129 -0.75339,3.504122 -2.25181,4.654304 -1.49842,1.150183 -3.54765,1.707695 -6.14435,1.707695 -1.74517,-0.0016 -3.48533,-0.186745 -5.19173,-0.552489 -1.50679,-0.331494 -2.35729,-0.6362 -2.59503,-0.910771 -0.14733,-0.259502 -0.22099,-1.518509 -0.22099,-3.783715 0,-0.976065 0.22099,-1.481676 0.66299,-1.518509 0.44199,-0.05525 0.8371,0.167421 1.13176,0.716562 1.38122,2.410863 3.6096,3.616294 6.68345,3.616294 2.59503,0 3.89254,-0.904073 3.89254,-2.708872 0,-0.790227 -0.29299,-1.453214 -0.88398,-1.987288 -0.64457,-0.607738 -1.89521,-1.317603 -3.75526,-2.126247 -2.68878,-1.19706 -4.48353,-2.243441 -5.38593,-3.147515 -0.97607,-0.957648 -1.46326,-2.243442 -1.46326,-3.850684 0,-1.988962 0.76344,-3.515841 2.29366,-4.637562 1.41806,-1.068147 3.31494,-1.60222 5.6873,-1.60222 1.37113,-0.01189 2.74023,0.108121 4.08842,0.358281 1.32598,0.239412 2.01575,0.532399 2.071,0.883983 0.14566,1.02964 0.45204,2.521361 0.91077,4.475165 0.0553,0.237737 -0.20425,0.431946 -0.77348,0.579276 -0.60774,0.128915 -1.0129,0.02679 -1.21548,-0.301358 -1.45322,-2.377378 -3.29485,-3.562719 -5.5249,-3.562719 -2.52136,0 -3.78371,0.810318 -3.78371,2.430953 0,0.904074 0.34154,1.620636 1.00452,2.153035 0.60774,0.460408 2.03417,1.180318 4.28096,2.156383 2.35729,1.012897 3.95783,1.925342 4.80499,2.732311 1.10497,1.04973 1.67421,2.461089 1.67421,4.225707 z m 32.48806,4.831771 c 0,0.644571 -0.4353,1.004526 -1.29919,1.004526 l -5.05277,0.276245 c -1.03131,0.200905 -1.76796,0.07534 -2.20996,-0.385069 -2.90977,-3.130773 -5.37756,-6.407203 -7.40001,-9.832637 -0.16742,-0.292987 -0.37669,-0.441991 -0.6362,-0.441991 -0.31307,0 -0.8371,0.276244 -1.62733,0.828734 -0.86724,0.47715 -1.29919,1.160227 -1.29919,2.042536 l 0.0553,2.708873 c 0.0368,1.176969 0.32982,1.950455 0.88231,2.318781 0.38507,0.259502 1.28077,0.460408 2.67874,0.607738 0.86557,0.110498 1.29919,0.435295 1.29919,0.96602 0,0.423575 -0.067,0.669684 -0.20761,0.786878 -0.14063,0.117195 -0.50226,0.123892 -1.09158,0.06697 -1.84163,-0.167421 -4.95232,-0.07367 -9.33372,0.276245 -1.10498,0.09208 -1.70268,-0.04688 -1.79476,-0.41353 -0.0368,-0.128915 -0.0553,-0.313078 -0.0553,-0.55249 0,-0.569231 0.56254,-1.004526 1.68593,-1.295839 1.0129,-0.259502 1.51851,-1.446517 1.51851,-3.562719 V 10.979164 c 0,-1.5067889 -0.14733,-2.558193 -0.44366,-3.1475167 -0.40516,-0.7533947 -1.25231,-1.3443909 -2.54145,-1.7679661 -0.60607,-0.2009053 -0.91078,-0.5022631 -0.91078,-0.8371052 0,-0.5357473 0.4353,-0.9492772 1.29752,-1.242264 1.39138,-0.4691707 2.7187,-1.1103363 3.95113,-1.9085998 1.0129,-0.6613131 1.64073,-0.9944809 1.87512,-0.9944809 0.75674,0 1.13344,0.4771499 1.13344,1.4364724 0,-0.1305884 -0.0101,0.7818562 -0.0285,2.7323113 l -0.0268,5.414398 0.0553,17.286221 c 0,0.478825 0.12891,0.716562 0.38507,0.716562 0.27624,0 0.69982,-0.237737 1.2724,-0.716562 l 5.63204,-4.694485 c 0.44367,-0.460408 0.66299,-0.828734 0.66299,-1.104979 0,-0.495566 -0.74502,-0.847151 -2.23507,-1.048056 -0.64457,-0.07534 -0.94928,-0.435294 -0.91245,-1.078191 0.0553,-0.644571 0.37838,-0.920816 0.96602,-0.828734 1.32765,0.167421 3.25969,0.284615 5.79947,0.304706 l 5.27376,0.02679 c 0.56923,0.01674 0.83711,0.358281 0.83711,1.004526 0,0.624481 -0.45204,0.96602 -1.35277,1.004527 -1.41973,0.05357 -2.75407,0.375023 -4.00471,0.966019 -1.74955,0.790227 -3.61964,2.181496 -5.6086,4.185526 -0.14566,0.110498 -0.221,0.251131 -0.221,0.41353 0,0.257828 0.31308,0.875612 0.94091,1.851676 2.30036,3.515842 4.47349,6.13933 6.51602,7.925712 1.30589,1.121721 2.53141,1.684256 3.67155,1.684256 0.84715,0 1.37285,0.0586 1.57376,0.180814 0.2009,0.122218 0.3047,0.435295 0.3047,0.950952 z"
     id="path1-5"
     style="stroke-width:1.67421" />
</svg>
