<?xml version="1.0" encoding="UTF-8" standalone="no"?>
<svg
   version="1.1"
   id="Logo"
   x="0"
   y="0"
   viewBox="0 0 2103 701.72401"
   xml:space="preserve"
   width="1402"
   height="467.81601"
   sodipodi:docname="Unity GameEngine.svg"
   inkscape:version="1.4 (e7c3feb100, 2024-10-09)"
   xmlns:inkscape="http://www.inkscape.org/namespaces/inkscape"
   xmlns:sodipodi="http://sodipodi.sourceforge.net/DTD/sodipodi-0.dtd"
   xmlns="http://www.w3.org/2000/svg"
   xmlns:svg="http://www.w3.org/2000/svg"
   xmlns:rdf="http://www.w3.org/1999/02/22-rdf-syntax-ns#"
   xmlns:cc="http://creativecommons.org/ns#"
   xmlns:dc="http://purl.org/dc/elements/1.1/"><metadata
     id="metadata19"><rdf:RDF><cc:Work
         rdf:about=""><dc:format>image/svg+xml</dc:format><dc:type
           rdf:resource="http://purl.org/dc/dcmitype/StillImage" /></cc:Work></rdf:RDF></metadata><defs
     id="defs17" /><sodipodi:namedview
     pagecolor="#ffffff"
     bordercolor="#666666"
     borderopacity="1"
     objecttolerance="10"
     gridtolerance="10"
     guidetolerance="10"
     inkscape:pageopacity="0"
     inkscape:pageshadow="2"
     inkscape:window-width="1707"
     inkscape:window-height="852"
     id="namedview15"
     showgrid="false"
     inkscape:zoom="0.5"
     inkscape:cx="481"
     inkscape:cy="73"
     inkscape:window-x="0"
     inkscape:window-y="0"
     inkscape:window-maximized="1"
     inkscape:current-layer="Logo"
     inkscape:showpageshadow="2"
     inkscape:pagecheckerboard="0"
     inkscape:deskcolor="#d1d1d1" /><style
     id="style2">.st0{fill:#4c4c4c}</style><path
     d="M 617.24138,434.33468 V 170.70034 h 110.4938 v 267.51132 c 0,44.58521 23.26185,73.66253 77.53951,73.66253 50.40069,0 75.60103,-31.01579 75.60103,-75.60101 V 170.70034 h 110.4938 v 263.63434 c 0,102.73986 -62.03161,164.77147 -186.09483,164.77147 -126.0017,1.93848 -188.03331,-60.09312 -188.03331,-164.77147 z M 1041.7702,271.50172 h 98.8629 v 44.58521 h 1.9385 c 23.2618,-34.89279 54.2776,-52.33918 98.8628,-52.33918 69.7856,0 110.4939,50.40069 110.4939,122.12474 V 593.29068 H 1249.1884 V 405.25737 c 0,-32.9543 -17.4464,-56.21614 -50.4007,-56.21614 -32.9543,0 -56.2161,29.07731 -56.2161,67.84706 V 593.29068 H 1039.8317 V 271.50172 Z M 1404.2673,145.5 h 102.74 v 83.35498 h -102.74 z m 0,126.00172 h 102.74 V 591.3522 h -102.74 z m 182.2179,236.4955 V 354.85668 h -42.6466 v -83.35496 h 42.6466 V 170.70034 h 98.8629 v 100.80138 h 58.1547 v 83.35496 h -58.1547 v 131.81717 c 0,25.20034 13.5695,31.01581 34.8929,31.01581 h 23.2618 v 73.66254 c -9.6925,1.93848 -29.0773,5.81545 -56.2162,5.81545 -58.1546,0 -100.8014,-19.38487 -100.8014,-89.17043 z m 220.9877,110.4938 h 34.8928 c 29.0772,0 42.6467,-11.63092 42.6467,-32.95429 0,-13.56941 -5.8155,-32.9543 -19.3848,-65.90859 l -94.986,-246.18794 h 106.6168 l 42.6468,135.69414 c 9.6924,31.01581 19.3848,73.66253 19.3848,73.66253 h 1.9386 c 0,0 9.6924,-42.64672 19.3848,-73.66253 L 2003.2602,273.4402 H 2106 L 1995.5063,597.16765 C 1970.3058,672.76868 1939.29,697.96902 1875.32,697.96902 h -65.9087 z"
     id="path4"
     style="stroke-width:19.385" /><path
     class="st0"
     d="M 488.50575,531.7069 V 274.23563 L 265.51724,145.5 v 98.85057 l 87.35632,50.57472 c 3.44828,2.29885 3.44828,6.89655 0,8.04597 l -103.44827,59.77012 c -3.44828,2.29885 -6.89655,1.14942 -9.1954,0 L 136.78161,302.97126 c -3.44828,-1.14942 -3.44828,-6.89655 0,-8.04597 l 87.35632,-50.57472 V 145.5 L 0,274.23563 v 257.47127 -1.14943 1.14943 L 85.057471,482.28161 V 381.13218 c 0,-3.44827 4.597701,-5.74712 6.896552,-4.5977 L 195.4023,436.3046 c 3.44827,2.29885 4.5977,4.5977 4.5977,8.04597 V 563.8908 c 0,3.44828 -4.5977,5.74713 -6.89655,4.59771 L 105.74713,517.91379 20.689655,567.33908 243.67816,697.22414 466.66667,568.48851 381.6092,519.06322 294.25287,569.63793 c -3.44827,2.29885 -6.89655,0 -6.89655,-4.5977 V 445.5 c 0,-3.44828 2.29885,-6.89655 4.5977,-8.04598 L 395.4023,377.68391 c 3.44827,-2.29885 6.89655,0 6.89655,4.5977 v 101.14942 z"
     id="path6"
     style="stroke-width:11.4943" /><path
     d="M 243.67816,697.22414 466.66667,568.48851 381.6092,519.06322 294.25287,569.63793 c -3.44827,2.29885 -6.89655,0 -6.89655,-4.5977 V 445.5 c 0,-3.44828 2.29885,-6.89655 4.5977,-8.04598 L 395.4023,377.68391 c 3.44827,-2.29885 6.89655,0 6.89655,4.5977 v 101.14942 l 85.05747,49.42529 V 274.23563 L 243.67816,415.61494 Z"
     id="path8"
     style="stroke-width:11.4943" /><path
     d="m 265.51724,145.5 v 98.85057 l 87.35632,50.57472 c 3.44828,2.29885 3.44828,6.89655 0,8.04597 l -103.44827,59.77012 c -3.44828,2.29885 -6.89655,1.14942 -9.1954,0 L 136.78161,302.97126 c -3.44828,-1.14942 -3.44828,-6.89655 0,-8.04597 l 87.35632,-50.57472 V 145.5 L 0,274.23563 243.67816,415.61494 487.35632,274.23563 Z"
     fill="#808080"
     id="path10"
     style="stroke-width:11.4943" /><path
     class="st0"
     d="M 194.25287,569.63793 106.89655,519.06322 21.83908,568.48851 244.82759,697.22414 V 415.61494 L 0,274.23563 v 257.47127 -1.14943 1.14943 L 85.057471,482.28161 V 381.13218 c 0,-3.44827 4.597701,-5.74712 6.896552,-4.5977 L 195.4023,436.3046 c 3.44827,2.29885 4.5977,4.5977 4.5977,8.04597 V 563.8908 c 1.14943,4.59771 -2.29885,8.04598 -5.74713,5.74713 z"
     id="path12"
     style="stroke-width:11.4943" /></svg>
