<?xml version="1.0" encoding="UTF-8" standalone="no"?>
<!-- Uploaded to: SVG Repo, www.svgrepo.com, Generator: SVG Repo Mixer Tools -->

<svg
   width="4664.4697"
   height="600.32758"
   viewBox="0 -31.5 1492.6303 192.10482"
   version="1.1"
   preserveAspectRatio="xMidYMid"
   id="svg1"
   sodipodi:docname="Websockets.svg"
   inkscape:version="1.3.2 (091e20ef0f, 2023-11-25, custom)"
   xmlns:inkscape="http://www.inkscape.org/namespaces/inkscape"
   xmlns:sodipodi="http://sodipodi.sourceforge.net/DTD/sodipodi-0.dtd"
   xmlns="http://www.w3.org/2000/svg"
   xmlns:svg="http://www.w3.org/2000/svg">
  <defs
     id="defs1" />
  <sodipodi:namedview
     id="namedview1"
     pagecolor="#ffffff"
     bordercolor="#666666"
     borderopacity="1.0"
     inkscape:showpageshadow="2"
     inkscape:pageopacity="0.0"
     inkscape:pagecheckerboard="0"
     inkscape:deskcolor="#d1d1d1"
     inkscape:zoom="0.1946875"
     inkscape:cx="2208.6677"
     inkscape:cy="254.25361"
     inkscape:window-width="1707"
     inkscape:window-height="844"
     inkscape:window-x="0"
     inkscape:window-y="0"
     inkscape:window-maximized="1"
     inkscape:current-layer="svg1" />
  <g
     id="g1"
     style="fill:#808000"
     transform="translate(0,-31.5)">
    <path
       d="m 192.44022,144.64461 h 31.77989 V 68.339338 l -35.80478,-35.804782 -22.47232,22.472322 26.49721,26.497216 z m 31.86374,15.93187 h -46.28627 -64.566 L 86.954471,134.07927 98.190632,122.8431 120.07599,144.72846 h 45.0285 L 120.74681,100.28693 132.06682,88.966918 176.4245,133.3246 V 88.296102 L 154.62299,66.494596 165.7753,55.342286 110.68457,0 H 56.34851 V 0 H 0 l 31.696037,31.696037 v 0.08385 h 0.167704 65.572224 L 120.66295,55.006878 86.702915,88.966918 63.475925,65.739928 V 47.711759 H 31.696037 v 31.192925 l 55.006878,55.006876 -22.38847,22.38847 35.804785,35.80478 H 154.45529 256 v 0 z"
       fill="#231F20"
       id="path1"
       style="fill:#808000" />
  </g>
  <text
     xml:space="preserve"
     style="font-size:225.343px;line-height:1.25;font-family:'Liberation Sans';-inkscape-font-specification:'Liberation Sans';letter-spacing:0px;word-spacing:0px;fill:#808000;fill-opacity:1;stroke-width:1.56489"
     x="277.56058"
     y="156.22827"
     id="text1"><tspan
       sodipodi:role="line"
       id="tspan1"
       style="fill:#808000;fill-opacity:1;stroke-width:1.56489"
       x="277.56058"
       y="156.22827">Websockets</tspan></text>
</svg>
