<?xml version="1.0" encoding="UTF-8" standalone="no"?>
<!-- Generator: Adobe Illustrator 27.2.0, SVG Export Plug-In . SVG Version: 6.00 Build 0)  -->

<svg
   version="1.1"
   id="Layer_1"
   x="0px"
   y="0px"
   viewBox="0 0 512.00116 256.09009"
   xml:space="preserve"
   sodipodi:docname="YEd-01.svg"
   width="512.00116"
   height="256.09009"
   inkscape:version="1.3.2 (091e20ef0f, 2023-11-25, custom)"
   xmlns:inkscape="http://www.inkscape.org/namespaces/inkscape"
   xmlns:sodipodi="http://sodipodi.sourceforge.net/DTD/sodipodi-0.dtd"
   xmlns="http://www.w3.org/2000/svg"
   xmlns:svg="http://www.w3.org/2000/svg"><defs
   id="defs4" /><sodipodi:namedview
   id="namedview4"
   pagecolor="#ffffff"
   bordercolor="#666666"
   borderopacity="1.0"
   inkscape:showpageshadow="2"
   inkscape:pageopacity="0.0"
   inkscape:pagecheckerboard="0"
   inkscape:deskcolor="#d1d1d1"
   inkscape:zoom="1.2167969"
   inkscape:cx="255.58909"
   inkscape:cy="127.79454"
   inkscape:window-width="1707"
   inkscape:window-height="844"
   inkscape:window-x="0"
   inkscape:window-y="0"
   inkscape:window-maximized="1"
   inkscape:current-layer="Layer_1" />
<style
   type="text/css"
   id="style1">
	.st0{fill:#242265;}
	.st1{fill:#C0FC1A;}
</style>
<g
   id="g4"
   transform="translate(0.00117837,-127.94995)">
	<path
   class="st0"
   d="m 0,230.28 0.3,52.87 c 0.17,26.85 14.63,51.58 37.96,64.88 l 45.93,26.16 c 23.33,13.29 51.98,13.12 75.15,-0.44 l 45.63,-26.71 c 23.18,-13.56 37.36,-38.46 37.19,-65.32 l -0.3,-52.87 C 241.7,202 227.23,177.28 203.9,163.99 L 157.97,137.8 c -23.33,-13.29 -51.98,-13.12 -75.15,0.44 L 37.19,164.95 C 14.03,178.53 -0.15,203.43 0,230.28"
   id="path1" />
	<path
   class="st0"
   d="m 496.21,191.58 v 28.73 c 0,7.07 0.14,12.59 0.44,18.52 -5.53,-6.05 -13.39,-9.42 -21.58,-9.26 -18.08,0 -31.11,14.04 -31.11,33.44 0,20.4 12.59,34.3 31.11,34.3 9.12,0.3 17.82,-3.88 23.27,-11.19 l 2.73,9.69 H 512 V 191.58 Z m -126.96,5.89 v 98.34 h 63.26 V 280.76 H 386.35 V 253.2 h 39.22 v -14.61 h -39.22 v -26.06 h 44.85 v -15.06 z m -13.33,33.76 -16.58,0.09 -12.6,32.99 c -1.17,3.93 -2.59,7.84 -3.9,12.59 -1.17,-4.29 -2.63,-8.49 -4.35,-12.59 l -13.66,-32.99 h -17.1 v 0.44 l 27.67,62.44 -14.34,33.16 v 0.27 h 16.8 l 38.05,-95.87 v -0.53 z m 122.35,12.32 c 11.14,0 18.52,8.09 18.52,19.97 0,11.94 -7.51,20.13 -18.52,20.13 -11.01,0 -18.39,-8.35 -18.39,-20.13 0,-11.77 7.24,-19.97 18.39,-19.97 z"
   id="path2" />
	<path
   class="st1"
   d="m 193.26,280.24 c -8.8,-4.15 -17.51,1.39 -22.15,8.88 -2.16,3.92 -4.53,7.73 -7.07,11.42 -3.01,3.81 -6.72,7 -10.93,9.42 l -0.36,0.22 -0.36,0.19 c -4.2,2.48 -8.84,4.13 -13.66,4.86 -4.48,0.57 -8.96,0.25 -13.44,0.41 h -8.06 c -4.48,-0.16 -8.96,0.16 -13.44,-0.41 -4.82,-0.74 -9.46,-2.39 -13.66,-4.86 l -0.36,-0.19 -0.36,-0.22 c -4.2,-2.43 -7.9,-5.63 -10.93,-9.42 -2.59,-3.68 -4.99,-7.49 -7.18,-11.42 -0.27,-0.41 -3.99,-6.64 -3.99,-6.64 -2.1,-3.96 -4.62,-7.68 -6.36,-11.85 -1.81,-4.54 -2.73,-9.38 -2.73,-14.26 -0.04,-0.27 -0.04,-0.55 0,-0.82 0,-4.88 0.93,-9.72 2.73,-14.26 1.86,-4.07 4.26,-7.89 6.36,-11.85 0,0 5.9,-9.92 6.45,-10.93 2.13,-4.14 4.9,-7.93 8.19,-11.23 2.42,-2.05 5.01,-3.88 7.76,-5.46 2.78,-1.57 5.71,-2.88 8.74,-3.91 4.5,-1.28 9.17,-1.84 13.85,-1.67 8.6,0 18.6,-1.15 22.56,-10.22 3.06,-7.38 -0.19,-15.87 -7.4,-19.31 -8.8,-4.15 -17.51,1.42 -22.15,8.88 -2.38,3.82 -4.34,7.84 -7.07,11.45 -3.02,3.79 -6.73,6.99 -10.93,9.42 l -0.36,0.19 -0.36,0.22 c -4.21,2.45 -8.84,4.09 -13.66,4.83 -4.48,0.57 -8.93,0.27 -13.44,0.41 -2.81,0.1 -5.58,0.67 -8.19,1.69 -3.01,0.86 -5.66,2.68 -7.54,5.19 -2.27,3.11 -3.25,6.98 -2.73,10.79 0.79,4.94 2.59,9.67 5.3,13.88 2.47,3.92 4.32,8.21 5.46,12.7 0.64,3.14 0.97,6.33 0.98,9.53 -0.01,3.2 -0.34,6.4 -0.98,9.53 -1.15,4.49 -2.99,8.78 -5.46,12.7 -3.13,4.66 -5.01,10.05 -5.46,15.65 v 0.33 c -0.05,3.09 0.88,6.12 2.65,8.66 2.01,2.72 4.91,4.66 8.19,5.46 4.06,1.14 8.27,1.65 12.48,1.53 4.65,-0.22 9.31,0.3 13.79,1.53 3.04,1.01 5.96,2.32 8.74,3.91 2.75,1.57 5.35,3.4 7.76,5.46 3.3,3.28 6.07,7.06 8.19,11.2 2.53,5.09 6.34,9.43 11.06,12.59 l 0.3,0.16 c 0.73,0.4 1.49,0.74 2.27,1.01 h 0.41 c 1.4,0.43 2.85,0.65 4.32,0.66 1.54,0.11 3.09,-0.03 4.59,-0.41 h 0.44 c 0.78,-0.28 1.54,-0.62 2.27,-1.01 l 0.3,-0.16 c 4.69,-3.21 8.45,-7.59 10.93,-12.7 2.13,-4.14 4.9,-7.91 8.19,-11.2 2.42,-2.06 5.03,-3.89 7.78,-5.46 2.77,-1.58 5.69,-2.89 8.71,-3.91 4.5,-1.23 9.16,-1.75 13.82,-1.53 8.6,0 18.63,-1.17 22.56,-10.22 3.2,-7.4 -0.07,-15.99 -7.36,-19.43"
   id="path3" />
	<path
   class="st1"
   d="m 194.24,230.94 c 7.01,-4.12 9.34,-13.15 5.22,-20.15 -4.12,-7.01 -13.15,-9.34 -20.15,-5.22 -7.01,4.12 -9.34,13.15 -5.22,20.15 4.1,6.97 13.05,9.32 20.05,5.28 l 0.1,-0.06"
   id="path4" />
</g>
</svg>
